<svg xmlns="http://www.w3.org/2000/svg" width="119" height="115" viewBox="0 0 119 115">
  <path d="M114.08.27,0,113.71v15L120,9.42V.27ZM84.93.27,0,84.8v15L100,.27Zm-29,0L0,55.9V70.84L70.91.27ZM27.52.27,0,27.09v14.8L42.73.27ZM0,.27V13.84L13.64.27ZM0,142.71v15L120,38.78v-15Zm0,28v15L120,66.83v-15Zm0,29v15L120,95.78v-15Zm0,28.95v15L120,124.74v-15Zm0,28.05v15L120,152.78v-15Zm0,28.95v15L120,181.73v-15Zm0,29v15L120,210.69v-15Zm0,28.76v11.55H3.44L120,239.61v-15Zm17.27,11.55H32.38L120,267.74v-15Zm29.09,0H61.43L120,296.65v-15Zm29.09,0h15L120,325.52V310.61Zm28.19,0H119l1-1V338.65Z" transform="translate(0 -0.27)" fill="#8B8E93" fill-rule="evenodd"/>
</svg>
