<?xml version="1.0" standalone="no"?>
<!DOCTYPE svg PUBLIC "-//W3C//DTD SVG 1.1//EN" "http://www.w3.org/Graphics/SVG/1.1/DTD/svg11.dtd" >
<svg xmlns="http://www.w3.org/2000/svg" xmlns:xlink="http://www.w3.org/1999/xlink" version="1.1">
<metadata>
Created by FontForge 20170731 at Sun Jan 16 18:00:44 2005
 By Aleksey,,,
Copyright (c) Village Type &#38; Design LLC, 2004. All rights reserved.
</metadata>
<defs>
<font id="GalaxiePolaris-MediumItalic" horiz-adv-x="600" >
  <font-face 
    font-family="Galaxie Polaris Medium Italic"
    font-weight="525"
    font-style="italic"
    font-stretch="normal"
    units-per-em="1000"
    panose-1="2 11 5 4 3 3 1 2 1 3"
    ascent="800"
    descent="-200"
    x-height="530"
    cap-height="780"
    bbox="-249 -253 1523 1134"
    underline-thickness="30"
    underline-position="-160"
    unicode-range="U+0020-FF3F"
  />
<missing-glyph horiz-adv-x="960" 
d="M90 0v780h780v-780h-780zM480 345l-279 -279h558zM201 714l279 -279l279 279h-558zM435 390l-275 275v-550zM525 390l275 -275v550z" />
    <glyph glyph-name="f_dotlessi" unicode="f&#x131;" horiz-adv-x="666" 
d="M449 0l65 530h96l-65 -530h-96zM45 449l10 81h107l9 77q5 44 17 77t35.5 64t65.5 47.5t100 16.5q39 0 71 -12l-20 -89q-31 14 -60 13q-54 -1 -80 -26t-35 -97l-8 -71h151l-10 -81h-151l-80 -649h-95l80 649h-107z" />
    <glyph glyph-name="fi" unicode="fi" horiz-adv-x="666" 
d="M449 0l65 530h96l-65 -530h-96zM645 750l-14 -111h-112l14 111h112zM45 449l10 81h107l9 77q5 44 17 77t35.5 64t65.5 47.5t100 16.5q39 0 71 -12l-20 -89q-31 14 -60 13q-54 -1 -80 -26t-35 -97l-8 -71h151l-10 -81h-151l-80 -649h-95l80 649h-107z" />
    <glyph glyph-name="fl" unicode="fl" horiz-adv-x="666" 
d="M449 0l98 800h96l-98 -800h-96zM45 449l10 81h107l9 77q5 44 17 77t35.5 64t65.5 47.5t100 16.5q39 0 71 -12l-20 -89q-31 14 -60 13q-54 -1 -80 -26t-35 -97l-8 -71h151l-10 -81h-151l-80 -649h-95l80 649h-107z" />
    <glyph glyph-name=".notdef" horiz-adv-x="960" 
d="M90 0v780h780v-780h-780zM480 345l-279 -279h558zM201 714l279 -279l279 279h-558zM435 390l-275 275v-550zM525 390l275 -275v550z" />
    <glyph glyph-name=".null" horiz-adv-x="0" 
 />
    <glyph glyph-name="nonmarkingreturn" horiz-adv-x="333" 
 />
    <glyph glyph-name="space" unicode=" " horiz-adv-x="230" 
 />
    <glyph glyph-name="exclam" unicode="!" horiz-adv-x="264" 
d="M161 111l-13 -111h-112l13 111h112zM125 780h124l-99 -575h-65z" />
    <glyph glyph-name="quotedbl" unicode="&#x22;" horiz-adv-x="367" 
d="M95 780h117l-54 -250h-69zM266 780h116l-53 -250h-69z" />
    <glyph glyph-name="numbersign" unicode="#" horiz-adv-x="696" 
d="M136 571h120l73 193h96l-73 -193h149l73 193h96l-73 -193h95l-11 -90h-118l-75 -198h96l-11 -90h-120l-72 -193h-97l73 193h-149l-72 -193h-97l73 193h-94l11 90h117l76 198h-97zM318 481l-76 -198h149l76 198h-149z" />
    <glyph glyph-name="dollar" unicode="$" horiz-adv-x="553" 
d="M89 0l41 114q-64 15 -105 48l34 87q56 -36 103 -47l57 154q-30 5 -52 11.5t-44 19.5t-34 35t-12 52q0 49 23 86.5t61.5 58t81 30t88.5 9.5l39 106h89l-42 -114q75 -14 122 -50l-33 -87q-56 38 -121 50l-51 -139q27 -4 46.5 -8t43 -13.5t38 -22t24.5 -33.5t10 -48
q0 -56 -25.5 -96.5t-68.5 -61t-88.5 -29.5t-96.5 -9l-39 -103h-89zM249 192q62 1 104 25.5t42 66.5q0 26 -20 38t-71 21l-56 -151h1zM297 570q-49 -1 -83 -23.5t-34 -60.5q0 -21 15 -31t54 -18l49 133h-1z" />
    <glyph glyph-name="percent" unicode="%" horiz-adv-x="1096" 
d="M912 764l-611 -764h-104l611 764h104zM299 696q-57 0 -94 -38.5t-37 -121.5q0 -101 99 -101q57 0 94 38.5t37 121.5q0 101 -99 101zM257 355q-82 0 -128.5 43.5t-46.5 127.5q0 121 64 185.5t163 64.5q82 0 129 -43.5t47 -128.5q0 -120 -64.5 -184.5t-163.5 -64.5zM810 68
q57 0 94 39t37 122q0 100 -99 100q-57 0 -94 -38.5t-37 -121.5q0 -101 99 -101zM852 409q82 0 129 -43.5t47 -127.5q0 -121 -64.5 -185.5t-163.5 -64.5q-81 0 -128.5 43.5t-47.5 127.5q0 121 64.5 185.5t163.5 64.5z" />
    <glyph glyph-name="ampersand" unicode="&#x26;" horiz-adv-x="736" 
d="M342 705q-124 0 -124 -107q0 -25 12 -49.5t21 -34.5t32 -34q131 -131 240 -227q55 121 38 256l104 -36q3 -158 -72 -283q15 -16 44 -43.5t40 -38.5l-15 -119q-14 13 -39.5 36.5t-46.5 43t-40 37.5q-106 -118 -278 -118q-100 0 -168 47t-68 145q0 91 48 156.5t121 99.5
q-72 68 -72 149q0 99 63 153t171 54q189 0 203 -137l-101 -34q-3 44 -28.5 64t-84.5 20zM467 168q-98 89 -220 207q-64 -35 -94.5 -76t-30.5 -107q0 -38 16 -63.5t42 -36.5t46.5 -14.5t42.5 -3.5q120 0 198 94z" />
    <glyph glyph-name="quotesingle" unicode="'" horiz-adv-x="197" 
d="M95 780h117l-54 -250h-69z" />
    <glyph glyph-name="parenleft" unicode="(" horiz-adv-x="263" 
d="M311 830q-172 -290 -172 -629q0 -170 55 -331h-95q-61 130 -61 337q-4 154 51 341.5t127 281.5h95z" />
    <glyph glyph-name="parenright" unicode=")" horiz-adv-x="263" 
d="M-43 -130q172 290 172 629q0 170 -55 331h95q61 -130 61 -337q4 -154 -51 -341.5t-127 -281.5h-95z" />
    <glyph glyph-name="asterisk" unicode="*" horiz-adv-x="315" 
d="M189 588l-57 -82l-60 49l70 70l-90 20l35 80l82 -39l2 94h82l-20 -94l92 39l15 -80l-96 -20l54 -70l-72 -49z" />
    <glyph glyph-name="plus" unicode="+" horiz-adv-x="490" 
d="M181 192l19 151h-151l11 94h151l19 151h94l-19 -151h151l-11 -94h-151l-19 -151h-94z" />
    <glyph glyph-name="comma" unicode="," horiz-adv-x="240" 
d="M37 111h115l-118 -260h-61z" />
    <glyph glyph-name="hyphen" unicode="-" horiz-adv-x="360" 
d="M305 290h-260l11 90h260z" />
    <glyph glyph-name="period" unicode="." horiz-adv-x="240" 
d="M149 111l-13 -111h-112l13 111h112z" />
    <glyph glyph-name="slash" unicode="/" horiz-adv-x="350" 
d="M406 870l-348 -960h-99l347 960h100z" />
    <glyph glyph-name="zero" unicode="0" horiz-adv-x="700" 
d="M319 77q80 0 134.5 57.5t77.5 147t23 206.5q0 105 -38 152t-122 47q-80 0 -134.5 -57.5t-77.5 -147t-23 -206.5q0 -105 38 -152t122 -47zM308 -12q-130 0 -190 68.5t-60 209.5q1 111 20.5 201t59.5 160.5t108 109.5t159 39q130 0 190 -68.5t60 -209.5q-1 -111 -20.5 -201
t-59.5 -160.5t-108 -109.5t-159 -39z" />
    <glyph glyph-name="one" unicode="1" horiz-adv-x="700" 
d="M578 0h-521l11 90h210l66 540q-84 -74 -238 -112l12 96q86 24 144.5 61.5t115.5 100.5h81l-84 -686h214z" />
    <glyph glyph-name="two" unicode="2" horiz-adv-x="700" 
d="M609 0h-593q6 53 19.5 97t29.5 76.5t42 61t49 47.5t60 38.5t64.5 31.5t72.5 30q12 5 43 17.5t44 18.5t37.5 18.5t35.5 23.5t25 27.5t19.5 36t5.5 43.5q0 34 -15.5 58.5t-41 36.5t-50.5 17.5t-51 5.5q-51 0 -92 -11t-75.5 -42t-44.5 -80l-91 31q61 192 314 192
q108 0 176.5 -51t68.5 -146q0 -26 -4.5 -49t-11 -41t-19.5 -35.5t-23 -29.5t-30 -25.5t-32.5 -21.5t-37 -19.5t-37.5 -17t-41 -17t-40 -16.5q-128 -55 -185 -99t-70 -117h490z" />
    <glyph glyph-name="three" unicode="3" horiz-adv-x="700" 
d="M304 76q112 0 168.5 39.5t56.5 125.5q0 36 -14 59t-42.5 33t-53.5 12.5t-65 2.5h-109l11 91h109q41 0 69.5 5t55 19t40 44t13.5 77q0 102 -149 102q-95 0 -140 -29t-62 -102l-93 32q58 189 297 189q111 0 179 -44t68 -136q0 -84 -42.5 -135t-100.5 -64q52 -9 90 -48.5
t38 -106.5q0 -112 -86.5 -183t-248.5 -71q-240 0 -255 190l101 35q0 -72 37.5 -104t127.5 -33z" />
    <glyph glyph-name="four" unicode="4" horiz-adv-x="700" 
d="M627 178h-143l-21 -178h-96l21 178h-354l9 68l429 529h86l-63 -507h143zM399 268l31 250l14 97l-69 -94l-134 -166l-71 -88l95 1h134z" />
    <glyph glyph-name="five" unicode="5" horiz-adv-x="700" 
d="M319 76q91 2 152 54t61 162q0 138 -155 138q-125 0 -188 -70l-81 27l85 377h452l-11 -91h-369l-47 -205q66 47 172 47q116 0 178 -54.5t62 -158.5q0 -148 -92 -231t-230 -83q-131 0 -191.5 48.5t-66.5 139.5l100 35q1 -74 40 -104.5t129 -30.5z" />
    <glyph glyph-name="six" unicode="6" horiz-adv-x="700" 
d="M321 78q88 0 144 52t56 149q0 134 -149 134q-88 0 -149.5 -52.5t-61.5 -146.5q19 -136 160 -136zM421 685q-100 0 -166.5 -63.5t-84.5 -204.5h2q77 90 222 90q109 0 170.5 -57t61.5 -161q0 -139 -88 -220t-220 -81q-129 0 -191.5 71.5t-62.5 216.5q0 245 101 372.5
t275 127.5q99 0 152.5 -44.5t63.5 -114.5l-100 -34q-8 102 -135 102z" />
    <glyph glyph-name="seven" unicode="7" horiz-adv-x="700" 
d="M258 0h-109l364 583l55 91l-174 -1h-292l11 91h584l-8 -66z" />
    <glyph glyph-name="eight" unicode="8" horiz-adv-x="700" 
d="M394 685q-187 0 -187 -146q0 -61 42 -83t114 -22q38 0 67 5.5t58.5 19.5t46 45t16.5 77q0 104 -157 104zM352 350q-30 0 -56.5 -3.5t-56 -14t-50.5 -28t-34.5 -47.5t-13.5 -69q0 -111 178 -111q211 0 211 153q0 120 -178 120zM308 -12q-133 0 -200 47t-67 135
q0 98 51 154.5t117 69.5q-45 11 -73 50t-28 97q0 63 25.5 110t69 73.5t94 39t108.5 12.5q70 0 123 -16.5t88 -57.5t35 -103q0 -80 -42 -135.5t-102 -69.5q51 -11 85.5 -50.5t34.5 -108.5q0 -117 -81.5 -182t-237.5 -65z" />
    <glyph glyph-name="nine" unicode="9" horiz-adv-x="700" 
d="M389 686q-88 0 -144 -52t-56 -149q0 -134 149 -134q88 0 149.5 52.5t61.5 146.5q-19 136 -160 136zM289 79q100 0 166.5 63.5t84.5 204.5h-2q-77 -90 -222 -90q-109 0 -170.5 57t-61.5 161q0 139 88 220t220 81q129 0 191.5 -71.5t62.5 -216.5q0 -245 -101 -372.5
t-275 -127.5q-99 0 -152.5 44.5t-63.5 114.5l100 34q8 -102 135 -102z" />
    <glyph glyph-name="colon" unicode=":" horiz-adv-x="240" 
d="M149 111l-13 -111h-112l13 111h112zM193 465l-14 -111h-112l14 111h112z" />
    <glyph glyph-name="semicolon" unicode=";" horiz-adv-x="240" 
d="M193 465l-14 -111h-112l14 111h112zM37 111h115l-118 -260h-61z" />
    <glyph glyph-name="less" unicode="&#x3c;" horiz-adv-x="490" 
d="M49 343l11 94l419 188l-12 -104l-191 -83l-117 -50l104 -50l171 -83l-12 -100z" />
    <glyph glyph-name="equal" unicode="=" horiz-adv-x="490" 
d="M455 430h-396l12 94h396zM434 256h-396l11 94h396z" />
    <glyph glyph-name="greater" unicode="&#x3e;" horiz-adv-x="490" 
d="M456 437l-11 -94l-419 -188l12 104l191 83l116 50l-103 50l-171 83l12 100z" />
    <glyph glyph-name="question" unicode="?" horiz-adv-x="606" 
d="M280 205h-72q-9 43 -9 73q0 33 10 59.5t20.5 42t34 31t34.5 20.5t37 17q33 15 50.5 24.5t42 28t35.5 43.5t11 58q0 99 -129 99q-72 0 -116 -30t-63 -98l-93 31q61 188 283 188q103 0 163 -46.5t60 -132.5q0 -46 -15 -84.5t-34 -61.5t-49.5 -43t-49.5 -28.5t-47 -19.5
l-4.5 -1.5t-3.5 -1.5q-51 -20 -74.5 -46.5t-23.5 -79.5q0 -26 2 -42zM302 111l-13 -111h-112l13 111h112z" />
    <glyph glyph-name="at" unicode="@" horiz-adv-x="1043" 
d="M684 60h-55l-2 72q-23 -36 -69.5 -59.5t-98.5 -23.5q-88 0 -143.5 49.5t-55.5 149.5q0 75 22 133t59.5 92t82.5 51t95 17q52 0 93 -23.5t55 -59.5l20 72h88l-24 -132l-31 -252q51 -3 90 21t61 67t32.5 94.5t10.5 109.5q0 124 -84 200t-259 76q-202 0 -320.5 -136
t-118.5 -364q0 -161 88 -249.5t259 -88.5q130 0 207 34t96 80l93 -32q-35 -72 -137.5 -120.5t-274.5 -48.5q-204 0 -315 109t-111 305q0 272 151.5 435t393.5 163q210 0 317 -94.5t107 -254.5q0 -184 -80.5 -288t-241.5 -104zM640 263l8 64q0 49 -34.5 87t-97.5 38
q-72 0 -116 -45.5t-44 -148.5q0 -120 121 -120q63 0 107.5 38.5t55.5 86.5z" />
    <glyph glyph-name="A" unicode="A" horiz-adv-x="726" 
d="M-27 0l398 791h98l204 -791h-106l-56 225h-318l-110 -225h-110zM490 313l-84 351l-170 -351h254z" />
    <glyph glyph-name="B" unicode="B" horiz-adv-x="699" 
d="M362 0h-322l95 780h316q37 0 69.5 -7.5t64 -25t50 -53t18.5 -85.5q0 -83 -36 -135t-80 -67q44 -10 72 -49t28 -102q0 -72 -23 -123.5t-63.5 -79.5t-87 -40.5t-101.5 -12.5zM151 92h214q23 0 41 1.5t43.5 10.5t42 24.5t29 46t12.5 72.5q0 35 -11.5 57.5t-33 32.5t-41 13.5
t-46.5 3.5h-218zM430 688h-206l-30 -243h206q69 0 108.5 33.5t39.5 119.5q0 52 -29.5 71t-88.5 19z" />
    <glyph glyph-name="C" unicode="C" horiz-adv-x="757" 
d="M61 300q0 103 24.5 191.5t72 156t124.5 106t175 38.5q131 0 199 -52t77 -143l-102 -35q-3 73 -47.5 106t-137.5 33q-76 0 -132.5 -33t-88 -90t-46 -124t-14.5 -145q0 -230 204 -230q93 0 146 33.5t73 105.5l94 -33q-30 -92 -110.5 -144.5t-213.5 -52.5
q-150 0 -223.5 81.5t-73.5 230.5z" />
    <glyph glyph-name="D" unicode="D" horiz-adv-x="764" 
d="M307 0h-267l95 780h267q317 0 317 -301q0 -227 -106.5 -353t-305.5 -126zM151 92h167q152 0 224.5 102.5t72.5 268.5q0 225 -224 225h-167z" />
    <glyph glyph-name="E" unicode="E" horiz-adv-x="693" 
d="M135 780h537l-11 -92h-437l-30 -243h394l-11 -91h-394l-32 -262h457l-11 -92h-557z" />
    <glyph glyph-name="F" unicode="F" horiz-adv-x="630" 
d="M183 354l-43 -354h-100l95 780h517l-11 -92h-417l-30 -243h373l-11 -91h-373z" />
    <glyph glyph-name="G" unicode="G" horiz-adv-x="780" 
d="M61 300q0 103 24.5 191.5t72 156t124.5 106t175 38.5q131 0 199 -52t77 -143l-102 -35q-3 73 -47.5 106t-137.5 33q-76 0 -132.5 -33t-88 -90t-46 -124t-14.5 -145q0 -230 204 -230q129 0 211 50l25 198h-168l10 87h267l-42 -346q-79 -45 -148.5 -62.5t-156.5 -17.5
q-306 0 -306 312z" />
    <glyph glyph-name="H" unicode="H" horiz-adv-x="750" 
d="M625 780h100l-95 -780h-100l43 354h-390l-43 -354h-100l95 780h100l-41 -335h390z" />
    <glyph glyph-name="I" unicode="I" horiz-adv-x="296" 
d="M253 780l-95 -780h-100l95 780h100z" />
    <glyph glyph-name="J" unicode="J" horiz-adv-x="572" 
d="M455 780h100l-70 -570q-12 -103 -82 -162.5t-194 -59.5q-206 0 -213 159l102 35q-2 -50 26 -77t96 -26q77 1 117 32t48 93z" />
    <glyph glyph-name="K" unicode="K" horiz-adv-x="712" 
d="M235 780l-47 -388l406 388h139l-378 -352l304 -428h-132l-247 358l-108 -100l-32 -258h-100l95 780h100z" />
    <glyph glyph-name="L" unicode="L" horiz-adv-x="589" 
d="M235 780l-84 -688h396l-11 -92h-496l95 780h100z" />
    <glyph glyph-name="M" unicode="M" horiz-adv-x="910" 
d="M457 0h-84l-134 455l-33 129l-34 -299l-34 -285h-98l95 780h106l144 -492l43 -164l83 164l264 492h110l-95 -780h-98l34 285l40 299l-65 -129z" />
    <glyph glyph-name="N" unicode="N" horiz-adv-x="754" 
d="M231 780l254 -471l70 -133l28 235l45 369h101l-95 -780h-96l-255 471l-69 133l-28 -235l-45 -369h-101l95 780h96z" />
    <glyph glyph-name="O" unicode="O" horiz-adv-x="800" 
d="M369 79q63 0 113 23.5t80.5 61t50.5 90t28 106t8 113.5q0 228 -203 228q-63 0 -113 -23.5t-80.5 -61t-50.5 -90t-28 -106t-8 -113.5q0 -228 203 -228zM358 -12q-151 0 -224 81.5t-73 230.5q0 103 24.5 191.5t72 156t124.5 106t175 38.5q151 0 224 -81.5t73 -230.5
q0 -103 -24.5 -191.5t-72 -156t-124.5 -106t-175 -38.5z" />
    <glyph glyph-name="P" unicode="P" horiz-adv-x="658" 
d="M189 405h199q27 0 51 6t51 22t43 52.5t16 90.5q0 112 -126 112h-199zM178 313l-38 -313h-100l95 780h288q47 0 85.5 -9t73 -29t54 -59t19.5 -94q0 -64 -18 -113.5t-46 -79.5t-67 -49.5t-77 -26.5t-80 -7h-189z" />
    <glyph glyph-name="Q" unicode="Q" horiz-adv-x="800" 
d="M754 481q0 -199 -80 -324.5t-215 -157.5v-1l104 -35l187 -67l-13 -107l-515 221q-161 69 -161 290q0 103 24.5 191.5t72 156t124.5 106t175 38.5q151 0 224 -81t73 -230zM446 701q-63 0 -113 -23.5t-80.5 -61t-50.5 -90t-28 -106t-8 -113.5q0 -228 203 -228
q78 0 134.5 33.5t87 91.5t44.5 125t14 146q0 226 -203 226z" />
    <glyph glyph-name="R" unicode="R" horiz-adv-x="707" 
d="M180 327l-40 -327h-100l95 780h312q231 0 231 -185q0 -121 -57 -182.5t-144 -77.5l163 -335h-118l-151 327h-191zM191 419h222q29 0 51.5 4.5t50 19.5t43 50.5t15.5 89.5q0 35 -11.5 57.5t-32.5 32t-39 12.5t-44 3h-222z" />
    <glyph glyph-name="S" unicode="S" horiz-adv-x="713" 
d="M327 79q55 1 102 16t82 54.5t35 99.5q0 52 -41 78t-143 36q-44 4 -76.5 10t-67.5 18.5t-57 30t-36.5 46.5t-14.5 68q0 84 44.5 144t111 86t146.5 26q254 0 272 -189l-102 -35q-1 70 -44 101.5t-137 31.5q-29 0 -58 -6.5t-60.5 -22t-51 -48t-19.5 -77.5q0 -42 35 -63
t129 -32q141 -13 205.5 -50.5t64.5 -134.5q0 -71 -28 -126t-75.5 -87.5t-105 -49t-121.5 -16.5q-258 0 -276 193l102 35q3 -72 47 -104.5t138 -32.5z" />
    <glyph glyph-name="T" unicode="T" horiz-adv-x="622" 
d="M405 688l-84 -688h-100l84 688h-241l11 92h582l-11 -92h-241z" />
    <glyph glyph-name="U" unicode="U" horiz-adv-x="772" 
d="M344 -12q-313 0 -278 294l61 498h102l-61 -499q-8 -42 -1.5 -79t24 -64t59 -43t105.5 -16q122 0 173.5 53t63.5 149l61 499h102l-61 -498q-35 -294 -350 -294z" />
    <glyph glyph-name="V" unicode="V" horiz-adv-x="727" 
d="M768 780l-398 -792h-98l-203 792h104l120 -491l40 -175l84 175l240 491h111z" />
    <glyph glyph-name="W" unicode="W" horiz-adv-x="954" 
d="M539 496l-23 146l-61 -146l-221 -508h-85l-68 792h101l30 -460l9 -157l62 157l201 460h94l85 -460l28 -157l43 157l145 460h104l-262 -792h-85z" />
    <glyph glyph-name="X" unicode="X" horiz-adv-x="722" 
d="M304 615l74 -134l104 134l128 165h121l-305 -378l228 -402h-119l-101 190l-72 131l-102 -131l-147 -190h-125l326 402l-213 378h115z" />
    <glyph glyph-name="Y" unicode="Y" horiz-adv-x="730" 
d="M300 551l71 -141l107 141l177 229h118l-359 -456l-39 -324h-100l39 324l-247 456h112z" />
    <glyph glyph-name="Z" unicode="Z" horiz-adv-x="688" 
d="M3 0l10 83l549 606l-232 -1h-224l11 92h583l-10 -83l-549 -606l233 1h242l-11 -92h-602z" />
    <glyph glyph-name="bracketleft" unicode="[" horiz-adv-x="263" 
d="M298 738h-58l-95 -776h58l-11 -92h-158l117 960h158z" />
    <glyph glyph-name="backslash" unicode="\" horiz-adv-x="350" 
d="M188 -90l-112 960h100l112 -960h-100z" />
    <glyph glyph-name="bracketright" unicode="]" horiz-adv-x="263" 
d="M-30 -38h58l95 776h-58l11 92h158l-117 -960h-157z" />
    <glyph glyph-name="asciicircum" unicode="^" horiz-adv-x="506" 
d="M336 581l-37 110l-63 -110l-105 -181h-104l234 392h98l138 -392h-100z" />
    <glyph glyph-name="underscore" unicode="_" horiz-adv-x="310" 
d="M225 -200h-269l10 90h270z" />
    <glyph glyph-name="grave" unicode="`" 
d="M206 800h112l68 -208h-95z" />
    <glyph glyph-name="a" unicode="a" horiz-adv-x="616" 
d="M435 202l16 126q-1 48 -40 86.5t-104 38.5q-76 0 -125.5 -60.5t-49.5 -168.5q0 -71 34 -109t95 -38q65 0 113.5 38.5t60.5 86.5zM554 398l-32 -266l-9 -132h-87l-3 76q-30 -41 -78.5 -64.5t-103.5 -23.5q-102 0 -155.5 56.5t-53.5 161.5q0 158 75.5 247t201.5 89
q55 0 97.5 -23.5t62.5 -64.5l22 76h87z" />
    <glyph glyph-name="b" unicode="b" horiz-adv-x="611" 
d="M354 542q102 0 155.5 -56.5t53.5 -161.5q0 -158 -75.5 -247t-201.5 -89q-55 0 -97.5 23.5t-62.5 64.5l-21 -76h-87l23 132l82 668h95l-42 -341q30 38 77.5 60.5t100.5 22.5zM160 328l-16 -126q1 -48 40 -86.5t104 -38.5q76 0 125.5 60.5t49.5 168.5q0 71 -34 109t-95 38
q-65 0 -113.5 -39t-60.5 -86z" />
    <glyph glyph-name="c" unicode="c" horiz-adv-x="562" 
d="M250 -12q-104 0 -160.5 57.5t-56.5 164.5q0 156 78.5 244t206.5 88q191 0 208 -142l-99 -34q-4 45 -30.5 68t-84.5 23q-81 0 -132.5 -61.5t-51.5 -170.5q0 -72 35 -112t97 -40q113 0 143 91l90 -32q-51 -144 -243 -144z" />
    <glyph glyph-name="d" unicode="d" horiz-adv-x="611" 
d="M309 542q53 0 95 -22t63 -61l42 341h95l-82 -668l-9 -132h-87l-3 76q-30 -41 -78.5 -64.5t-103.5 -23.5q-102 0 -155.5 56.5t-53.5 161.5q0 158 75.5 247t201.5 89zM435 202l16 126q-1 47 -40 86t-104 39q-76 0 -125.5 -60.5t-49.5 -168.5q0 -71 34 -109t95 -38
q65 0 113.5 38.5t60.5 86.5z" />
    <glyph glyph-name="e" unicode="e" horiz-adv-x="582" 
d="M521 226h-390q-4 -76 31.5 -115t103.5 -39q62 0 95.5 21t47.5 63l92 -32q-23 -61 -83.5 -98.5t-160.5 -37.5q-107 0 -166 56t-59 165q0 160 80.5 246.5t209.5 86.5q208 0 208 -213q0 -45 -9 -103zM313 459q-67 0 -111.5 -38t-59.5 -114h286q9 70 -19.5 111t-95.5 41z" />
    <glyph glyph-name="f" unicode="f" horiz-adv-x="408" 
d="M45 449l10 81h107l9 77q5 44 17 77t35.5 64t65.5 47.5t100 16.5q39 0 71 -12l-20 -89q-31 14 -60 13q-54 -1 -80 -26t-35 -97l-8 -71h151l-10 -81h-151l-80 -649h-95l80 649h-107z" />
    <glyph glyph-name="g" unicode="g" horiz-adv-x="611" 
d="M554 398l-50 -410q-12 -97 -87 -148.5t-191 -51.5q-113 0 -164 36t-57 102l102 35q2 -44 29 -67t91 -23q169 0 182 113l13 111q-30 -38 -77 -60.5t-102 -22.5q-99 0 -153.5 53.5t-54.5 157.5q0 154 75.5 236.5t197.5 82.5q57 0 99 -23.5t62 -64.5l22 76h87zM438 226
l13 102q-2 48 -40.5 86.5t-102.5 38.5q-77 0 -124.5 -53.5t-47.5 -162.5q0 -136 129 -136q64 0 112 38.5t61 86.5z" />
    <glyph glyph-name="h" unicode="h" horiz-adv-x="585" 
d="M216 800l-42 -342q68 84 178 84q91 0 141.5 -47t40.5 -132l-44 -363h-96l42 346q7 51 -23 79t-86 28q-61 0 -109 -39.5t-60 -85.5l-40 -328h-95l98 800h95z" />
    <glyph glyph-name="i" unicode="i" horiz-adv-x="258" 
d="M41 0l65 530h96l-65 -530h-96zM237 750l-14 -111h-112l14 111h112z" />
    <glyph glyph-name="j" unicode="j" horiz-adv-x="258" 
d="M237 750l-14 -111h-112l14 111h112zM40 -1l66 531h96l-66 -537q-11 -93 -59.5 -149t-158.5 -56q-40 0 -70 12l21 89q23 -14 58 -13q53 1 78.5 26t34.5 97z" />
    <glyph glyph-name="k" unicode="k" horiz-adv-x="561" 
d="M118 0h-95l98 800h95l-63 -514l103 96l165 148h129l-257 -228l225 -302h-124l-176 240l-79 -68z" />
    <glyph glyph-name="l" unicode="l" horiz-adv-x="258" 
d="M41 0l98 800h96l-98 -800h-96z" />
    <glyph glyph-name="m" unicode="m" horiz-adv-x="879" 
d="M687 0l42 349q13 104 -91 104q-51 0 -92 -38.5t-54 -85.5l-40 -329h-96l42 349q13 104 -91 104q-51 0 -92.5 -38.5t-54.5 -85.5l-40 -329h-95l48 399l10 131h87l2 -75q66 87 164 87q127 0 151 -98q33 48 81 73t97 25q87 0 129.5 -47t32.5 -133l-44 -362h-96z" />
    <glyph glyph-name="n" unicode="n" horiz-adv-x="587" 
d="M170 530l2 -75q32 40 80 63.5t102 23.5q91 0 141.5 -47t40.5 -132l-44 -363h-96l42 346q7 51 -23 79t-86 28q-61 0 -109 -39.5t-60 -85.5l-40 -328h-95l48 399l10 131h87z" />
    <glyph glyph-name="o" unicode="o" horiz-adv-x="590" 
d="M264 74q79 0 129.5 59t50.5 177q0 146 -134 146q-79 0 -129.5 -59t-50.5 -177q0 -146 134 -146zM253 -12q-105 0 -162.5 56t-57.5 164q0 162 80 248t208 86q105 0 162.5 -56t57.5 -164q0 -162 -80 -248t-208 -86z" />
    <glyph glyph-name="p" unicode="p" horiz-adv-x="611" 
d="M286 -12q-53 0 -95 22t-63 61l-33 -271h-95l73 598l10 132h87l2 -76q30 41 78.5 64.5t103.5 23.5q102 0 155.5 -56.5t53.5 -161.5q0 -158 -75.5 -247t-201.5 -89zM160 328l-16 -126q1 -47 40 -86t104 -39q76 0 125.5 60.5t49.5 168.5q0 71 -34 109t-95 38
q-65 0 -113.5 -38.5t-60.5 -86.5z" />
    <glyph glyph-name="q" unicode="q" horiz-adv-x="611" 
d="M241 -12q-102 0 -155.5 56.5t-53.5 161.5q0 158 75.5 247t201.5 89q55 0 97.5 -23.5t62.5 -64.5l22 76h87l-24 -132l-73 -598h-95l33 271q-30 -38 -77.5 -60.5t-100.5 -22.5zM435 202l16 126q-1 48 -40 86.5t-104 38.5q-76 0 -125.5 -60t-49.5 -169q0 -71 34 -109t95 -38
q65 0 113.5 39t60.5 86z" />
    <glyph glyph-name="r" unicode="r" horiz-adv-x="414" 
d="M341 450q-65 0 -116 -38.5t-66 -86.5l-39 -325h-95l48 399l10 131h87l3 -81q28 41 75.5 67t100.5 26q45 0 70 -11l-21 -93q-19 12 -57 12z" />
    <glyph glyph-name="s" unicode="s" horiz-adv-x="540" 
d="M234 72q153 4 153 97q0 23 -16 35.5t-34.5 16t-65.5 8.5q-12 1 -18 2q-29 3 -38.5 4.5t-37 6.5t-39 9.5t-31 14t-28 21t-16 29t-7.5 38.5q0 49 22.5 87t59 59t76 31.5t78.5 10.5q189 0 205 -136l-100 -34q-3 43 -29 64.5t-82 21.5q-130 0 -130 -85q0 -31 27.5 -41.5
t95.5 -17.5q106 -10 144 -28q64 -29 64 -101q0 -68 -41.5 -114.5t-98 -64.5t-122.5 -18q-100 0 -151.5 36.5t-58.5 100.5l100 35q3 -44 30.5 -66t88.5 -22z" />
    <glyph glyph-name="t" unicode="t" horiz-adv-x="420" 
d="M38 449l10 81h96l17 142l97 16l-19 -158h162l-10 -81h-162l-31 -250q-9 -72 11 -97t74 -26q31 -1 62 13l-1 -89q-34 -12 -74 -12q-58 0 -96.5 17.5t-53.5 46t-20 65.5t2 76l32 256h-96z" />
    <glyph glyph-name="u" unicode="u" horiz-adv-x="587" 
d="M403 0l-3 75q-32 -40 -80 -63.5t-102 -23.5q-91 0 -141.5 47t-40.5 132l45 363h96l-43 -346q-7 -51 23 -79t86 -28q61 0 109.5 40t59.5 85l41 328h95l-49 -399l-9 -131h-87z" />
    <glyph glyph-name="v" unicode="v" horiz-adv-x="559" 
d="M191 -12l-152 542h103l73 -295l33 -142l67 142l147 295h107l-286 -542h-92z" />
    <glyph glyph-name="w" unicode="w" horiz-adv-x="813" 
d="M444 292l-27 123l-57 -123l-143 -304h-94l-65 542h97l26 -282l9 -128l60 128l133 282h97l63 -282l27 -128l42 128l96 282h96l-198 -542h-93z" />
    <glyph glyph-name="x" unicode="x" horiz-adv-x="558" 
d="M313 120l-48 81l-68 -81l-103 -120h-120l194 224l45 51l-33 50l-127 205h115l58 -100l52 -88l74 88l84 100h119l-179 -205l-45 -50l33 -51l140 -224h-116z" />
    <glyph glyph-name="y" unicode="y" horiz-adv-x="562" 
d="M575 530l-276 -495l-125 -235h-110l130 226l-157 504h107l75 -274l36 -131l67 131l144 274h109z" />
    <glyph glyph-name="z" unicode="z" horiz-adv-x="547" 
d="M6 78l386 368l-125 -1h-198l11 85h444l-10 -78l-386 -368l125 1h226l-10 -85h-473z" />
    <glyph glyph-name="braceleft" unicode="{" horiz-adv-x="301" 
d="M225 -38h20l-11 -92h-25q-167 0 -147 166l23 185q6 50 -8.5 67.5t-50.5 17.5h-21l11 88h21q36 0 54.5 17.5t24.5 67.5l23 185q20 166 187 166h25l-11 -92h-20q-38 0 -59 -18t-27 -67l-23 -184q-9 -83 -68 -119q48 -36 39 -119l-23 -184q-6 -49 11.5 -67t54.5 -18z" />
    <glyph glyph-name="bar" unicode="|" horiz-adv-x="286" 
d="M254 830l-117 -960h-100l117 960h100z" />
    <glyph glyph-name="braceright" unicode="}" horiz-adv-x="301" 
d="M82 738h-21l11 92h25q168 0 148 -166l-23 -185q-6 -50 8.5 -67.5t50.5 -17.5h20l-11 -88h-20q-36 0 -54.5 -17.5t-24.5 -67.5l-23 -185q-20 -166 -188 -166h-24l10 92h21q38 0 59 18t27 67l23 184q9 83 67 119q-47 37 -38 119l23 184q6 49 -11.5 67t-54.5 18z" />
    <glyph glyph-name="asciitilde" unicode="~" horiz-adv-x="486" 
d="M61 284l-31 62q2 3 5.5 7.5t16 16.5t27 21t38.5 16.5t50 7.5q32 0 57 -11.5t39 -26t34 -26t42 -11.5q48 1 86 45l31 -62q-2 -3 -5.5 -7.5t-16 -16.5t-27.5 -21t-38.5 -16.5t-49.5 -7.5q-32 0 -57.5 11.5t-39.5 26t-33.5 26t-41.5 11.5q-24 0 -45.5 -11.5t-31.5 -22.5z
" />
    <glyph glyph-name="exclamdown" unicode="&#xa1;" horiz-adv-x="264" 
d="M213 530l-14 -111h-112l14 111h112zM127 -200h-120l92 524h65z" />
    <glyph glyph-name="cent" unicode="&#xa2;" horiz-adv-x="572" 
d="M512 248q-19 -72 -91 -111.5t-179 -31.5l-38 -105h-89l46 124q-109 49 -109 201q0 162 84.5 251t220.5 81l40 107h89l-45 -121q92 -30 104 -127l-99 -34q-5 51 -38 73l-135 -366h6q113 0 143 91zM326 573q-79 4 -129.5 -65t-50.5 -168q0 -84 49 -124z" />
    <glyph glyph-name="sterling" unicode="&#xa3;" horiz-adv-x="707" 
d="M614 0h-605l10 89h110l33 264h-110l11 88h110l12 102q14 112 86.5 172.5t197.5 60.5q211 0 218 -158l-100 -34q2 107 -129 104q-160 -1 -177 -138l-13 -109h232l-11 -88h-232l-33 -264h400z" />
    <glyph glyph-name="currency" unicode="&#xa4;" horiz-adv-x="746" 
d="M85 330q0 63 20 128t52 103l-92 105l76 68l93 -107q77 49 182 49q106 0 168 -49l121 107l58 -68l-118 -105q29 -50 29 -124q0 -142 -73 -234l93 -105l-76 -68l-94 107q-76 -49 -181 -49t-169 49l-120 -107l-58 68l117 105q-28 53 -28 127zM354 178q93 0 157 63.5
t64 180.5q0 85 -47.5 124.5t-123.5 39.5q-90 0 -155 -59t-65 -184q0 -85 47.5 -125t122.5 -40z" />
    <glyph glyph-name="yen" unicode="&#xa5;" horiz-adv-x="714" 
d="M587 181h-199l-22 -181h-98l22 181h-200l9 76h200l7 53h-200l9 75h164l-211 391h112l127 -243l60 -118l90 118l186 243h113l-307 -391h163l-9 -75h-199l-7 -53h199z" />
    <glyph glyph-name="brokenbar" unicode="&#xa6;" horiz-adv-x="282" 
d="M191 310l-54 -440h-100l54 440h100zM254 830l-54 -440h-100l54 440h100z" />
    <glyph glyph-name="section" unicode="&#xa7;" horiz-adv-x="643" 
d="M603 327q0 -67 -36.5 -120.5t-96.5 -77.5q64 -35 64 -110q0 -78 -44.5 -132t-108 -76.5t-137.5 -22.5q-229 0 -245 169l103 35q2 -59 37.5 -87t111.5 -28q73 0 127 30.5t54 99.5q0 44 -35 61t-123 24q-37 3 -64.5 7t-57.5 11.5t-50.5 19t-37.5 28t-25.5 41t-8.5 55.5
q0 69 36.5 119.5t96.5 77.5q-63 36 -63 109q0 59 25 105t67 73t92 40.5t105 13.5q229 0 245 -169l-102 -35q-3 59 -38.5 87t-111.5 28q-32 0 -61.5 -6.5t-57.5 -20.5t-44.5 -40.5t-16.5 -63.5q0 -43 35.5 -60t121.5 -24q46 -4 77.5 -9t65.5 -16t54 -27.5t33.5 -44
t13.5 -64.5zM317 406q-76 0 -131.5 -35t-55.5 -106q0 -47 35.5 -64.5t125.5 -25.5q8 -1 25 -1q47 0 87.5 12.5t70.5 45.5t30 82q0 48 -35.5 65.5t-126.5 25.5q-8 1 -25 1z" />
    <glyph glyph-name="dieresis" unicode="&#xa8;" 
d="M308 750l-14 -111h-112l14 111h112zM508 750l-14 -111h-112l14 111h112z" />
    <glyph glyph-name="copyright" unicode="&#xa9;" horiz-adv-x="900" 
d="M52 341q0 89 38 172.5t100 144t145.5 97.5t171.5 37q153 0 254 -101t101 -250q0 -120 -63.5 -225t-168 -166.5t-222.5 -61.5q-153 0 -254.5 101.5t-101.5 251.5zM496 701q-139 0 -245.5 -104.5t-106.5 -244.5q0 -116 78 -194.5t197 -78.5q140 0 246 104.5t106 246.5
q0 115 -78 193t-197 78zM211 342q0 137 75.5 220.5t202.5 83.5q182 0 203 -148l-100 -34q-4 45 -28.5 68t-79.5 23q-78 0 -126 -50.5t-48 -148.5q0 -63 33 -97t93 -34q59 0 90.5 22.5t47.5 68.5l92 -32q-56 -150 -240 -150q-103 0 -159 54t-56 154z" />
    <glyph glyph-name="ordfeminine" unicode="&#xaa;" horiz-adv-x="510" 
d="M239 378q-77 0 -119 43.5t-42 124.5q0 115 59 180.5t153 65.5q66 0 109 -48l11 36h84l-20 -113l-20 -164l-8 -113h-84l-2 33q-51 -45 -121 -45zM284 711q-53 0 -86 -39t-33 -117q0 -96 88 -96q47 0 80 26.5t42 78.5l5 42q4 53 -22 79t-74 26z" />
    <glyph glyph-name="guillemotleft" unicode="&#xab;" horiz-adv-x="520" 
d="M229 154l-10 -73l-190 141l10 86l226 141l-10 -81l-136 -107zM449 154l-10 -73l-190 141l10 86l226 141l-10 -81l-136 -107z" />
    <glyph glyph-name="logicalnot" unicode="&#xac;" horiz-adv-x="490" 
d="M71 529h396l-35 -292h-94l24 198h-302z" />
    <glyph glyph-name="registered" unicode="&#xae;" horiz-adv-x="900" 
d="M512 146l-57 188h-99l-24 -188h-88l60 488h208q149 0 149 -121q0 -138 -116 -170l69 -197h-102zM366 418h124q79 0 79 79q0 52 -63 52h-124zM52 341q0 89 38 172.5t100 144t145.5 97.5t171.5 37q153 0 254 -101t101 -250q0 -120 -63.5 -225t-168 -166.5t-222.5 -61.5
q-153 0 -254.5 101.5t-101.5 251.5zM496 701q-139 0 -245.5 -104.5t-106.5 -244.5q0 -116 78 -194.5t197 -78.5q140 0 246 104.5t106 246.5q0 115 -78 193t-197 78z" />
    <glyph glyph-name="macron" unicode="&#xaf;" 
d="M484 652h-288l11 90h288z" />
    <glyph glyph-name="degree" unicode="&#xb0;" horiz-adv-x="478" 
d="M259 489q55 0 89 31t34 92q0 43 -26 65t-72 22q-55 0 -89 -31t-34 -92q0 -43 26 -65t72 -22zM249 412q-78 0 -124.5 38.5t-46.5 113.5q0 102 62.5 157t153.5 55q78 0 124.5 -38.5t46.5 -113.5q0 -102 -62.5 -157t-153.5 -55z" />
    <glyph glyph-name="plusminus" unicode="&#xb1;" horiz-adv-x="490" 
d="M192 284l19 151h-151l11 94h151l19 151h94l-19 -151h151l-11 -94h-151l-19 -151h-94zM420 143h-396l12 94h396z" />
    <glyph glyph-name="uni00B2" unicode="&#xb2;" horiz-adv-x="420" 
d="M267 776q63 0 101.5 -28t38.5 -80q0 -28 -8.5 -50t-18 -35t-33 -26t-35.5 -17.5t-42 -15.5q-7 -3 -11 -4q-93 -33 -108 -76l88 2h150l-9 -79h-330q6 54 20 90.5t41 60t51.5 36.5t68.5 29q53 20 72.5 33t19.5 39q0 43 -64 43q-39 0 -59.5 -12.5t-29.5 -43.5l-80 27
q36 107 177 107z" />
    <glyph glyph-name="uni00B3" unicode="&#xb3;" horiz-adv-x="426" 
d="M222 435q95 0 95 63q0 14 -5.5 22t-18 11.5t-22 4t-27.5 0.5h-64l9 70h65q22 0 35 2.5t23.5 14.5t10.5 35q0 41 -65 41q-37 0 -57.5 -13t-28.5 -44l-80 27q31 107 175 107q62 0 102 -25t40 -78q0 -75 -59 -100q50 -18 50 -76q0 -64 -49 -103t-141 -39q-142 0 -151 107
l86 30q1 -32 19.5 -44.5t57.5 -12.5z" />
    <glyph glyph-name="acute" unicode="&#xb4;" 
d="M405 800h112l-137 -208h-95z" />
    <glyph glyph-name="mu" unicode="&#xb5;" horiz-adv-x="587" 
d="M402 0l-3 75q-32 -40 -80 -63.5t-102 -23.5q-62 0 -107 25l-7 -76l-17 -137h-95l90 730h95l-42 -340q-7 -52 23.5 -82.5t85.5 -30.5q61 0 109 40t58 85l41 328h96l-49 -399l-9 -131h-87z" />
    <glyph glyph-name="paragraph" unicode="&#xb6;" horiz-adv-x="658" 
d="M538 0h-100l84 688h-70l-84 -688h-70l38 313h-49q-46 0 -85 9t-73 29.5t-53 59.5t-19 93q0 64 18 114t46 80t67 49t77 26t80 7h288z" />
    <glyph glyph-name="periodcentered" unicode="&#xb7;" horiz-adv-x="240" 
d="M184 391l-14 -111h-112l14 111h112z" />
    <glyph glyph-name="cedilla" unicode="&#xb8;" 
d="M230 11h67l-19 -46q79 -19 79 -79q0 -49 -38 -73.5t-96 -24.5q-56 0 -89 18l23 53q24 -14 53 -14q60 0 60 34q0 36 -81 45z" />
    <glyph glyph-name="uni00B9" unicode="&#xb9;" horiz-adv-x="297" 
d="M202 367h-84l35 290q-30 -24 -91 -39l11 83q39 14 62.5 30t49.5 45h67z" />
    <glyph glyph-name="ordmasculine" unicode="&#xba;" horiz-adv-x="470" 
d="M250 456h1q54 0 88.5 39.5t34.5 119.5q0 99 -92 99q-54 0 -88.5 -39.5t-34.5 -119.5q0 -99 91 -99zM241 378q-80 0 -124 43t-44 125q0 116 61.5 181t157.5 65q80 0 124 -43t44 -125q0 -116 -61.5 -181t-157.5 -65z" />
    <glyph glyph-name="guillemotright" unicode="&#xbb;" horiz-adv-x="520" 
d="M275 376l10 73l190 -141l-10 -86l-226 -141l10 81l136 107zM55 376l10 73l190 -141l-10 -86l-226 -141l10 81l136 107z" />
    <glyph glyph-name="uni00BC" unicode="&#xbc;" horiz-adv-x="863" 
d="M201 366h-84l36 291q-30 -24 -91 -39l11 83q39 14 62.5 30t49.5 45h67zM772 764l-611 -764h-104l611 764h104zM799 78h-70l-9 -78h-84l9 78h-183l9 67l220 264h79l-31 -252h70zM655 157l16 122l-98 -122h82z" />
    <glyph glyph-name="uni00BD" unicode="&#xbd;" horiz-adv-x="922" 
d="M58 0l610 764h105l-611 -764h-104zM201 366h-84l36 291q-30 -24 -91 -39l11 83q39 14 62.5 30t49.5 45h67zM723 409q63 0 101.5 -28t38.5 -80q0 -28 -8.5 -50t-18 -35t-33 -26t-35.5 -17.5t-42 -15.5q-7 -3 -11 -4q-93 -33 -108 -76l88 2h150l-9 -79h-330q6 54 20 90.5
t41 60t51.5 36.5t68.5 29q53 20 72.5 33t19.5 39q0 43 -64 43q-39 0 -59.5 -12.5t-29.5 -43.5l-80 27q36 107 177 107z" />
    <glyph glyph-name="uni00BE" unicode="&#xbe;" horiz-adv-x="989" 
d="M899 764l-611 -764h-104l611 764h104zM926 78h-70l-9 -78h-84l9 78h-183l9 67l220 264h79l-31 -252h70zM782 157l16 122l-98 -122h82zM222 435q95 0 95 63q0 14 -5.5 22t-18 11.5t-22 4t-27.5 0.5h-64l9 70h65q22 0 35 2.5t23.5 14.5t10.5 35q0 41 -65 41
q-37 0 -57.5 -13t-28.5 -44l-80 27q31 107 175 107q62 0 102 -25t40 -78q0 -75 -59 -100q50 -18 50 -76q0 -64 -49 -103t-141 -39q-142 0 -151 107l86 30q1 -32 19.5 -44.5t57.5 -12.5z" />
    <glyph glyph-name="questiondown" unicode="&#xbf;" horiz-adv-x="558" 
d="M281 323h72q9 -31 9 -66q0 -29 -8.5 -52.5t-18 -38t-31 -28.5t-34 -20t-40.5 -17.5t-38 -15.5q-87 -38 -87 -116q0 -90 131 -90q72 0 114 29.5t60 97.5l93 -32q-60 -186 -279 -186q-102 0 -162.5 44.5t-60.5 125.5q0 30 6.5 56t15 44.5t25 36t28 27.5t33 21.5t31.5 16
t31.5 13t25.5 9.5q28 12 39 17.5t25 17t18.5 27.5t4.5 41q0 17 -3 38zM386 530l-14 -111h-112l14 111h112z" />
    <glyph glyph-name="Agrave" unicode="&#xc0;" horiz-adv-x="726" 
d="M288 1030h112l68 -208h-95zM-27 0l398 791h98l204 -791h-106l-56 225h-318l-110 -225h-110zM490 313l-84 351l-170 -351h254z" />
    <glyph glyph-name="Aacute" unicode="&#xc1;" horiz-adv-x="726" 
d="M498 1030h112l-137 -208h-95zM-27 0l398 791h98l204 -791h-106l-56 225h-318l-110 -225h-110zM490 313l-84 351l-170 -351h254z" />
    <glyph glyph-name="Acircumflex" unicode="&#xc2;" horiz-adv-x="726" 
d="M621 822h-93l-85 126l-116 -126h-101l178 208h91zM-27 0l398 791h98l204 -791h-106l-56 225h-318l-110 -225h-110zM490 313l-84 351l-170 -351h254z" />
    <glyph glyph-name="Atilde" unicode="&#xc3;" horiz-adv-x="726" 
d="M-27 0l398 791h98l204 -791h-106l-56 225h-318l-110 -225h-110zM490 313l-84 351l-170 -351h254zM370 1008q30 0 53.5 -11t35.5 -25t28 -25t33 -11q45 0 58 46l76 -11q-33 -125 -152 -125q-30 0 -53.5 11t-35.5 25t-28 25t-33 11q-45 0 -58 -46l-76 11q33 125 152 125z
" />
    <glyph glyph-name="Adieresis" unicode="&#xc4;" horiz-adv-x="726" 
d="M399 979l-14 -111h-112l14 111h112zM599 979l-14 -111h-112l14 111h112zM-27 0l398 791h98l204 -791h-106l-56 225h-318l-110 -225h-110zM490 313l-84 351l-170 -351h254z" />
    <glyph glyph-name="Aring" unicode="&#xc5;" horiz-adv-x="726" 
d="M-27 0l398 791h98l204 -791h-106l-56 225h-318l-110 -225h-110zM490 313l-84 351l-170 -351h254zM430 878q23 0 38 15.5t15 40.5q0 40 -41 40q-23 0 -38 -15.5t-15 -40.5q0 -40 41 -40zM422 810q-48 0 -75.5 27t-27.5 72q0 57 36.5 95t94.5 38q48 0 75.5 -27t27.5 -72
q0 -57 -36.5 -95t-94.5 -38z" />
    <glyph glyph-name="AE" unicode="&#xc6;" horiz-adv-x="1065" 
d="M-37 0l524 780h557l-11 -92h-455l5 -243h377l-11 -91h-364l5 -262h390l-11 -92h-477l-8 355h-171l-233 -355h-117zM480 615l-108 -170h111z" />
    <glyph glyph-name="Ccedilla" unicode="&#xc7;" horiz-adv-x="757" 
d="M61 300q0 103 24.5 191.5t72 156t124.5 106t175 38.5q131 0 199 -52t77 -143l-102 -35q-3 73 -47.5 106t-137.5 33q-76 0 -132.5 -33t-88 -90t-46 -124t-14.5 -145q0 -230 204 -230q93 0 146 33.5t73 105.5l94 -33q-60 -183 -293 -196l-10 -24q79 -19 79 -79
q0 -49 -38 -73.5t-96 -24.5q-56 0 -89 18l23 53q24 -14 53 -14q60 0 60 34q0 36 -81 45l31 66q-132 9 -196 90t-64 220z" />
    <glyph glyph-name="Egrave" unicode="&#xc8;" horiz-adv-x="693" 
d="M135 780h537l-11 -92h-437l-30 -243h394l-11 -91h-394l-32 -262h457l-11 -92h-557zM281 1030h112l68 -208h-95z" />
    <glyph glyph-name="Eacute" unicode="&#xc9;" horiz-adv-x="693" 
d="M135 780h537l-11 -92h-437l-30 -243h394l-11 -91h-394l-32 -262h457l-11 -92h-557zM480 1030h112l-137 -208h-95z" />
    <glyph glyph-name="Ecircumflex" unicode="&#xca;" horiz-adv-x="693" 
d="M135 780h537l-11 -92h-437l-30 -243h394l-11 -91h-394l-32 -262h457l-11 -92h-557zM387 1030h92l126 -208h-93l-85 127l-117 -127h-101z" />
    <glyph glyph-name="Edieresis" unicode="&#xcb;" horiz-adv-x="693" 
d="M135 780h537l-11 -92h-437l-30 -243h394l-11 -91h-394l-32 -262h457l-11 -92h-557zM383 980l-14 -111h-112l14 111h112zM583 980l-14 -111h-112l14 111h112z" />
    <glyph glyph-name="Igrave" unicode="&#xcc;" horiz-adv-x="296" 
d="M253 780l-95 -780h-100l95 780h100zM75 1030h112l68 -208h-95z" />
    <glyph glyph-name="Iacute" unicode="&#xcd;" horiz-adv-x="296" 
d="M253 780l-95 -780h-100l95 780h100zM281 1030h112l-137 -208h-95z" />
    <glyph glyph-name="Icircumflex" unicode="&#xce;" horiz-adv-x="296" 
d="M253 780l-95 -780h-100l95 780h100zM188 1030h92l126 -208h-93l-85 127l-117 -127h-101z" />
    <glyph glyph-name="Idieresis" unicode="&#xcf;" horiz-adv-x="296" 
d="M253 780l-95 -780h-100l95 780h100zM184 980l-14 -111h-112l14 111h112zM384 980l-14 -111h-112l14 111h112z" />
    <glyph glyph-name="Eth" unicode="&#xd0;" horiz-adv-x="818" 
d="M361 0h-267l43 354h-115l11 91h115l41 335h267q317 0 317 -301q0 -227 -106.5 -353t-305.5 -126zM205 92h167q152 0 224.5 102.5t72.5 268.5q0 225 -224 225h-167l-30 -243h217l-11 -91h-217z" />
    <glyph glyph-name="Ntilde" unicode="&#xd1;" horiz-adv-x="754" 
d="M231 780l254 -471l70 -133l28 235l45 369h101l-95 -780h-96l-255 471l-69 133l-28 -235l-45 -369h-101l95 780h96zM384 1008q30 0 53.5 -11t35.5 -25t28 -25t33 -11q45 0 58 46l76 -11q-33 -125 -152 -125q-30 0 -53.5 11t-35.5 25t-28 25t-33 11q-45 0 -58 -46l-76 11
q33 125 152 125z" />
    <glyph glyph-name="Ograve" unicode="&#xd2;" horiz-adv-x="800" 
d="M369 79q63 0 113 23.5t80.5 61t50.5 90t28 106t8 113.5q0 228 -203 228q-63 0 -113 -23.5t-80.5 -61t-50.5 -90t-28 -106t-8 -113.5q0 -228 203 -228zM358 -12q-151 0 -224 81.5t-73 230.5q0 103 24.5 191.5t72 156t124.5 106t175 38.5q151 0 224 -81.5t73 -230.5
q0 -103 -24.5 -191.5t-72 -156t-124.5 -106t-175 -38.5zM334 1030h112l68 -208h-95z" />
    <glyph glyph-name="Oacute" unicode="&#xd3;" horiz-adv-x="800" 
d="M369 79q63 0 113 23.5t80.5 61t50.5 90t28 106t8 113.5q0 228 -203 228q-63 0 -113 -23.5t-80.5 -61t-50.5 -90t-28 -106t-8 -113.5q0 -228 203 -228zM358 -12q-151 0 -224 81.5t-73 230.5q0 103 24.5 191.5t72 156t124.5 106t175 38.5q151 0 224 -81.5t73 -230.5
q0 -103 -24.5 -191.5t-72 -156t-124.5 -106t-175 -38.5zM533 1030h112l-137 -208h-95z" />
    <glyph glyph-name="Ocircumflex" unicode="&#xd4;" horiz-adv-x="800" 
d="M369 79q63 0 113 23.5t80.5 61t50.5 90t28 106t8 113.5q0 228 -203 228q-63 0 -113 -23.5t-80.5 -61t-50.5 -90t-28 -106t-8 -113.5q0 -228 203 -228zM358 -12q-151 0 -224 81.5t-73 230.5q0 103 24.5 191.5t72 156t124.5 106t175 38.5q151 0 224 -81.5t73 -230.5
q0 -103 -24.5 -191.5t-72 -156t-124.5 -106t-175 -38.5zM440 1030h92l126 -208h-93l-85 127l-117 -127h-101z" />
    <glyph glyph-name="Otilde" unicode="&#xd5;" horiz-adv-x="800" 
d="M369 79q63 0 113 23.5t80.5 61t50.5 90t28 106t8 113.5q0 228 -203 228q-63 0 -113 -23.5t-80.5 -61t-50.5 -90t-28 -106t-8 -113.5q0 -228 203 -228zM358 -12q-151 0 -224 81.5t-73 230.5q0 103 24.5 191.5t72 156t124.5 106t175 38.5q151 0 224 -81.5t73 -230.5
q0 -103 -24.5 -191.5t-72 -156t-124.5 -106t-175 -38.5zM407 1008q30 0 53.5 -11t35.5 -25t28 -25t33 -11q45 0 58 46l76 -11q-33 -125 -152 -125q-30 0 -53.5 11t-35.5 25t-28 25t-33 11q-45 0 -58 -46l-76 11q33 125 152 125z" />
    <glyph glyph-name="Odieresis" unicode="&#xd6;" horiz-adv-x="800" 
d="M369 79q63 0 113 23.5t80.5 61t50.5 90t28 106t8 113.5q0 228 -203 228q-63 0 -113 -23.5t-80.5 -61t-50.5 -90t-28 -106t-8 -113.5q0 -228 203 -228zM358 -12q-151 0 -224 81.5t-73 230.5q0 103 24.5 191.5t72 156t124.5 106t175 38.5q151 0 224 -81.5t73 -230.5
q0 -103 -24.5 -191.5t-72 -156t-124.5 -106t-175 -38.5zM436 980l-14 -111h-112l14 111h112zM636 980l-14 -111h-112l14 111h112z" />
    <glyph glyph-name="multiply" unicode="&#xd7;" horiz-adv-x="490" 
d="M55 274l131 116l-102 116l75 67l101 -117l131 117l59 -67l-132 -116l103 -116l-75 -67l-102 117l-130 -117z" />
    <glyph glyph-name="Oslash" unicode="&#xd8;" horiz-adv-x="800" 
d="M753 481q0 -103 -24.5 -191.5t-72 -156t-124.5 -106t-175 -38.5q-115 0 -187 50l-29 -38h-79l63 80q-64 77 -64 218q0 103 24.5 191.5t72 156.5t124.5 106.5t175 38.5q115 0 187 -50l29 38h79l-63 -80q64 -77 64 -219zM446 701q-63 0 -112.5 -23.5t-80 -61t-51 -90
t-28.5 -106.5t-8 -113q0 -86 28 -141l387 496q-50 39 -135 39zM368 80q63 0 112.5 23t80 61t51 90t28.5 106t8 113q0 87 -28 142l-387 -496q50 -39 135 -39z" />
    <glyph glyph-name="Ugrave" unicode="&#xd9;" horiz-adv-x="772" 
d="M344 -12q-313 0 -278 294l61 498h102l-61 -499q-8 -42 -1.5 -79t24 -64t59 -43t105.5 -16q122 0 173.5 53t63.5 149l61 499h102l-61 -498q-35 -294 -350 -294zM320 1030h112l68 -208h-95z" />
    <glyph glyph-name="Uacute" unicode="&#xda;" horiz-adv-x="772" 
d="M344 -12q-313 0 -278 294l61 498h102l-61 -499q-8 -42 -1.5 -79t24 -64t59 -43t105.5 -16q122 0 173.5 53t63.5 149l61 499h102l-61 -498q-35 -294 -350 -294zM519 1030h112l-137 -208h-95z" />
    <glyph glyph-name="Ucircumflex" unicode="&#xdb;" horiz-adv-x="772" 
d="M344 -12q-313 0 -278 294l61 498h102l-61 -499q-8 -42 -1.5 -79t24 -64t59 -43t105.5 -16q122 0 173.5 53t63.5 149l61 499h102l-61 -498q-35 -294 -350 -294zM426 1030h92l126 -208h-93l-85 127l-117 -127h-101z" />
    <glyph glyph-name="Udieresis" unicode="&#xdc;" horiz-adv-x="772" 
d="M344 -12q-313 0 -278 294l61 498h102l-61 -499q-8 -42 -1.5 -79t24 -64t59 -43t105.5 -16q122 0 173.5 53t63.5 149l61 499h102l-61 -498q-35 -294 -350 -294zM422 980l-14 -111h-112l14 111h112zM622 980l-14 -111h-112l14 111h112z" />
    <glyph glyph-name="Yacute" unicode="&#xdd;" horiz-adv-x="730" 
d="M498 1030h112l-137 -208h-95zM300 551l71 -141l107 141l177 229h118l-359 -456l-39 -324h-100l39 324l-247 456h112z" />
    <glyph glyph-name="Thorn" unicode="&#xde;" horiz-adv-x="660" 
d="M635 433q0 -74 -24.5 -129.5t-67 -86.5t-91.5 -46t-104 -15h-189l-19 -156h-100l95 780h100l-19 -156h189q46 0 85 -9t73 -29.5t53 -59.5t19 -93zM205 532l-35 -284h199q160 0 160 173q0 111 -125 111h-199z" />
    <glyph glyph-name="germandbls" unicode="&#xdf;" horiz-adv-x="655" 
d="M398 812q94 0 153 -40t59 -114q0 -39 -12 -70.5t-26 -50t-40 -35t-38.5 -22t-37.5 -15.5t-35.5 -15t-25.5 -15t-21 -24t-6 -34q0 -7 1.5 -12.5t5.5 -10t7.5 -8.5t10.5 -7.5l12 -6t14.5 -5.5t14 -4.5t16 -5t15.5 -4.5q32 -9 47.5 -15.5t41 -21.5t37.5 -39t12 -58
q0 -91 -62 -141t-151 -50q-93 0 -132.5 37t-41.5 103l99 34q0 -42 18.5 -65t66.5 -23q101 0 101 91q0 31 -23 45.5t-74 26.5q-24 6 -41 12t-42 20t-38.5 37.5t-13.5 55.5q0 36 12.5 65.5t26.5 46.5t40 32t37 19l33 12q50 18 71.5 40.5t21.5 69.5q0 79 -123 79
q-54 0 -90 -14.5t-55.5 -45t-28.5 -62t-15 -80.5l-89 -724h-95l90 730q19 148 85 215t208 67z" />
    <glyph glyph-name="agrave" unicode="&#xe0;" horiz-adv-x="616" 
d="M199 800h112l68 -208h-95zM435 202l16 126q-1 48 -40 86.5t-104 38.5q-76 0 -125.5 -60.5t-49.5 -168.5q0 -71 34 -109t95 -38q65 0 113.5 38.5t60.5 86.5zM554 398l-32 -266l-9 -132h-87l-3 76q-30 -41 -78.5 -64.5t-103.5 -23.5q-102 0 -155.5 56.5t-53.5 161.5
q0 158 75.5 247t201.5 89q55 0 97.5 -23.5t62.5 -64.5l22 76h87z" />
    <glyph glyph-name="aacute" unicode="&#xe1;" horiz-adv-x="616" 
d="M435 202l16 126q-1 48 -40 86.5t-104 38.5q-76 0 -125.5 -60.5t-49.5 -168.5q0 -71 34 -109t95 -38q65 0 113.5 38.5t60.5 86.5zM554 398l-32 -266l-9 -132h-87l-3 76q-30 -41 -78.5 -64.5t-103.5 -23.5q-102 0 -155.5 56.5t-53.5 161.5q0 158 75.5 247t201.5 89
q55 0 97.5 -23.5t62.5 -64.5l22 76h87zM398 800h112l-137 -208h-95z" />
    <glyph glyph-name="acircumflex" unicode="&#xe2;" horiz-adv-x="616" 
d="M435 202l16 126q-1 48 -40 86.5t-104 38.5q-76 0 -125.5 -60.5t-49.5 -168.5q0 -71 34 -109t95 -38q65 0 113.5 38.5t60.5 86.5zM554 398l-32 -266l-9 -132h-87l-3 76q-30 -41 -78.5 -64.5t-103.5 -23.5q-102 0 -155.5 56.5t-53.5 161.5q0 158 75.5 247t201.5 89
q55 0 97.5 -23.5t62.5 -64.5l22 76h87zM305 800h92l126 -208h-93l-85 127l-117 -127h-101z" />
    <glyph glyph-name="atilde" unicode="&#xe3;" horiz-adv-x="616" 
d="M435 202l16 126q-1 48 -40 86.5t-104 38.5q-76 0 -125.5 -60.5t-49.5 -168.5q0 -71 34 -109t95 -38q65 0 113.5 38.5t60.5 86.5zM554 398l-32 -266l-9 -132h-87l-3 76q-30 -41 -78.5 -64.5t-103.5 -23.5q-102 0 -155.5 56.5t-53.5 161.5q0 158 75.5 247t201.5 89
q55 0 97.5 -23.5t62.5 -64.5l22 76h87zM272 778q30 0 53.5 -11t35.5 -25t28 -25t33 -11q45 0 58 46l76 -11q-33 -125 -152 -125q-30 0 -53.5 11t-35.5 25t-28 25t-33 11q-45 0 -58 -46l-76 11q33 125 152 125z" />
    <glyph glyph-name="adieresis" unicode="&#xe4;" horiz-adv-x="616" 
d="M301 750l-14 -111h-112l14 111h112zM501 750l-14 -111h-112l14 111h112zM435 202l16 126q-1 48 -40 86.5t-104 38.5q-76 0 -125.5 -60.5t-49.5 -168.5q0 -71 34 -109t95 -38q65 0 113.5 38.5t60.5 86.5zM554 398l-32 -266l-9 -132h-87l-3 76q-30 -41 -78.5 -64.5
t-103.5 -23.5q-102 0 -155.5 56.5t-53.5 161.5q0 158 75.5 247t201.5 89q55 0 97.5 -23.5t62.5 -64.5l22 76h87z" />
    <glyph glyph-name="aring" unicode="&#xe5;" horiz-adv-x="616" 
d="M435 202l16 126q-1 48 -40 86.5t-104 38.5q-76 0 -125.5 -60.5t-49.5 -168.5q0 -71 34 -109t95 -38q65 0 113.5 38.5t60.5 86.5zM554 398l-32 -266l-9 -132h-87l-3 76q-30 -41 -78.5 -64.5t-103.5 -23.5q-102 0 -155.5 56.5t-53.5 161.5q0 158 75.5 247t201.5 89
q55 0 97.5 -23.5t62.5 -64.5l22 76h87zM332 648q23 0 38 15.5t15 40.5q0 40 -41 40q-23 0 -38 -15.5t-15 -40.5q0 -40 41 -40zM324 580q-48 0 -75.5 27t-27.5 72q0 57 36.5 95t94.5 38q48 0 75.5 -27t27.5 -72q0 -57 -36.5 -95t-94.5 -38z" />
    <glyph glyph-name="ae" unicode="&#xe6;" horiz-adv-x="960" 
d="M635 -12q-148 0 -196 107q-88 -107 -245 -107q-174 0 -174 133q0 93 67.5 139.5t174.5 46.5h157l6 45q7 54 -23 80.5t-97 26.5q-60 0 -90.5 -22t-44.5 -68l-92 31q50 142 235 142q142 0 183 -85q74 85 204 85q208 0 208 -213q0 -56 -9 -103h-390q-4 -76 31.5 -115
t103.5 -39q62 0 95.5 21t47.5 63l92 -32q-23 -61 -83.5 -98.5t-160.5 -37.5zM691 459q-67 0 -111.5 -38t-59.5 -114h286q9 70 -19.5 111t-95.5 41zM254 226q-130 0 -130 -92q0 -62 87 -62q73 0 128.5 40.5t66.5 88.5l3 25h-155z" />
    <glyph glyph-name="ccedilla" unicode="&#xe7;" horiz-adv-x="562" 
d="M493 132q-46 -131 -210 -143l-10 -24q79 -19 79 -79q0 -49 -38 -73.5t-96 -24.5q-56 0 -89 18l23 53q24 -14 53 -14q60 0 60 34q0 36 -81 45l31 66q-88 9 -135 65.5t-47 154.5q0 156 78.5 244t206.5 88q191 0 208 -142l-99 -34q-4 45 -30.5 68t-84.5 23
q-81 0 -132.5 -61.5t-51.5 -170.5q0 -72 35 -112t97 -40q113 0 143 91z" />
    <glyph glyph-name="egrave" unicode="&#xe8;" horiz-adv-x="582" 
d="M202 800h112l68 -208h-95zM521 226h-390q-4 -76 31.5 -115t103.5 -39q62 0 95.5 21t47.5 63l92 -32q-23 -61 -83.5 -98.5t-160.5 -37.5q-107 0 -166 56t-59 165q0 160 80.5 246.5t209.5 86.5q208 0 208 -213q0 -45 -9 -103zM313 459q-67 0 -111.5 -38t-59.5 -114h286
q9 70 -19.5 111t-95.5 41z" />
    <glyph glyph-name="eacute" unicode="&#xe9;" horiz-adv-x="582" 
d="M401 800h112l-137 -208h-95zM521 226h-390q-4 -76 31.5 -115t103.5 -39q62 0 95.5 21t47.5 63l92 -32q-23 -61 -83.5 -98.5t-160.5 -37.5q-107 0 -166 56t-59 165q0 160 80.5 246.5t209.5 86.5q208 0 208 -213q0 -45 -9 -103zM313 459q-67 0 -111.5 -38t-59.5 -114h286
q9 70 -19.5 111t-95.5 41z" />
    <glyph glyph-name="ecircumflex" unicode="&#xea;" horiz-adv-x="582" 
d="M521 226h-390q-4 -76 31.5 -115t103.5 -39q62 0 95.5 21t47.5 63l92 -32q-23 -61 -83.5 -98.5t-160.5 -37.5q-107 0 -166 56t-59 165q0 160 80.5 246.5t209.5 86.5q208 0 208 -213q0 -45 -9 -103zM313 459q-67 0 -111.5 -38t-59.5 -114h286q9 70 -19.5 111t-95.5 41z
M308 800h92l126 -208h-93l-85 127l-117 -127h-101z" />
    <glyph glyph-name="edieresis" unicode="&#xeb;" horiz-adv-x="582" 
d="M304 750l-14 -111h-112l14 111h112zM504 750l-14 -111h-112l14 111h112zM521 226h-390q-4 -76 31.5 -115t103.5 -39q62 0 95.5 21t47.5 63l92 -32q-23 -61 -83.5 -98.5t-160.5 -37.5q-107 0 -166 56t-59 165q0 160 80.5 246.5t209.5 86.5q208 0 208 -213q0 -45 -9 -103z
M313 459q-67 0 -111.5 -38t-59.5 -114h286q9 70 -19.5 111t-95.5 41z" />
    <glyph glyph-name="igrave" unicode="&#xec;" horiz-adv-x="258" 
d="M41 0l65 530h96l-65 -530h-96zM25 800h112l68 -208h-95z" />
    <glyph glyph-name="iacute" unicode="&#xed;" horiz-adv-x="258" 
d="M41 0l65 530h96l-65 -530h-96zM234 800h112l-137 -208h-95z" />
    <glyph glyph-name="icircumflex" unicode="&#xee;" horiz-adv-x="258" 
d="M41 0l65 530h96l-65 -530h-96zM141 800h92l126 -208h-93l-85 127l-117 -127h-101z" />
    <glyph glyph-name="idieresis" unicode="&#xef;" horiz-adv-x="258" 
d="M41 0l65 530h96l-65 -530h-96zM137 750l-14 -111h-112l14 111h112zM337 750l-14 -111h-112l14 111h112z" />
    <glyph glyph-name="eth" unicode="&#xf0;" horiz-adv-x="589" 
d="M531 715l-80 -29q92 -115 92 -309q0 -193 -74.5 -291t-216.5 -98q-105 0 -162.5 56t-57.5 164q0 161 79.5 247.5t207.5 86.5q71 0 116 -38q-17 83 -74 150l-177 -63l9 69l120 43q-59 50 -167 97h165q51 -26 95 -64l134 48zM309 454q-79 0 -128.5 -58t-49.5 -178
q0 -143 132 -143q80 0 130 58t50 178q0 143 -134 143z" />
    <glyph glyph-name="ntilde" unicode="&#xf1;" horiz-adv-x="587" 
d="M170 530l2 -75q32 40 80 63.5t102 23.5q91 0 141.5 -47t40.5 -132l-44 -363h-96l42 346q7 51 -23 79t-86 28q-61 0 -109 -39.5t-60 -85.5l-40 -328h-95l48 399l10 131h87zM278 778q30 0 53.5 -11t35.5 -25t28 -25t33 -11q45 0 58 46l76 -11q-33 -125 -152 -125
q-30 0 -53.5 11t-35.5 25t-28 25t-33 11q-45 0 -58 -46l-76 11q33 125 152 125z" />
    <glyph glyph-name="ograve" unicode="&#xf2;" horiz-adv-x="590" 
d="M201 800h112l68 -208h-95zM264 74q79 0 129.5 59t50.5 177q0 146 -134 146q-79 0 -129.5 -59t-50.5 -177q0 -146 134 -146zM253 -12q-105 0 -162.5 56t-57.5 164q0 162 80 248t208 86q105 0 162.5 -56t57.5 -164q0 -162 -80 -248t-208 -86z" />
    <glyph glyph-name="oacute" unicode="&#xf3;" horiz-adv-x="590" 
d="M400 800h112l-137 -208h-95zM264 74q79 0 129.5 59t50.5 177q0 146 -134 146q-79 0 -129.5 -59t-50.5 -177q0 -146 134 -146zM253 -12q-105 0 -162.5 56t-57.5 164q0 162 80 248t208 86q105 0 162.5 -56t57.5 -164q0 -162 -80 -248t-208 -86z" />
    <glyph glyph-name="ocircumflex" unicode="&#xf4;" horiz-adv-x="590" 
d="M264 74q79 0 129.5 59t50.5 177q0 146 -134 146q-79 0 -129.5 -59t-50.5 -177q0 -146 134 -146zM253 -12q-105 0 -162.5 56t-57.5 164q0 162 80 248t208 86q105 0 162.5 -56t57.5 -164q0 -162 -80 -248t-208 -86zM307 800h92l126 -208h-93l-85 127l-117 -127h-101z" />
    <glyph glyph-name="otilde" unicode="&#xf5;" horiz-adv-x="590" 
d="M264 74q79 0 129.5 59t50.5 177q0 146 -134 146q-79 0 -129.5 -59t-50.5 -177q0 -146 134 -146zM253 -12q-105 0 -162.5 56t-57.5 164q0 162 80 248t208 86q105 0 162.5 -56t57.5 -164q0 -162 -80 -248t-208 -86zM274 778q30 0 53.5 -11t35.5 -25t28 -25t33 -11
q45 0 58 46l76 -11q-33 -125 -152 -125q-30 0 -53.5 11t-35.5 25t-28 25t-33 11q-45 0 -58 -46l-76 11q33 125 152 125z" />
    <glyph glyph-name="odieresis" unicode="&#xf6;" horiz-adv-x="590" 
d="M303 750l-14 -111h-112l14 111h112zM503 750l-14 -111h-112l14 111h112zM264 74q79 0 129.5 59t50.5 177q0 146 -134 146q-79 0 -129.5 -59t-50.5 -177q0 -146 134 -146zM253 -12q-105 0 -162.5 56t-57.5 164q0 162 80 248t208 86q105 0 162.5 -56t57.5 -164
q0 -162 -80 -248t-208 -86z" />
    <glyph glyph-name="divide" unicode="&#xf7;" horiz-adv-x="490" 
d="M445 343h-396l11 94h396zM295 275l-14 -115h-114l14 115h114zM338 620l-14 -115h-114l14 115h114z" />
    <glyph glyph-name="oslash" unicode="&#xf8;" horiz-adv-x="590" 
d="M264 74q79 0 129.5 58.5t50.5 176.5q0 53 -17 85l-241 -301q29 -19 78 -19zM537 265q-17 -136 -91.5 -206.5t-192.5 -70.5q-76 0 -127 30l-14 -18h-73l43 54q-49 57 -49 154q0 162 80 248t208 86q76 0 127 -30l15 18h73l-44 -54q49 -55 49 -154q0 -30 -4 -57zM310 456
q-79 0 -129.5 -58.5t-50.5 -176.5q0 -51 17 -85l241 301q-29 19 -78 19z" />
    <glyph glyph-name="ugrave" unicode="&#xf9;" horiz-adv-x="587" 
d="M403 0l-3 75q-32 -40 -80 -63.5t-102 -23.5q-91 0 -141.5 47t-40.5 132l45 363h96l-43 -346q-7 -51 23 -79t86 -28q61 0 109.5 40t59.5 85l41 328h95l-49 -399l-9 -131h-87zM194 800h112l68 -208h-95z" />
    <glyph glyph-name="uacute" unicode="&#xfa;" horiz-adv-x="587" 
d="M403 0l-3 75q-32 -40 -80 -63.5t-102 -23.5q-91 0 -141.5 47t-40.5 132l45 363h96l-43 -346q-7 -51 23 -79t86 -28q61 0 109.5 40t59.5 85l41 328h95l-49 -399l-9 -131h-87zM393 800h112l-137 -208h-95z" />
    <glyph glyph-name="ucircumflex" unicode="&#xfb;" horiz-adv-x="587" 
d="M403 0l-3 75q-32 -40 -80 -63.5t-102 -23.5q-91 0 -141.5 47t-40.5 132l45 363h96l-43 -346q-7 -51 23 -79t86 -28q61 0 109.5 40t59.5 85l41 328h95l-49 -399l-9 -131h-87zM300 800h92l126 -208h-93l-85 127l-117 -127h-101z" />
    <glyph glyph-name="udieresis" unicode="&#xfc;" horiz-adv-x="587" 
d="M403 0l-3 75q-32 -40 -80 -63.5t-102 -23.5q-91 0 -141.5 47t-40.5 132l45 363h96l-43 -346q-7 -51 23 -79t86 -28q61 0 109.5 40t59.5 85l41 328h95l-49 -399l-9 -131h-87zM296 750l-14 -111h-112l14 111h112zM496 750l-14 -111h-112l14 111h112z" />
    <glyph glyph-name="yacute" unicode="&#xfd;" horiz-adv-x="562" 
d="M386 800h112l-137 -208h-95zM575 530l-276 -495l-125 -235h-110l130 226l-157 504h107l75 -274l36 -131l67 131l144 274h109z" />
    <glyph glyph-name="thorn" unicode="&#xfe;" horiz-adv-x="611" 
d="M563 324q0 -149 -74 -242.5t-203 -93.5q-53 0 -95 22t-63 61l-33 -271h-95l123 1000h95l-42 -341q30 38 77.5 60.5t100.5 22.5q102 0 155.5 -56.5t53.5 -161.5zM160 328l-16 -126q1 -47 40 -86t104 -39q76 0 125.5 60.5t49.5 168.5q0 71 -34 109t-95 38q-65 0 -113.5 -39
t-60.5 -86z" />
    <glyph glyph-name="ydieresis" unicode="&#xff;" horiz-adv-x="562" 
d="M289 750l-14 -111h-112l14 111h112zM489 750l-14 -111h-112l14 111h112zM575 530l-276 -495l-125 -235h-110l130 226l-157 504h107l75 -274l36 -131l67 131l144 274h109z" />
    <glyph glyph-name="Amacron" unicode="&#x100;" horiz-adv-x="726" 
d="M287 881l11 90h288l-11 -90h-288zM-27 0l398 791h98l204 -791h-106l-56 225h-318l-110 -225h-110zM490 313l-84 351l-170 -351h254z" />
    <glyph glyph-name="amacron" unicode="&#x101;" horiz-adv-x="616" 
d="M477 652h-288l11 90h288zM435 202l16 126q-1 48 -40 86.5t-104 38.5q-76 0 -125.5 -60.5t-49.5 -168.5q0 -71 34 -109t95 -38q65 0 113.5 38.5t60.5 86.5zM554 398l-32 -266l-9 -132h-87l-3 76q-30 -41 -78.5 -64.5t-103.5 -23.5q-102 0 -155.5 56.5t-53.5 161.5
q0 158 75.5 247t201.5 89q55 0 97.5 -23.5t62.5 -64.5l22 76h87z" />
    <glyph glyph-name="Abreve" unicode="&#x102;" horiz-adv-x="726" 
d="M-27 0l398 791h98l204 -791h-106l-56 225h-318l-110 -225h-110zM490 313l-84 351l-170 -351h254zM424 825q-102 0 -138.5 51.5t-23.5 153.5h76q-9 -66 13 -93.5t81 -27.5t88 27.5t36 93.5h80q-12 -102 -61 -153.5t-151 -51.5z" />
    <glyph glyph-name="abreve" unicode="&#x103;" horiz-adv-x="616" 
d="M435 202l16 126q-1 48 -40 86.5t-104 38.5q-76 0 -125.5 -60.5t-49.5 -168.5q0 -71 34 -109t95 -38q65 0 113.5 38.5t60.5 86.5zM554 398l-32 -266l-9 -132h-87l-3 76q-30 -41 -78.5 -64.5t-103.5 -23.5q-102 0 -155.5 56.5t-53.5 161.5q0 158 75.5 247t201.5 89
q55 0 97.5 -23.5t62.5 -64.5l22 76h87zM326 595q-102 0 -138.5 51.5t-23.5 153.5h76q-9 -66 13 -93.5t81 -27.5t88 27.5t36 93.5h80q-12 -102 -61 -153.5t-151 -51.5z" />
    <glyph glyph-name="Aogonek" unicode="&#x104;" horiz-adv-x="726" 
d="M-27 0l398 791h98l204 -791q-55 -7 -97 -38.5t-42 -67.5q0 -33 41 -33q34 0 68 17q4 1 4 2l14 -67q-44 -25 -106 -25q-46 0 -75.5 21.5t-29.5 65.5t29.5 83t81.5 67l-50 200h-318l-110 -225h-110zM490 313l-84 351l-170 -351h254z" />
    <glyph glyph-name="aogonek" unicode="&#x105;" horiz-adv-x="616" 
d="M554 398l-32 -266l-9 -132q-55 -7 -97 -38.5t-42 -67.5q0 -33 41 -33q34 0 68 17q4 1 4 2l14 -67q-44 -25 -106 -25q-46 0 -75.5 21.5t-29.5 65.5q0 48 36 90.5t98 70.5l-1 40q-30 -41 -78.5 -64.5t-103.5 -23.5q-102 0 -155.5 56.5t-53.5 161.5q0 158 75.5 247t201.5 89
q55 0 97.5 -23.5t62.5 -64.5l22 76h87zM435 202l16 126q-1 48 -40 86.5t-104 38.5q-76 0 -125.5 -60.5t-49.5 -168.5q0 -71 34 -109t95 -38q65 0 113.5 38.5t60.5 86.5z" />
    <glyph glyph-name="Cacute" unicode="&#x106;" horiz-adv-x="757" 
d="M524 1030h112l-137 -208h-95zM61 300q0 103 24.5 191.5t72 156t124.5 106t175 38.5q131 0 199 -52t77 -143l-102 -35q-3 73 -47.5 106t-137.5 33q-76 0 -132.5 -33t-88 -90t-46 -124t-14.5 -145q0 -230 204 -230q93 0 146 33.5t73 105.5l94 -33q-30 -92 -110.5 -144.5
t-213.5 -52.5q-150 0 -223.5 81.5t-73.5 230.5z" />
    <glyph glyph-name="cacute" unicode="&#x107;" horiz-adv-x="562" 
d="M397 800h112l-137 -208h-95zM250 -12q-104 0 -160.5 57.5t-56.5 164.5q0 156 78.5 244t206.5 88q191 0 208 -142l-99 -34q-4 45 -30.5 68t-84.5 23q-81 0 -132.5 -61.5t-51.5 -170.5q0 -72 35 -112t97 -40q113 0 143 91l90 -32q-51 -144 -243 -144z" />
    <glyph glyph-name="Ccircumflex" unicode="&#x108;" horiz-adv-x="757" 
d="M61 300q0 103 24.5 191.5t72 156t124.5 106t175 38.5q131 0 199 -52t77 -143l-102 -35q-3 73 -47.5 106t-137.5 33q-76 0 -132.5 -33t-88 -90t-46 -124t-14.5 -145q0 -230 204 -230q93 0 146 33.5t73 105.5l94 -33q-30 -92 -110.5 -144.5t-213.5 -52.5
q-150 0 -223.5 81.5t-73.5 230.5zM431 1030h92l126 -208h-93l-85 127l-117 -127h-101z" />
    <glyph glyph-name="ccircumflex" unicode="&#x109;" horiz-adv-x="562" 
d="M250 -12q-104 0 -160.5 57.5t-56.5 164.5q0 156 78.5 244t206.5 88q191 0 208 -142l-99 -34q-4 45 -30.5 68t-84.5 23q-81 0 -132.5 -61.5t-51.5 -170.5q0 -72 35 -112t97 -40q113 0 143 91l90 -32q-51 -144 -243 -144zM304 800h92l126 -208h-93l-85 127l-117 -127h-101z
" />
    <glyph glyph-name="Cdotaccent" unicode="&#x10a;" horiz-adv-x="757" 
d="M527 980l-14 -111h-112l14 111h112zM61 300q0 103 24.5 191.5t72 156t124.5 106t175 38.5q131 0 199 -52t77 -143l-102 -35q-3 73 -47.5 106t-137.5 33q-76 0 -132.5 -33t-88 -90t-46 -124t-14.5 -145q0 -230 204 -230q93 0 146 33.5t73 105.5l94 -33
q-30 -92 -110.5 -144.5t-213.5 -52.5q-150 0 -223.5 81.5t-73.5 230.5z" />
    <glyph glyph-name="cdotaccent" unicode="&#x10b;" horiz-adv-x="562" 
d="M400 750l-14 -111h-112l14 111h112zM250 -12q-104 0 -160.5 57.5t-56.5 164.5q0 156 78.5 244t206.5 88q191 0 208 -142l-99 -34q-4 45 -30.5 68t-84.5 23q-81 0 -132.5 -61.5t-51.5 -170.5q0 -72 35 -112t97 -40q113 0 143 91l90 -32q-51 -144 -243 -144z" />
    <glyph glyph-name="Ccaron" unicode="&#x10c;" horiz-adv-x="757" 
d="M61 300q0 103 24.5 191.5t72 156t124.5 106t175 38.5q131 0 199 -52t77 -143l-102 -35q-3 73 -47.5 106t-137.5 33q-76 0 -132.5 -33t-88 -90t-46 -124t-14.5 -145q0 -230 204 -230q93 0 146 33.5t73 105.5l94 -33q-30 -92 -110.5 -144.5t-213.5 -52.5
q-150 0 -223.5 81.5t-73.5 230.5zM497 822h-92l-126 208h93l85 -127l117 127h101z" />
    <glyph glyph-name="ccaron" unicode="&#x10d;" horiz-adv-x="562" 
d="M250 -12q-104 0 -160.5 57.5t-56.5 164.5q0 156 78.5 244t206.5 88q191 0 208 -142l-99 -34q-4 45 -30.5 68t-84.5 23q-81 0 -132.5 -61.5t-51.5 -170.5q0 -72 35 -112t97 -40q113 0 143 91l90 -32q-51 -144 -243 -144zM370 592h-92l-126 208h93l85 -127l117 127h101z
" />
    <glyph glyph-name="Dcaron" unicode="&#x10e;" horiz-adv-x="764" 
d="M447 822h-92l-126 208h93l85 -127l117 127h101zM307 0h-267l95 780h267q317 0 317 -301q0 -227 -106.5 -353t-305.5 -126zM151 92h167q152 0 224.5 102.5t72.5 268.5q0 225 -224 225h-167z" />
    <glyph glyph-name="dcaron" unicode="&#x10f;" horiz-adv-x="611" 
d="M695 800h108l-95 -208h-86zM309 542q53 0 95 -22t63 -61l42 341h95l-82 -668l-9 -132h-87l-3 76q-30 -41 -78.5 -64.5t-103.5 -23.5q-102 0 -155.5 56.5t-53.5 161.5q0 158 75.5 247t201.5 89zM435 202l16 126q-1 47 -40 86t-104 39q-76 0 -125.5 -60.5t-49.5 -168.5
q0 -71 34 -109t95 -38q65 0 113.5 38.5t60.5 86.5z" />
    <glyph glyph-name="Dcroat" unicode="&#x110;" horiz-adv-x="818" 
d="M361 0h-267l43 354h-115l11 91h115l41 335h267q317 0 317 -301q0 -227 -106.5 -353t-305.5 -126zM205 92h167q152 0 224.5 102.5t72.5 268.5q0 225 -224 225h-167l-30 -243h217l-11 -91h-217z" />
    <glyph glyph-name="dcroat" unicode="&#x111;" horiz-adv-x="611" 
d="M309 542q53 0 95 -22t63 -61l19 160h-135l9 78h136l13 103h95l-13 -103h103l-9 -78h-103l-60 -487l-9 -132h-87l-3 76q-30 -41 -78.5 -64.5t-103.5 -23.5q-102 0 -155.5 56.5t-53.5 161.5q0 158 75.5 247t201.5 89zM435 202l16 126q-1 47 -40 86t-104 39
q-76 0 -125.5 -60.5t-49.5 -168.5q0 -71 34 -109t95 -38q65 0 113.5 38.5t60.5 86.5z" />
    <glyph glyph-name="Emacron" unicode="&#x112;" horiz-adv-x="693" 
d="M135 780h537l-11 -92h-437l-30 -243h394l-11 -91h-394l-32 -262h457l-11 -92h-557zM559 882h-288l11 90h288z" />
    <glyph glyph-name="emacron" unicode="&#x113;" horiz-adv-x="582" 
d="M480 652h-288l11 90h288zM521 226h-390q-4 -76 31.5 -115t103.5 -39q62 0 95.5 21t47.5 63l92 -32q-23 -61 -83.5 -98.5t-160.5 -37.5q-107 0 -166 56t-59 165q0 160 80.5 246.5t209.5 86.5q208 0 208 -213q0 -45 -9 -103zM313 459q-67 0 -111.5 -38t-59.5 -114h286
q9 70 -19.5 111t-95.5 41z" />
    <glyph glyph-name="Ebreve" unicode="&#x114;" horiz-adv-x="693" 
d="M135 780h537l-11 -92h-437l-30 -243h394l-11 -91h-394l-32 -262h457l-11 -92h-557zM408 825q-102 0 -138.5 51.5t-23.5 153.5h76q-9 -66 13 -93.5t81 -27.5t88 27.5t36 93.5h80q-12 -102 -61 -153.5t-151 -51.5z" />
    <glyph glyph-name="ebreve" unicode="&#x115;" horiz-adv-x="582" 
d="M521 226h-390q-4 -76 31.5 -115t103.5 -39q62 0 95.5 21t47.5 63l92 -32q-23 -61 -83.5 -98.5t-160.5 -37.5q-107 0 -166 56t-59 165q0 160 80.5 246.5t209.5 86.5q208 0 208 -213q0 -45 -9 -103zM313 459q-67 0 -111.5 -38t-59.5 -114h286q9 70 -19.5 111t-95.5 41z
M329 595q-102 0 -138.5 51.5t-23.5 153.5h76q-9 -66 13 -93.5t81 -27.5t88 27.5t36 93.5h80q-12 -102 -61 -153.5t-151 -51.5z" />
    <glyph glyph-name="Edotaccent" unicode="&#x116;" horiz-adv-x="693" 
d="M135 780h537l-11 -92h-437l-30 -243h394l-11 -91h-394l-32 -262h457l-11 -92h-557zM483 980l-14 -111h-112l14 111h112z" />
    <glyph glyph-name="edotaccent" unicode="&#x117;" horiz-adv-x="582" 
d="M404 750l-14 -111h-112l14 111h112zM521 226h-390q-4 -76 31.5 -115t103.5 -39q62 0 95.5 21t47.5 63l92 -32q-23 -61 -83.5 -98.5t-160.5 -37.5q-107 0 -166 56t-59 165q0 160 80.5 246.5t209.5 86.5q208 0 208 -213q0 -45 -9 -103zM313 459q-67 0 -111.5 -38
t-59.5 -114h286q9 70 -19.5 111t-95.5 41z" />
    <glyph glyph-name="Eogonek" unicode="&#x118;" horiz-adv-x="693" 
d="M135 780h537l-11 -92h-437l-30 -243h394l-11 -91h-394l-32 -262h457l-11 -92q-55 -7 -97 -38.5t-42 -67.5q0 -33 41 -33q34 0 68 17q4 1 4 2l14 -67q-44 -25 -106 -25q-46 0 -75.5 21.5t-29.5 65.5q0 69 73 125h-407z" />
    <glyph glyph-name="eogonek" unicode="&#x119;" horiz-adv-x="582" 
d="M409 156l92 -32q-38 -98 -155 -126q-42 -10 -69 -43t-27 -61q0 -33 41 -33q34 0 68 17q4 1 4 2l14 -67q-44 -25 -106 -25q-46 0 -75.5 21.5t-29.5 65.5q0 65 58 115q-92 8 -142 64t-50 157q0 160 80.5 245.5t209.5 85.5q208 0 208 -213q0 -45 -9 -103h-390
q-4 -76 31.5 -115t103.5 -39q62 0 95.5 21t47.5 63zM313 459q-67 0 -111.5 -38t-59.5 -114h286q9 70 -19.5 111t-95.5 41z" />
    <glyph glyph-name="Ecaron" unicode="&#x11a;" horiz-adv-x="693" 
d="M135 780h537l-11 -92h-437l-30 -243h394l-11 -91h-394l-32 -262h457l-11 -92h-557zM453 822h-92l-126 208h93l85 -127l117 127h101z" />
    <glyph glyph-name="ecaron" unicode="&#x11b;" horiz-adv-x="582" 
d="M521 226h-390q-4 -76 31.5 -115t103.5 -39q62 0 95.5 21t47.5 63l92 -32q-23 -61 -83.5 -98.5t-160.5 -37.5q-107 0 -166 56t-59 165q0 160 80.5 246.5t209.5 86.5q208 0 208 -213q0 -45 -9 -103zM313 459q-67 0 -111.5 -38t-59.5 -114h286q9 70 -19.5 111t-95.5 41z
M374 592h-92l-126 208h93l85 -127l117 127h101z" />
    <glyph glyph-name="Gcircumflex" unicode="&#x11c;" horiz-adv-x="780" 
d="M61 300q0 103 24.5 191.5t72 156t124.5 106t175 38.5q131 0 199 -52t77 -143l-102 -35q-3 73 -47.5 106t-137.5 33q-76 0 -132.5 -33t-88 -90t-46 -124t-14.5 -145q0 -230 204 -230q129 0 211 50l25 198h-168l10 87h267l-42 -346q-79 -45 -148.5 -62.5t-156.5 -17.5
q-306 0 -306 312zM431 1030h92l126 -208h-93l-85 127l-117 -127h-101z" />
    <glyph glyph-name="gcircumflex" unicode="&#x11d;" horiz-adv-x="611" 
d="M304 800h92l126 -208h-93l-85 127l-117 -127h-101zM554 398l-50 -410q-12 -97 -87 -148.5t-191 -51.5q-113 0 -164 36t-57 102l102 35q2 -44 29 -67t91 -23q169 0 182 113l13 111q-30 -38 -77 -60.5t-102 -22.5q-99 0 -153.5 53.5t-54.5 157.5q0 154 75.5 236.5
t197.5 82.5q57 0 99 -23.5t62 -64.5l22 76h87zM438 226l13 102q-2 48 -40.5 86.5t-102.5 38.5q-77 0 -124.5 -53.5t-47.5 -162.5q0 -136 129 -136q64 0 112 38.5t61 86.5z" />
    <glyph glyph-name="Gbreve" unicode="&#x11e;" horiz-adv-x="780" 
d="M61 300q0 103 24.5 191.5t72 156t124.5 106t175 38.5q131 0 199 -52t77 -143l-102 -35q-3 73 -47.5 106t-137.5 33q-76 0 -132.5 -33t-88 -90t-46 -124t-14.5 -145q0 -230 204 -230q129 0 211 50l25 198h-168l10 87h267l-42 -346q-79 -45 -148.5 -62.5t-156.5 -17.5
q-306 0 -306 312zM452 825q-102 0 -138.5 51.5t-23.5 153.5h76q-9 -66 13 -93.5t81 -27.5t88 27.5t36 93.5h80q-12 -102 -61 -153.5t-151 -51.5z" />
    <glyph glyph-name="gbreve" unicode="&#x11f;" horiz-adv-x="611" 
d="M325 595q-102 0 -138.5 51.5t-23.5 153.5h76q-9 -66 13 -93.5t81 -27.5t88 27.5t36 93.5h80q-12 -102 -61 -153.5t-151 -51.5zM554 398l-50 -410q-12 -97 -87 -148.5t-191 -51.5q-113 0 -164 36t-57 102l102 35q2 -44 29 -67t91 -23q169 0 182 113l13 111
q-30 -38 -77 -60.5t-102 -22.5q-99 0 -153.5 53.5t-54.5 157.5q0 154 75.5 236.5t197.5 82.5q57 0 99 -23.5t62 -64.5l22 76h87zM438 226l13 102q-2 48 -40.5 86.5t-102.5 38.5q-77 0 -124.5 -53.5t-47.5 -162.5q0 -136 129 -136q64 0 112 38.5t61 86.5z" />
    <glyph glyph-name="Gdotaccent" unicode="&#x120;" horiz-adv-x="780" 
d="M61 300q0 103 24.5 191.5t72 156t124.5 106t175 38.5q131 0 199 -52t77 -143l-102 -35q-3 73 -47.5 106t-137.5 33q-76 0 -132.5 -33t-88 -90t-46 -124t-14.5 -145q0 -230 204 -230q129 0 211 50l25 198h-168l10 87h267l-42 -346q-79 -45 -148.5 -62.5t-156.5 -17.5
q-306 0 -306 312zM527 980l-14 -111h-112l14 111h112z" />
    <glyph glyph-name="gdotaccent" unicode="&#x121;" horiz-adv-x="611" 
d="M400 750l-14 -111h-112l14 111h112zM554 398l-50 -410q-12 -97 -87 -148.5t-191 -51.5q-113 0 -164 36t-57 102l102 35q2 -44 29 -67t91 -23q169 0 182 113l13 111q-30 -38 -77 -60.5t-102 -22.5q-99 0 -153.5 53.5t-54.5 157.5q0 154 75.5 236.5t197.5 82.5
q57 0 99 -23.5t62 -64.5l22 76h87zM438 226l13 102q-2 48 -40.5 86.5t-102.5 38.5q-77 0 -124.5 -53.5t-47.5 -162.5q0 -136 129 -136q64 0 112 38.5t61 86.5z" />
    <glyph glyph-name="Gcommaaccent" unicode="&#x122;" horiz-adv-x="780" 
d="M61 300q0 103 24.5 191.5t72 156t124.5 106t175 38.5q131 0 199 -52t77 -143l-102 -35q-3 73 -47.5 106t-137.5 33q-76 0 -132.5 -33t-88 -90t-46 -124t-14.5 -145q0 -230 204 -230q129 0 211 50l25 198h-168l10 87h267l-42 -346q-79 -45 -148.5 -62.5t-156.5 -17.5
q-306 0 -306 312zM287 -62h117l-63 -138h-88z" />
    <glyph glyph-name="gcommaaccent" unicode="&#x123;" horiz-adv-x="611" 
d="M371 592h-108l95 208h86zM554 398l-50 -410q-12 -97 -87 -148.5t-191 -51.5q-113 0 -164 36t-57 102l102 35q2 -44 29 -67t91 -23q169 0 182 113l13 111q-30 -38 -77 -60.5t-102 -22.5q-99 0 -153.5 53.5t-54.5 157.5q0 154 75.5 236.5t197.5 82.5q57 0 99 -23.5
t62 -64.5l22 76h87zM438 226l13 102q-2 48 -40.5 86.5t-102.5 38.5q-77 0 -124.5 -53.5t-47.5 -162.5q0 -136 129 -136q64 0 112 38.5t61 86.5z" />
    <glyph glyph-name="Hcircumflex" unicode="&#x124;" horiz-adv-x="750" 
d="M625 780h100l-95 -780h-100l43 354h-390l-43 -354h-100l95 780h100l-41 -335h390zM415 1030h92l126 -208h-93l-85 127l-117 -127h-101z" />
    <glyph glyph-name="hcircumflex" unicode="&#x125;" horiz-adv-x="585" 
d="M216 800l-42 -342q68 84 178 84q91 0 141.5 -47t40.5 -132l-44 -363h-96l42 346q7 51 -23 79t-86 28q-61 0 -109 -39.5t-60 -85.5l-40 -328h-95l98 800h95zM152 1030h92l126 -208h-93l-85 127l-117 -127h-101z" />
    <glyph glyph-name="Hbar" unicode="&#x126;" horiz-adv-x="750" 
d="M625 780h100l-95 -780h-100l43 354h-390l-43 -354h-100l95 780h100l-17 -140h390zM194 445h390l14 115h-390z" />
    <glyph glyph-name="hbar" unicode="&#x127;" horiz-adv-x="589" 
d="M220 800l-13 -103h137l-9 -78h-137l-20 -161q68 84 178 84q91 0 141.5 -47t40.5 -132l-44 -363h-96l42 346q7 51 -23 79t-86 28q-61 0 -109 -39.5t-60 -85.5l-40 -328h-95l76 619h-103l9 78h103l13 103h95z" />
    <glyph glyph-name="Itilde" unicode="&#x128;" horiz-adv-x="296" 
d="M253 780l-95 -780h-100l95 780h100zM155 1008q30 0 53.5 -11t35.5 -25t28 -25t33 -11q45 0 58 46l76 -11q-33 -125 -152 -125q-30 0 -53.5 11t-35.5 25t-28 25t-33 11q-45 0 -58 -46l-76 11q33 125 152 125z" />
    <glyph glyph-name="itilde" unicode="&#x129;" horiz-adv-x="258" 
d="M41 0l65 530h96l-65 -530h-96zM108 778q30 0 53.5 -11t35.5 -25t28 -25t33 -11q45 0 58 46l76 -11q-33 -125 -152 -125q-30 0 -53.5 11t-35.5 25t-28 25t-33 11q-45 0 -58 -46l-76 11q33 125 152 125z" />
    <glyph glyph-name="Imacron" unicode="&#x12a;" horiz-adv-x="296" 
d="M253 780l-95 -780h-100l95 780h100zM360 882h-288l11 90h288z" />
    <glyph glyph-name="imacron" unicode="&#x12b;" horiz-adv-x="258" 
d="M41 0l65 530h96l-65 -530h-96zM313 652h-288l11 90h288z" />
    <glyph glyph-name="Ibreve" unicode="&#x12c;" horiz-adv-x="296" 
d="M253 780l-95 -780h-100l95 780h100zM209 825q-102 0 -138.5 51.5t-23.5 153.5h76q-9 -66 13 -93.5t81 -27.5t88 27.5t36 93.5h80q-12 -102 -61 -153.5t-151 -51.5z" />
    <glyph glyph-name="ibreve" unicode="&#x12d;" horiz-adv-x="258" 
d="M41 0l65 530h96l-65 -530h-96zM162 595q-102 0 -138.5 51.5t-23.5 153.5h76q-9 -66 13 -93.5t81 -27.5t88 27.5t36 93.5h80q-12 -102 -61 -153.5t-151 -51.5z" />
    <glyph glyph-name="Iogonek" unicode="&#x12e;" horiz-adv-x="296" 
d="M58 7l95 773h100l-95 -780q-100 -49 -100 -107q0 -32 41 -32q25 0 50.5 10t30.5 16l13 -69q-48 -30 -114 -30q-46 0 -75.5 21.5t-29.5 65.5q0 72 84 132z" />
    <glyph glyph-name="iogonek" unicode="&#x12f;" horiz-adv-x="258" 
d="M237 750l-14 -111h-112l14 111h112zM137 0q-100 -49 -100 -107q0 -32 41 -32q25 0 50.5 10t30.5 16l13 -69q-48 -30 -114 -30q-46 0 -75 21t-29 65q0 43 22 74t66 61l64 521h96z" />
    <glyph glyph-name="Idotaccent" unicode="&#x130;" horiz-adv-x="296" 
d="M253 780l-95 -780h-100l95 780h100zM284 980l-14 -111h-112l14 111h112z" />
    <glyph glyph-name="dotlessi" unicode="&#x131;" horiz-adv-x="258" 
d="M41 0l65 530h96l-65 -530h-96z" />
    <glyph glyph-name="IJ" unicode="&#x132;" horiz-adv-x="645" 
d="M253 780l-95 -780h-100l95 780h100zM456 200l71 580h101l-72 -586q-25 -206 -231 -206q-41 0 -71 12l21 93q26 -14 59 -13q54 1 83.5 27t38.5 93z" />
    <glyph glyph-name="ij" unicode="&#x133;" horiz-adv-x="501" 
d="M41 0l65 530h96l-65 -530h-96zM237 750l-14 -111h-112l14 111h112zM480 750l-14 -111h-112l14 111h112zM283 -1l66 531h96l-66 -537q-5 -44 -17 -77.5t-36 -64t-66 -47t-100 -16.5q-40 0 -70 12l21 89q23 -14 58 -13q54 1 79.5 26t34.5 97z" />
    <glyph glyph-name="Jcircumflex" unicode="&#x134;" horiz-adv-x="572" 
d="M455 780h100l-70 -570q-12 -103 -82 -162.5t-194 -59.5q-206 0 -213 159l102 35q-2 -50 26 -77t96 -26q77 1 117 32t48 93zM490 1030h92l126 -208h-93l-85 127l-117 -127h-101z" />
    <glyph glyph-name="jcircumflex" unicode="&#x135;" horiz-adv-x="258" 
d="M-72 -123q53 1 78.5 25.5t34.5 97.5l65 530h95l-66 -537q-5 -44 -17 -77t-35.5 -63.5t-64.5 -47t-99 -16.5q-43 0 -70 11l20 90q19 -13 59 -13zM141 800h92l126 -208h-93l-85 127l-117 -127h-101z" />
    <glyph glyph-name="Kcommaaccent" unicode="&#x136;" horiz-adv-x="712" 
d="M235 780l-47 -388l406 388h139l-378 -352l304 -428h-132l-247 358l-108 -100l-32 -258h-100l95 780h100zM257 -62h117l-63 -138h-88z" />
    <glyph glyph-name="kcommaaccent" unicode="&#x137;" horiz-adv-x="557" 
d="M186 -62h117l-63 -138h-88zM118 0h-95l98 800h95l-63 -514l103 96l165 148h129l-257 -228l225 -302h-124l-176 240l-79 -68z" />
    <glyph glyph-name="kgreenlandic" unicode="&#x138;" horiz-adv-x="561" 
d="M118 0h-95l65 530h95l-30 -244l103 96l165 148h129l-257 -228l225 -302h-124l-176 240l-79 -68z" />
    <glyph glyph-name="Lacute" unicode="&#x139;" horiz-adv-x="589" 
d="M235 780l-84 -688h396l-11 -92h-496l95 780h100zM263 1030h112l-137 -208h-95z" />
    <glyph glyph-name="lacute" unicode="&#x13a;" horiz-adv-x="258" 
d="M41 0l98 800h96l-98 -800h-96zM262 1030h112l-137 -208h-95z" />
    <glyph glyph-name="Lcommaaccent" unicode="&#x13b;" horiz-adv-x="589" 
d="M235 780l-84 -688h396l-11 -92h-496l95 780h100zM226 -62h117l-63 -138h-88z" />
    <glyph glyph-name="lcommaaccent" unicode="&#x13c;" horiz-adv-x="258" 
d="M41 0l98 800h96l-98 -800h-96zM22 -62h117l-63 -138h-88z" />
    <glyph glyph-name="Lcaron" unicode="&#x13d;" horiz-adv-x="589" 
d="M235 780l-84 -688h396l-11 -92h-496l95 780h100zM445 800h108l-95 -208h-86z" />
    <glyph glyph-name="lcaron" unicode="&#x13e;" horiz-adv-x="258" 
d="M41 0l98 800h96l-98 -800h-96zM326 800h108l-95 -208h-86z" />
    <glyph glyph-name="Ldot" unicode="&#x13f;" horiz-adv-x="595" 
d="M235 780l-84 -688h396l-11 -92h-496l95 780h100zM526 455l-13 -111h-112l13 111h112z" />
    <glyph glyph-name="ldot" unicode="&#x140;" horiz-adv-x="362" 
d="M41 0l98 800h96l-98 -800h-96zM380 446l-13 -111h-112l13 111h112z" />
    <glyph glyph-name="Lslash" unicode="&#x141;" horiz-adv-x="595" 
d="M460 447l-282 -133l-27 -222h396l-11 -92h-496l32 265l-79 -37l11 83l78 37l53 432h100l-47 -383l283 133z" />
    <glyph glyph-name="lslash" unicode="&#x142;" horiz-adv-x="309" 
d="M309 445l-102 -60l-47 -385h-95l39 325l-79 -47l10 85l80 47l48 390h95l-41 -330l103 60z" />
    <glyph glyph-name="Nacute" unicode="&#x143;" horiz-adv-x="754" 
d="M510 1030h112l-137 -208h-95zM231 780l254 -471l70 -133l28 235l45 369h101l-95 -780h-96l-255 471l-69 133l-28 -235l-45 -369h-101l95 780h96z" />
    <glyph glyph-name="nacute" unicode="&#x144;" horiz-adv-x="587" 
d="M170 530l2 -75q32 40 80 63.5t102 23.5q91 0 141.5 -47t40.5 -132l-44 -363h-96l42 346q7 51 -23 79t-86 28q-61 0 -109 -39.5t-60 -85.5l-40 -328h-95l48 399l10 131h87zM404 800h112l-137 -208h-95z" />
    <glyph glyph-name="Ncommaaccent" unicode="&#x145;" horiz-adv-x="754" 
d="M273 -62h117l-63 -138h-88zM231 780l254 -471l70 -133l28 235l45 369h101l-95 -780h-96l-255 471l-69 133l-28 -235l-45 -369h-101l95 780h96z" />
    <glyph glyph-name="ncommaaccent" unicode="&#x146;" horiz-adv-x="587" 
d="M170 530l2 -75q32 40 80 63.5t102 23.5q91 0 141.5 -47t40.5 -132l-44 -363h-96l42 346q7 51 -23 79t-86 28q-61 0 -109 -39.5t-60 -85.5l-40 -328h-95l48 399l10 131h87zM201 -62h117l-63 -138h-88z" />
    <glyph glyph-name="Ncaron" unicode="&#x147;" horiz-adv-x="754" 
d="M231 780l254 -471l70 -133l28 235l45 369h101l-95 -780h-96l-255 471l-69 133l-28 -235l-45 -369h-101l95 780h96zM483 822h-92l-126 208h93l85 -127l117 127h101z" />
    <glyph glyph-name="ncaron" unicode="&#x148;" horiz-adv-x="587" 
d="M170 530l2 -75q32 40 80 63.5t102 23.5q91 0 141.5 -47t40.5 -132l-44 -363h-96l42 346q7 51 -23 79t-86 28q-61 0 -109 -39.5t-60 -85.5l-40 -328h-95l48 399l10 131h87zM377 592h-92l-126 208h93l85 -127l117 127h101z" />
    <glyph glyph-name="Eng" unicode="&#x14a;" horiz-adv-x="754" 
d="M532 -1l1 10l-250 462l-69 133l-28 -235l-45 -369h-101l95 780h96l254 -471l70 -133l28 235l45 369h101l-96 -787q-11 -93 -61 -149t-161 -56q-42 0 -72 12l21 90q23 -14 58 -13q55 1 80 25.5t34 96.5z" />
    <glyph glyph-name="eng" unicode="&#x14b;" horiz-adv-x="587" 
d="M395 -1l43 347q7 51 -23 79t-86 28q-61 0 -109 -39.5t-60 -85.5l-40 -328h-95l48 399l10 131h87l2 -75q32 40 80 63.5t102 23.5q91 0 141.5 -47t40.5 -132l-45 -370q-5 -44 -17 -77.5t-36 -64t-66 -47t-100 -16.5q-40 0 -70 12l21 89q23 -14 58 -13q54 1 79.5 26t34.5 97
z" />
    <glyph glyph-name="Omacron" unicode="&#x14c;" horiz-adv-x="800" 
d="M369 79q63 0 113 23.5t80.5 61t50.5 90t28 106t8 113.5q0 228 -203 228q-63 0 -113 -23.5t-80.5 -61t-50.5 -90t-28 -106t-8 -113.5q0 -228 203 -228zM358 -12q-151 0 -224 81.5t-73 230.5q0 103 24.5 191.5t72 156t124.5 106t175 38.5q151 0 224 -81.5t73 -230.5
q0 -103 -24.5 -191.5t-72 -156t-124.5 -106t-175 -38.5zM612 882h-288l11 90h288z" />
    <glyph glyph-name="omacron" unicode="&#x14d;" horiz-adv-x="590" 
d="M479 652h-288l11 90h288zM264 74q79 0 129.5 59t50.5 177q0 146 -134 146q-79 0 -129.5 -59t-50.5 -177q0 -146 134 -146zM253 -12q-105 0 -162.5 56t-57.5 164q0 162 80 248t208 86q105 0 162.5 -56t57.5 -164q0 -162 -80 -248t-208 -86z" />
    <glyph glyph-name="Obreve" unicode="&#x14e;" horiz-adv-x="800" 
d="M369 79q63 0 113 23.5t80.5 61t50.5 90t28 106t8 113.5q0 228 -203 228q-63 0 -113 -23.5t-80.5 -61t-50.5 -90t-28 -106t-8 -113.5q0 -228 203 -228zM358 -12q-151 0 -224 81.5t-73 230.5q0 103 24.5 191.5t72 156t124.5 106t175 38.5q151 0 224 -81.5t73 -230.5
q0 -103 -24.5 -191.5t-72 -156t-124.5 -106t-175 -38.5zM461 825q-102 0 -138.5 51.5t-23.5 153.5h76q-9 -66 13 -93.5t81 -27.5t88 27.5t36 93.5h80q-12 -102 -61 -153.5t-151 -51.5z" />
    <glyph glyph-name="obreve" unicode="&#x14f;" horiz-adv-x="590" 
d="M264 74q79 0 129.5 59t50.5 177q0 146 -134 146q-79 0 -129.5 -59t-50.5 -177q0 -146 134 -146zM253 -12q-105 0 -162.5 56t-57.5 164q0 162 80 248t208 86q105 0 162.5 -56t57.5 -164q0 -162 -80 -248t-208 -86zM328 595q-102 0 -138.5 51.5t-23.5 153.5h76
q-9 -66 13 -93.5t81 -27.5t88 27.5t36 93.5h80q-12 -102 -61 -153.5t-151 -51.5z" />
    <glyph glyph-name="Ohungarumlaut" unicode="&#x150;" horiz-adv-x="800" 
d="M451 1030h112l-137 -208h-95zM611 1030h112l-137 -208h-95zM369 79q63 0 113 23.5t80.5 61t50.5 90t28 106t8 113.5q0 228 -203 228q-63 0 -113 -23.5t-80.5 -61t-50.5 -90t-28 -106t-8 -113.5q0 -228 203 -228zM358 -12q-151 0 -224 81.5t-73 230.5q0 103 24.5 191.5
t72 156t124.5 106t175 38.5q151 0 224 -81.5t73 -230.5q0 -103 -24.5 -191.5t-72 -156t-124.5 -106t-175 -38.5z" />
    <glyph glyph-name="ohungarumlaut" unicode="&#x151;" horiz-adv-x="590" 
d="M318 800h112l-137 -208h-95zM478 800h112l-137 -208h-95zM264 74q79 0 129.5 59t50.5 177q0 146 -134 146q-79 0 -129.5 -59t-50.5 -177q0 -146 134 -146zM253 -12q-105 0 -162.5 56t-57.5 164q0 162 80 248t208 86q105 0 162.5 -56t57.5 -164q0 -162 -80 -248t-208 -86z
" />
    <glyph glyph-name="OE" unicode="&#x152;" horiz-adv-x="1082" 
d="M472 780h589l-11 -92h-397l-30 -243h354l-11 -91h-354l-32 -262h417l-11 -92h-609q-318 0 -318 302q0 226 107 352t306 126zM553 688h-92q-78 0 -136.5 -28.5t-93 -80t-51 -116.5t-16.5 -144q0 -227 224 -227h92z" />
    <glyph glyph-name="oe" unicode="&#x153;" horiz-adv-x="987" 
d="M718 459q-67 0 -111.5 -38t-59.5 -114h286q9 70 -19.5 111t-95.5 41zM264 74q79 0 129.5 59t50.5 177q0 146 -134 146q-79 0 -129.5 -59t-50.5 -177q0 -146 134 -146zM253 -12q-105 0 -162.5 56t-57.5 164q0 162 80 248t208 86q137 0 190 -93q79 93 216 93
q208 0 208 -213q0 -45 -9 -103h-390q-4 -76 31.5 -115t103.5 -39q62 0 95.5 21t47.5 63l92 -32q-23 -61 -83.5 -98.5t-160.5 -37.5q-141 0 -195 93q-78 -93 -214 -93z" />
    <glyph glyph-name="Racute" unicode="&#x154;" horiz-adv-x="707" 
d="M467 1030h112l-137 -208h-95zM180 327l-40 -327h-100l95 780h312q231 0 231 -185q0 -121 -57 -182.5t-144 -77.5l163 -335h-118l-151 327h-191zM191 419h222q29 0 51.5 4.5t50 19.5t43 50.5t15.5 89.5q0 35 -11.5 57.5t-32.5 32t-39 12.5t-44 3h-222z" />
    <glyph glyph-name="racute" unicode="&#x155;" horiz-adv-x="414" 
d="M341 450q-65 0 -116 -38.5t-66 -86.5l-39 -325h-95l48 399l10 131h87l3 -81q28 41 75.5 67t100.5 26q45 0 70 -11l-21 -93q-19 12 -57 12zM327 800h112l-137 -208h-95z" />
    <glyph glyph-name="Rcommaaccent" unicode="&#x156;" horiz-adv-x="707" 
d="M250 -62h117l-63 -138h-88zM180 327l-40 -327h-100l95 780h312q231 0 231 -185q0 -121 -57 -182.5t-144 -77.5l163 -335h-118l-151 327h-191zM191 419h222q29 0 51.5 4.5t50 19.5t43 50.5t15.5 89.5q0 35 -11.5 57.5t-32.5 32t-39 12.5t-44 3h-222z" />
    <glyph glyph-name="rcommaaccent" unicode="&#x157;" horiz-adv-x="414" 
d="M341 450q-65 0 -116 -38.5t-66 -86.5l-39 -325h-95l48 399l10 131h87l3 -81q28 41 75.5 67t100.5 26q45 0 70 -11l-21 -93q-19 12 -57 12zM6 -62h117l-63 -138h-88z" />
    <glyph glyph-name="Rcaron" unicode="&#x158;" horiz-adv-x="707" 
d="M180 327l-40 -327h-100l95 780h312q231 0 231 -185q0 -121 -57 -182.5t-144 -77.5l163 -335h-118l-151 327h-191zM191 419h222q29 0 51.5 4.5t50 19.5t43 50.5t15.5 89.5q0 35 -11.5 57.5t-32.5 32t-39 12.5t-44 3h-222zM440 822h-92l-126 208h93l85 -127l117 127h101z
" />
    <glyph glyph-name="rcaron" unicode="&#x159;" horiz-adv-x="414" 
d="M341 450q-65 0 -116 -38.5t-66 -86.5l-39 -325h-95l48 399l10 131h87l3 -81q28 41 75.5 67t100.5 26q45 0 70 -11l-21 -93q-19 12 -57 12zM300 592h-92l-126 208h93l85 -127l117 127h101z" />
    <glyph glyph-name="Sacute" unicode="&#x15a;" horiz-adv-x="713" 
d="M327 79q55 1 102 16t82 54.5t35 99.5q0 52 -41 78t-143 36q-44 4 -76.5 10t-67.5 18.5t-57 30t-36.5 46.5t-14.5 68q0 84 44.5 144t111 86t146.5 26q254 0 272 -189l-102 -35q-1 70 -44 101.5t-137 31.5q-29 0 -58 -6.5t-60.5 -22t-51 -48t-19.5 -77.5q0 -42 35 -63
t129 -32q141 -13 205.5 -50.5t64.5 -134.5q0 -71 -28 -126t-75.5 -87.5t-105 -49t-121.5 -16.5q-258 0 -276 193l102 35q3 -72 47 -104.5t138 -32.5zM491 1030h112l-137 -208h-95z" />
    <glyph glyph-name="sacute" unicode="&#x15b;" horiz-adv-x="540" 
d="M234 72q153 4 153 97q0 23 -16 35.5t-34.5 16t-65.5 8.5q-12 1 -18 2q-29 3 -38.5 4.5t-37 6.5t-39 9.5t-31 14t-28 21t-16 29t-7.5 38.5q0 49 22.5 87t59 59t76 31.5t78.5 10.5q189 0 205 -136l-100 -34q-3 43 -29 64.5t-82 21.5q-130 0 -130 -85q0 -31 27.5 -41.5
t95.5 -17.5q106 -10 144 -28q64 -29 64 -101q0 -68 -41.5 -114.5t-98 -64.5t-122.5 -18q-100 0 -151.5 36.5t-58.5 100.5l100 35q3 -44 30.5 -66t88.5 -22zM375 800h112l-137 -208h-95z" />
    <glyph glyph-name="Scircumflex" unicode="&#x15c;" horiz-adv-x="713" 
d="M327 79q55 1 102 16t82 54.5t35 99.5q0 52 -41 78t-143 36q-44 4 -76.5 10t-67.5 18.5t-57 30t-36.5 46.5t-14.5 68q0 84 44.5 144t111 86t146.5 26q254 0 272 -189l-102 -35q-1 70 -44 101.5t-137 31.5q-29 0 -58 -6.5t-60.5 -22t-51 -48t-19.5 -77.5q0 -42 35 -63
t129 -32q141 -13 205.5 -50.5t64.5 -134.5q0 -71 -28 -126t-75.5 -87.5t-105 -49t-121.5 -16.5q-258 0 -276 193l102 35q3 -72 47 -104.5t138 -32.5zM398 1030h92l126 -208h-93l-85 127l-117 -127h-101z" />
    <glyph glyph-name="scircumflex" unicode="&#x15d;" horiz-adv-x="540" 
d="M234 72q153 4 153 97q0 23 -16 35.5t-34.5 16t-65.5 8.5q-12 1 -18 2q-29 3 -38.5 4.5t-37 6.5t-39 9.5t-31 14t-28 21t-16 29t-7.5 38.5q0 49 22.5 87t59 59t76 31.5t78.5 10.5q189 0 205 -136l-100 -34q-3 43 -29 64.5t-82 21.5q-130 0 -130 -85q0 -31 27.5 -41.5
t95.5 -17.5q106 -10 144 -28q64 -29 64 -101q0 -68 -41.5 -114.5t-98 -64.5t-122.5 -18q-100 0 -151.5 36.5t-58.5 100.5l100 35q3 -44 30.5 -66t88.5 -22zM282 800h92l126 -208h-93l-85 127l-117 -127h-101z" />
    <glyph glyph-name="Scedilla" unicode="&#x15e;" horiz-adv-x="713" 
d="M327 79q55 1 102 16t82 54.5t35 99.5q0 52 -41 78t-143 36q-44 4 -76.5 10t-67.5 18.5t-57 30t-36.5 46.5t-14.5 68q0 84 44.5 144t111 86t146.5 26q254 0 272 -189l-102 -35q-1 70 -44 101.5t-137 31.5q-29 0 -58 -6.5t-60.5 -22t-51 -48t-19.5 -77.5q0 -42 35 -63
t129 -32q141 -13 205.5 -50.5t64.5 -134.5q0 -67 -25 -119.5t-68 -85.5t-95.5 -51t-112.5 -22l-10 -24q79 -19 79 -79q0 -49 -38 -73.5t-96 -24.5q-56 0 -89 18l23 53q24 -14 53 -14q60 0 60 34q0 36 -81 45l31 66q-221 14 -237 191l102 35q3 -72 47 -104.5t138 -32.5z" />
    <glyph glyph-name="scedilla" unicode="&#x15f;" horiz-adv-x="540" 
d="M234 72q153 4 153 97q0 23 -16 35.5t-34.5 16t-65.5 8.5q-12 1 -18 2q-29 3 -38.5 4.5t-37 6.5t-39 9.5t-31 14t-28 21t-16 29t-7.5 38.5q0 49 22.5 87t59 59t76 31.5t78.5 10.5q189 0 205 -136l-100 -34q-3 43 -29 64.5t-82 21.5q-130 0 -130 -85q0 -31 28 -41.5
t95 -17.5q104 -10 141 -26q67 -28 67 -103q0 -91 -66.5 -139t-162.5 -56l-10 -25q79 -19 79 -79q0 -49 -38 -73.5t-96 -24.5q-56 0 -89 18l23 53q24 -14 53 -14q60 0 60 34q0 36 -81 45l31 66q-162 13 -175 135l100 35q3 -44 30.5 -66t88.5 -22z" />
    <glyph glyph-name="Scaron" unicode="&#x160;" horiz-adv-x="713" 
d="M327 79q55 1 102 16t82 54.5t35 99.5q0 52 -41 78t-143 36q-44 4 -76.5 10t-67.5 18.5t-57 30t-36.5 46.5t-14.5 68q0 84 44.5 144t111 86t146.5 26q254 0 272 -189l-102 -35q-1 70 -44 101.5t-137 31.5q-29 0 -58 -6.5t-60.5 -22t-51 -48t-19.5 -77.5q0 -42 35 -63
t129 -32q141 -13 205.5 -50.5t64.5 -134.5q0 -71 -28 -126t-75.5 -87.5t-105 -49t-121.5 -16.5q-258 0 -276 193l102 35q3 -72 47 -104.5t138 -32.5zM464 822h-92l-126 208h93l85 -127l117 127h101z" />
    <glyph glyph-name="scaron" unicode="&#x161;" horiz-adv-x="540" 
d="M234 72q153 4 153 97q0 23 -16 35.5t-34.5 16t-65.5 8.5q-12 1 -18 2q-29 3 -38.5 4.5t-37 6.5t-39 9.5t-31 14t-28 21t-16 29t-7.5 38.5q0 49 22.5 87t59 59t76 31.5t78.5 10.5q189 0 205 -136l-100 -34q-3 43 -29 64.5t-82 21.5q-130 0 -130 -85q0 -31 27.5 -41.5
t95.5 -17.5q106 -10 144 -28q64 -29 64 -101q0 -68 -41.5 -114.5t-98 -64.5t-122.5 -18q-100 0 -151.5 36.5t-58.5 100.5l100 35q3 -44 30.5 -66t88.5 -22zM348 592h-92l-126 208h93l85 -127l117 127h101z" />
    <glyph glyph-name="Tcedilla" unicode="&#x162;" horiz-adv-x="622" 
d="M405 688l-84 -688h-100l84 688h-241l11 92h582l-11 -92h-241zM200 -76l25 52q143 -12 143 -90q0 -48 -38 -73t-96 -25q-56 0 -89 18l23 53q24 -14 53 -14q60 0 60 34q0 36 -81 45z" />
    <glyph glyph-name="tcedilla" unicode="&#x163;" horiz-adv-x="420" 
d="M38 449l10 81h96l17 142l97 16l-19 -158h162l-10 -81h-162l-31 -250q-9 -72 11 -97t74 -26q31 -1 62 13l-1 -89q-34 -12 -74 -12q-58 0 -96.5 17.5t-53.5 46t-20 65.5t2 76l32 256h-96zM120 -76l25 52q143 -12 143 -90q0 -48 -38 -73t-96 -25q-56 0 -89 18l23 53
q24 -14 53 -14q60 0 60 34q0 36 -81 45z" />
    <glyph glyph-name="Tcaron" unicode="&#x164;" horiz-adv-x="622" 
d="M404 688l-84 -688h-100l84 688h-240l11 92h581l-11 -92h-241zM417 822h-92l-126 208h93l85 -127l117 127h101z" />
    <glyph glyph-name="tcaron" unicode="&#x165;" horiz-adv-x="420" 
d="M38 449l10 81h96l17 142l97 16l-19 -158h162l-10 -81h-162l-31 -250q-9 -72 11 -97t74 -26q31 -1 62 13l-1 -89q-34 -12 -74 -12q-58 0 -96.5 17.5t-53.5 46t-20 65.5t2 76l32 256h-96zM378 800h108l-95 -208h-86z" />
    <glyph glyph-name="Tbar" unicode="&#x166;" horiz-adv-x="622" 
d="M405 688l-30 -247h115l-10 -82h-115l-44 -359h-100l44 359h-115l10 82h115l30 247h-241l11 92h582l-11 -92h-241z" />
    <glyph glyph-name="tbar" unicode="&#x167;" horiz-adv-x="420" 
d="M360 277h-152l-10 -78q-9 -72 11 -97t74 -26q31 -1 62 13l-1 -89q-34 -12 -74 -12q-58 0 -96.5 17.5t-53.5 46t-20 65.5t2 76l11 84h-94l9 76h94l12 96h-96l10 81h96l17 142l97 16l-19 -158h162l-10 -81h-162l-12 -96h152z" />
    <glyph glyph-name="Utilde" unicode="&#x168;" horiz-adv-x="772" 
d="M344 -12q-313 0 -278 294l61 498h102l-61 -499q-8 -42 -1.5 -79t24 -64t59 -43t105.5 -16q122 0 173.5 53t63.5 149l61 499h102l-61 -498q-35 -294 -350 -294zM393 1008q30 0 53.5 -11t35.5 -25t28 -25t33 -11q45 0 58 46l76 -11q-33 -125 -152 -125q-30 0 -53.5 11
t-35.5 25t-28 25t-33 11q-45 0 -58 -46l-76 11q33 125 152 125z" />
    <glyph glyph-name="utilde" unicode="&#x169;" horiz-adv-x="587" 
d="M403 0l-3 75q-32 -40 -80 -63.5t-102 -23.5q-91 0 -141.5 47t-40.5 132l45 363h96l-43 -346q-7 -51 23 -79t86 -28q61 0 109.5 40t59.5 85l41 328h95l-49 -399l-9 -131h-87zM267 778q30 0 53.5 -11t35.5 -25t28 -25t33 -11q45 0 58 46l76 -11q-33 -125 -152 -125
q-30 0 -53.5 11t-35.5 25t-28 25t-33 11q-45 0 -58 -46l-76 11q33 125 152 125z" />
    <glyph glyph-name="Umacron" unicode="&#x16a;" horiz-adv-x="772" 
d="M344 -12q-313 0 -278 294l61 498h102l-61 -499q-8 -42 -1.5 -79t24 -64t59 -43t105.5 -16q122 0 173.5 53t63.5 149l61 499h102l-61 -498q-35 -294 -350 -294zM598 882h-288l11 90h288z" />
    <glyph glyph-name="umacron" unicode="&#x16b;" horiz-adv-x="587" 
d="M403 0l-3 75q-32 -40 -80 -63.5t-102 -23.5q-91 0 -141.5 47t-40.5 132l45 363h96l-43 -346q-7 -51 23 -79t86 -28q61 0 109.5 40t59.5 85l41 328h95l-49 -399l-9 -131h-87zM472 652h-288l11 90h288z" />
    <glyph glyph-name="Ubreve" unicode="&#x16c;" horiz-adv-x="772" 
d="M344 -12q-313 0 -278 294l61 498h102l-61 -499q-8 -42 -1.5 -79t24 -64t59 -43t105.5 -16q122 0 173.5 53t63.5 149l61 499h102l-61 -498q-35 -294 -350 -294zM447 825q-102 0 -138.5 51.5t-23.5 153.5h76q-9 -66 13 -93.5t81 -27.5t88 27.5t36 93.5h80
q-12 -102 -61 -153.5t-151 -51.5z" />
    <glyph glyph-name="ubreve" unicode="&#x16d;" horiz-adv-x="587" 
d="M403 0l-3 75q-32 -40 -80 -63.5t-102 -23.5q-91 0 -141.5 47t-40.5 132l45 363h96l-43 -346q-7 -51 23 -79t86 -28q61 0 109.5 40t59.5 85l41 328h95l-49 -399l-9 -131h-87zM321 595q-102 0 -138.5 51.5t-23.5 153.5h76q-9 -66 13 -93.5t81 -27.5t88 27.5t36 93.5h80
q-12 -102 -61 -153.5t-151 -51.5z" />
    <glyph glyph-name="Uring" unicode="&#x16e;" horiz-adv-x="772" 
d="M344 -12q-313 0 -278 294l61 498h102l-61 -499q-8 -42 -1.5 -79t24 -64t59 -43t105.5 -16q122 0 173.5 53t63.5 149l61 499h102l-61 -498q-35 -294 -350 -294zM453 878q23 0 38 15.5t15 40.5q0 40 -41 40q-23 0 -38 -15.5t-15 -40.5q0 -40 41 -40zM445 810q-49 0 -76 27
t-27 72q0 57 36.5 95t94.5 38q49 0 76 -27t27 -72q0 -57 -36.5 -95t-94.5 -38z" />
    <glyph glyph-name="uring" unicode="&#x16f;" horiz-adv-x="587" 
d="M403 0l-3 75q-32 -40 -80 -63.5t-102 -23.5q-91 0 -141.5 47t-40.5 132l45 363h96l-43 -346q-7 -51 23 -79t86 -28q61 0 109.5 40t59.5 85l41 328h95l-49 -399l-9 -131h-87zM327 648q23 0 38 15.5t15 40.5q0 40 -41 40q-23 0 -38 -15.5t-15 -40.5q0 -40 41 -40zM319 580
q-49 0 -76 27t-27 72q0 57 36.5 95t94.5 38q49 0 76 -27t27 -72q0 -57 -36.5 -95t-94.5 -38z" />
    <glyph glyph-name="Uhungarumlaut" unicode="&#x170;" horiz-adv-x="772" 
d="M344 -12q-313 0 -278 294l61 498h102l-61 -499q-8 -42 -1.5 -79t24 -64t59 -43t105.5 -16q122 0 173.5 53t63.5 149l61 499h102l-61 -498q-35 -294 -350 -294zM437 1030h112l-137 -208h-95zM597 1030h112l-137 -208h-95z" />
    <glyph glyph-name="uhungarumlaut" unicode="&#x171;" horiz-adv-x="587" 
d="M403 0l-3 75q-32 -40 -80 -63.5t-102 -23.5q-91 0 -141.5 47t-40.5 132l45 363h96l-43 -346q-7 -51 23 -79t86 -28q61 0 109.5 40t59.5 85l41 328h95l-49 -399l-9 -131h-87zM311 800h112l-137 -208h-95zM471 800h112l-137 -208h-95z" />
    <glyph glyph-name="Uogonek" unicode="&#x172;" horiz-adv-x="772" 
d="M319 -11q-288 11 -253 293l61 498h102l-61 -499q-8 -42 -1.5 -79t24 -64t59 -43t105.5 -16q122 0 173.5 53t63.5 149l61 499h102l-61 -498q-29 -238 -238 -283q-47 -10 -79 -43t-32 -62q0 -33 41 -33q34 0 68 17q4 1 4 2l14 -67q-44 -25 -106 -25q-46 0 -75.5 21.5
t-29.5 65.5q0 64 58 114z" />
    <glyph glyph-name="uogonek" unicode="&#x173;" horiz-adv-x="587" 
d="M499 131l-9 -131q-55 -7 -97 -38.5t-42 -67.5q0 -33 41 -33q34 0 68 17q4 1 4 2l14 -67q-44 -25 -106 -25q-46 0 -75.5 21.5t-29.5 65.5q0 48 36 90.5t98 70.5l-1 39q-32 -40 -80 -63.5t-102 -23.5q-91 0 -141.5 47t-40.5 132l45 363h96l-43 -346q-7 -51 23 -79t86 -28
q61 0 109.5 40t59.5 85l41 328h95z" />
    <glyph glyph-name="Wcircumflex" unicode="&#x174;" horiz-adv-x="954" 
d="M539 496l-23 146l-61 -146l-221 -508h-85l-68 792h101l30 -460l9 -157l62 157l201 460h94l85 -460l28 -157l43 157l145 460h104l-262 -792h-85zM517 1030h92l126 -208h-93l-85 127l-117 -127h-101z" />
    <glyph glyph-name="wcircumflex" unicode="&#x175;" horiz-adv-x="813" 
d="M418 800h92l126 -208h-93l-85 127l-117 -127h-101zM444 292l-27 123l-57 -123l-143 -304h-94l-65 542h97l26 -282l9 -128l60 128l133 282h97l63 -282l27 -128l42 128l96 282h96l-198 -542h-93z" />
    <glyph glyph-name="Ycircumflex" unicode="&#x176;" horiz-adv-x="730" 
d="M300 551l71 -141l107 141l177 229h118l-359 -456l-39 -324h-100l39 324l-247 456h112zM577 882h-288l11 90h288z" />
    <glyph glyph-name="ycircumflex" unicode="&#x177;" horiz-adv-x="562" 
d="M575 530l-276 -495l-125 -235h-110l130 226l-157 504h107l75 -274l36 -131l67 131l144 274h109zM293 800h92l126 -208h-93l-85 127l-117 -127h-101z" />
    <glyph glyph-name="Ydieresis" unicode="&#x178;" horiz-adv-x="730" 
d="M601 980l-14 -111h-112l14 111h112zM401 980l-14 -111h-112l14 111h112zM300 551l71 -141l107 141l177 229h118l-359 -456l-39 -324h-100l39 324l-247 456h112z" />
    <glyph glyph-name="Zacute" unicode="&#x179;" horiz-adv-x="688" 
d="M472 1030h112l-137 -208h-95zM3 0l10 83l549 606l-232 -1h-224l11 92h583l-10 -83l-549 -606l233 1h242l-11 -92h-602z" />
    <glyph glyph-name="zacute" unicode="&#x17a;" horiz-adv-x="547" 
d="M373 800h112l-137 -208h-95zM6 78l386 368l-125 -1h-198l11 85h444l-10 -78l-386 -368l125 1h226l-10 -85h-473z" />
    <glyph glyph-name="Zdotaccent" unicode="&#x17b;" horiz-adv-x="688" 
d="M475 980l-14 -111h-112l14 111h112zM3 0l10 83l549 606l-232 -1h-224l11 92h583l-10 -83l-549 -606l233 1h242l-11 -92h-602z" />
    <glyph glyph-name="zdotaccent" unicode="&#x17c;" horiz-adv-x="547" 
d="M376 750l-14 -111h-112l14 111h112zM6 78l386 368l-125 -1h-198l11 85h444l-10 -78l-386 -368l125 1h226l-10 -85h-473z" />
    <glyph glyph-name="Zcaron" unicode="&#x17d;" horiz-adv-x="688" 
d="M3 0l10 83l549 606l-232 -1h-224l11 92h583l-10 -83l-549 -606l233 1h242l-11 -92h-602zM445 822h-92l-126 208h93l85 -127l117 127h101z" />
    <glyph glyph-name="zcaron" unicode="&#x17e;" horiz-adv-x="547" 
d="M6 78l386 368l-125 -1h-198l11 85h444l-10 -78l-386 -368l125 1h226l-10 -85h-473zM346 592h-92l-126 208h93l85 -127l117 127h101z" />
    <glyph glyph-name="florin" unicode="&#x192;" horiz-adv-x="413" 
d="M88 -1l44 356h-109l11 85h109l16 131q5 44 17 77t35.5 64t65.5 47.5t101 16.5q41 0 69 -12l-20 -89q-26 14 -59 13q-54 -1 -79.5 -26t-34.5 -97l-15 -125h148l-11 -85h-148l-44 -362q-5 -44 -17 -77.5t-36 -64t-66 -47t-100 -16.5q-39 0 -69 12l20 89q28 -14 58 -13
q54 1 79.5 26t34.5 97z" />
    <glyph glyph-name="Khook" unicode="&#x198;" horiz-adv-x="712" 
d="M667 695q-34 0 -60 -18t-48 -50.5t-43 -68.5t-57 -82.5t-79 -82.5l279 -393h-132l-234 340q-44 -30 -119 -58l-34 -282h-100l95 780h100l-48 -392q61 23 109 58.5t77.5 72t55 76t48 74t48.5 62.5t64.5 44t89.5 16q36 0 62 -11l-22 -95q-20 10 -52 10z" />
    <glyph glyph-name="khook" unicode="&#x199;" horiz-adv-x="561" 
d="M153 286l103 96l165 148h129l-257 -228l225 -302h-124l-176 240l-79 -68l-21 -172h-95l74 607q5 45 17 78.5t35.5 64t65 46.5t99.5 16q40 0 70 -12l-21 -89q-21 13 -58 13q-53 0 -78.5 -25t-34.5 -98z" />
    <glyph glyph-name="Yogh" unicode="&#x1b7;" horiz-adv-x="714" 
d="M274 -212q-136 0 -209 53t-82 145l103 35q1 -70 53.5 -106t146.5 -36q116 0 188.5 66t72.5 190q0 84 -49 131t-149 47q-36 0 -60 -15l-56 59l220 239l89 92h-431l11 92h562l-10 -81l-281 -299q257 -19 257 -248q0 -176 -107.5 -270t-268.5 -94z" />
    <glyph glyph-name="doublebar" unicode="&#x1c1;" horiz-adv-x="456" 
d="M254 830l-117 -960h-100l117 960h100zM424 830l-117 -960h-100l117 960h100z" />
    <glyph glyph-name="Acaron" unicode="&#x1cd;" horiz-adv-x="726" 
d="M-27 0l398 791h98l204 -791h-106l-56 225h-318l-110 -225h-110zM490 313l-84 351l-170 -351h254zM469 822h-92l-126 208h93l85 -127l117 127h101z" />
    <glyph glyph-name="acaron" unicode="&#x1ce;" horiz-adv-x="616" 
d="M435 202l16 126q-1 48 -40 86.5t-104 38.5q-76 0 -125.5 -60.5t-49.5 -168.5q0 -71 34 -109t95 -38q65 0 113.5 38.5t60.5 86.5zM554 398l-32 -266l-9 -132h-87l-3 76q-30 -41 -78.5 -64.5t-103.5 -23.5q-102 0 -155.5 56.5t-53.5 161.5q0 158 75.5 247t201.5 89
q55 0 97.5 -23.5t62.5 -64.5l22 76h87zM371 592h-92l-126 208h93l85 -127l117 127h101z" />
    <glyph glyph-name="Icaron" unicode="&#x1cf;" horiz-adv-x="296" 
d="M253 780l-95 -780h-100l95 780h100zM254 822h-92l-126 208h93l85 -127l117 127h101z" />
    <glyph glyph-name="icaron" unicode="&#x1d0;" horiz-adv-x="258" 
d="M41 0l65 530h96l-65 -530h-96zM207 592h-92l-126 208h93l85 -127l117 127h101z" />
    <glyph glyph-name="Ocaron" unicode="&#x1d1;" horiz-adv-x="800" 
d="M369 79q63 0 113 23.5t80.5 61t50.5 90t28 106t8 113.5q0 228 -203 228q-63 0 -113 -23.5t-80.5 -61t-50.5 -90t-28 -106t-8 -113.5q0 -228 203 -228zM358 -12q-151 0 -224 81.5t-73 230.5q0 103 24.5 191.5t72 156t124.5 106t175 38.5q151 0 224 -81.5t73 -230.5
q0 -103 -24.5 -191.5t-72 -156t-124.5 -106t-175 -38.5zM506 822h-92l-126 208h93l85 -127l117 127h101z" />
    <glyph glyph-name="ocaron" unicode="&#x1d2;" horiz-adv-x="590" 
d="M264 74q79 0 129.5 59t50.5 177q0 146 -134 146q-79 0 -129.5 -59t-50.5 -177q0 -146 134 -146zM253 -12q-105 0 -162.5 56t-57.5 164q0 162 80 248t208 86q105 0 162.5 -56t57.5 -164q0 -162 -80 -248t-208 -86zM373 592h-92l-126 208h93l85 -127l117 127h101z" />
    <glyph glyph-name="Ucaron" unicode="&#x1d3;" horiz-adv-x="772" 
d="M344 -12q-313 0 -278 294l61 498h102l-61 -499q-8 -42 -1.5 -79t24 -64t59 -43t105.5 -16q122 0 173.5 53t63.5 149l61 499h102l-61 -498q-35 -294 -350 -294zM492 822h-92l-126 208h93l85 -127l117 127h101z" />
    <glyph glyph-name="ucaron" unicode="&#x1d4;" horiz-adv-x="587" 
d="M403 0l-3 75q-32 -40 -80 -63.5t-102 -23.5q-91 0 -141.5 47t-40.5 132l45 363h96l-43 -346q-7 -51 23 -79t86 -28q61 0 109.5 40t59.5 85l41 328h95l-49 -399l-9 -131h-87zM366 592h-92l-126 208h93l85 -127l117 127h101z" />
    <glyph glyph-name="AEmacron" unicode="&#x1e2;" horiz-adv-x="1065" 
d="M440 881l11 90h288l-11 -90h-288zM-37 0l524 780h557l-11 -92h-455l5 -243h377l-11 -91h-364l5 -262h390l-11 -92h-477l-8 355h-171l-233 -355h-117zM480 615l-108 -170h111z" />
    <glyph glyph-name="aemacron" unicode="&#x1e3;" horiz-adv-x="960" 
d="M635 -12q-148 0 -196 107q-88 -107 -245 -107q-174 0 -174 133q0 93 67.5 139.5t174.5 46.5h157l6 45q7 54 -23 80.5t-97 26.5q-60 0 -90.5 -22t-44.5 -68l-92 31q50 142 235 142q142 0 183 -85q74 85 204 85q208 0 208 -213q0 -56 -9 -103h-390q-4 -76 31.5 -115
t103.5 -39q62 0 95.5 21t47.5 63l92 -32q-23 -61 -83.5 -98.5t-160.5 -37.5zM691 459q-67 0 -111.5 -38t-59.5 -114h286q9 70 -19.5 111t-95.5 41zM254 226q-130 0 -130 -92q0 -62 87 -62q73 0 128.5 40.5t66.5 88.5l3 25h-155zM662 652h-288l11 90h288z" />
    <glyph glyph-name="Gstroke" unicode="&#x1e4;" horiz-adv-x="810" 
d="M61 300q0 103 24.5 191.5t72 156t124.5 106t175 38.5q131 0 199 -52t77 -143l-102 -35q-3 73 -47.5 106t-137.5 33q-76 0 -132.5 -33t-88 -90t-46 -124t-14.5 -145q0 -230 204 -230q129 0 211 50l5 45h-204l10 80h204l10 73h-168l10 87h267l-20 -160h97l-10 -80h-96
l-13 -106q-79 -45 -148.5 -62.5t-156.5 -17.5q-306 0 -306 312z" />
    <glyph glyph-name="gstroke" unicode="&#x1e5;" horiz-adv-x="611" 
d="M554 398l-50 -410h62l-10 -78h-76q-32 -60 -98.5 -91t-155.5 -31q-113 0 -164 36t-57 102l102 35q2 -44 29 -67t91 -23q97 0 143 39h-140l10 78h169l13 107q-30 -38 -77 -60.5t-102 -22.5q-99 0 -153.5 53.5t-54.5 157.5q0 154 75.5 236.5t197.5 82.5q57 0 99 -23.5
t62 -64.5l22 76h87zM438 226l13 102q-2 48 -40.5 86.5t-102.5 38.5q-77 0 -124.5 -53.5t-47.5 -162.5q0 -136 129 -136q64 0 112 38.5t61 86.5z" />
    <glyph glyph-name="Gcaron" unicode="&#x1e6;" horiz-adv-x="780" 
d="M61 300q0 103 24.5 191.5t72 156t124.5 106t175 38.5q131 0 199 -52t77 -143l-102 -35q-3 73 -47.5 106t-137.5 33q-76 0 -132.5 -33t-88 -90t-46 -124t-14.5 -145q0 -230 204 -230q129 0 211 50l25 198h-168l10 87h267l-42 -346q-79 -45 -148.5 -62.5t-156.5 -17.5
q-306 0 -306 312zM497 822h-92l-126 208h93l85 -127l117 127h101z" />
    <glyph glyph-name="gcaron" unicode="&#x1e7;" horiz-adv-x="611" 
d="M554 398l-50 -410q-12 -97 -87 -148.5t-191 -51.5q-113 0 -164 36t-57 102l102 35q2 -44 29 -67t91 -23q169 0 182 113l13 111q-30 -38 -77 -60.5t-102 -22.5q-99 0 -153.5 53.5t-54.5 157.5q0 154 75.5 236.5t197.5 82.5q57 0 99 -23.5t62 -64.5l22 76h87zM438 226
l13 102q-2 48 -40.5 86.5t-102.5 38.5q-77 0 -124.5 -53.5t-47.5 -162.5q0 -136 129 -136q64 0 112 38.5t61 86.5zM370 592h-92l-126 208h93l85 -127l117 127h101z" />
    <glyph glyph-name="Kcaron" unicode="&#x1e8;" horiz-adv-x="712" 
d="M235 780l-47 -388l406 388h139l-378 -352l304 -428h-132l-247 358l-108 -100l-32 -258h-100l95 780h100zM456 822h-92l-126 208h93l85 -127l117 127h101z" />
    <glyph glyph-name="kcaron" unicode="&#x1e9;" horiz-adv-x="561" 
d="M118 0h-95l98 800h95l-63 -514l103 96l165 148h129l-257 -228l225 -302h-124l-176 240l-79 -68zM218 822h-92l-126 208h93l85 -127l117 127h101z" />
    <glyph glyph-name="Oogonek" unicode="&#x1ea;" horiz-adv-x="800" 
d="M369 79q63 0 113 23.5t80.5 61t50.5 90t28 106t8 113.5q0 228 -203 228q-63 0 -113 -23.5t-80.5 -61t-50.5 -90t-28 -106t-8 -113.5q0 -228 203 -228zM753 481q0 -121 -32 -220.5t-102 -171t-170 -92.5q-46 -10 -80.5 -40t-34.5 -63t41 -33q34 0 68 17q4 1 4 2l14 -67
q-44 -25 -106 -25q-46 0 -75.5 21.5t-29.5 65.5q0 64 60 115q-126 12 -187 93t-61 218q0 140 41 248t132 175.5t222 67.5q151 0 223.5 -81t72.5 -230z" />
    <glyph glyph-name="oogonek" unicode="&#x1eb;" horiz-adv-x="590" 
d="M264 74q79 0 129.5 59t50.5 177q0 146 -134 146q-79 0 -129.5 -59t-50.5 -177q0 -146 134 -146zM541 322q0 -118 -48.5 -203.5t-140.5 -115.5q-49 -16 -82.5 -47.5t-33.5 -61.5q0 -33 41 -33q34 0 68 17q4 1 4 2l14 -67q-44 -25 -106 -25q-46 0 -75.5 21.5t-29.5 65.5
q0 60 59 116q-85 10 -131.5 64.5t-46.5 151.5q0 162 80 248.5t208 86.5q105 0 162.5 -56t57.5 -164z" />
    <glyph glyph-name="Oogonekmacron" unicode="&#x1ec;" horiz-adv-x="800" 
d="M369 79q63 0 113 23.5t80.5 61t50.5 90t28 106t8 113.5q0 228 -203 228q-63 0 -113 -23.5t-80.5 -61t-50.5 -90t-28 -106t-8 -113.5q0 -228 203 -228zM753 481q0 -121 -32 -220.5t-102 -171t-170 -92.5q-46 -10 -80.5 -40t-34.5 -63t41 -33q34 0 68 17q4 1 4 2l14 -67
q-44 -25 -106 -25q-46 0 -75.5 21.5t-29.5 65.5q0 64 60 115q-126 12 -187 93t-61 218q0 140 41 248t132 175.5t222 67.5q151 0 223.5 -81t72.5 -230z" />
    <glyph glyph-name="oogonekmacron" unicode="&#x1ed;" horiz-adv-x="590" 
d="M264 74q79 0 129.5 59t50.5 177q0 146 -134 146q-79 0 -129.5 -59t-50.5 -177q0 -146 134 -146zM541 322q0 -118 -48.5 -203.5t-140.5 -115.5q-49 -16 -82.5 -47.5t-33.5 -61.5q0 -33 41 -33q34 0 68 17q4 1 4 2l14 -67q-44 -25 -106 -25q-46 0 -75.5 21.5t-29.5 65.5
q0 60 59 116q-85 10 -131.5 64.5t-46.5 151.5q0 162 80 248.5t208 86.5q105 0 162.5 -56t57.5 -164zM479 652h-288l11 90h288z" />
    <glyph glyph-name="jcaron" unicode="&#x1f0;" horiz-adv-x="258" 
d="M40 -1l66 531h96l-66 -537q-11 -93 -59.5 -149t-158.5 -56q-40 0 -70 12l21 89q23 -14 58 -13q53 1 78.5 26t34.5 97zM207 592h-92l-126 208h93l85 -127l117 127h101z" />
    <glyph glyph-name="Gacute" unicode="&#x1f4;" horiz-adv-x="780" 
d="M61 300q0 103 24.5 191.5t72 156t124.5 106t175 38.5q131 0 199 -52t77 -143l-102 -35q-3 73 -47.5 106t-137.5 33q-76 0 -132.5 -33t-88 -90t-46 -124t-14.5 -145q0 -230 204 -230q129 0 211 50l25 198h-168l10 87h267l-42 -346q-79 -45 -148.5 -62.5t-156.5 -17.5
q-306 0 -306 312zM524 1030h112l-137 -208h-95z" />
    <glyph glyph-name="gacute" unicode="&#x1f5;" horiz-adv-x="611" 
d="M554 398l-50 -410q-12 -97 -87 -148.5t-191 -51.5q-113 0 -164 36t-57 102l102 35q2 -44 29 -67t91 -23q169 0 182 113l13 111q-30 -38 -77 -60.5t-102 -22.5q-99 0 -153.5 53.5t-54.5 157.5q0 154 75.5 236.5t197.5 82.5q57 0 99 -23.5t62 -64.5l22 76h87zM438 226
l13 102q-2 48 -40.5 86.5t-102.5 38.5q-77 0 -124.5 -53.5t-47.5 -162.5q0 -136 129 -136q64 0 112 38.5t61 86.5zM397 800h112l-137 -208h-95z" />
    <glyph glyph-name="Aringacute" unicode="&#x1fa;" horiz-adv-x="726" 
d="M433 1134h96l-71 -93q46 -2 70.5 -28.5t24.5 -68.5q0 -58 -36 -96t-95 -38q-48 0 -75 27t-27 71q0 42 24 81zM442 974q-23 0 -38 -16t-15 -39q0 -19 11 -30.5t30 -11.5q24 0 39 16t15 41q0 18 -11.5 29t-30.5 11zM-27 0l398 791h98l204 -791h-106l-56 225h-318l-110 -225
h-110zM490 313l-84 351l-170 -351h254z" />
    <glyph glyph-name="aringacute" unicode="&#x1fb;" horiz-adv-x="616" 
d="M435 202l16 126q-1 48 -40 86.5t-104 38.5q-76 0 -125.5 -60.5t-49.5 -168.5q0 -71 34 -109t95 -38q65 0 113.5 38.5t60.5 86.5zM554 398l-32 -266l-9 -132h-87l-3 76q-30 -41 -78.5 -64.5t-103.5 -23.5q-102 0 -155.5 56.5t-53.5 161.5q0 158 75.5 247t201.5 89
q55 0 97.5 -23.5t62.5 -64.5l22 76h87zM335 904h96l-71 -93q46 -2 70.5 -28.5t24.5 -68.5q0 -58 -36 -96t-95 -38q-48 0 -75 27t-27 71q0 42 24 81zM344 744q-23 0 -38 -16t-15 -39q0 -19 11 -30.5t30 -11.5q24 0 39 16t15 41q0 18 -11.5 29t-30.5 11z" />
    <glyph glyph-name="AEacute" unicode="&#x1fc;" horiz-adv-x="1065" 
d="M651 1030h112l-137 -208h-95zM-37 0l524 780h557l-11 -92h-455l5 -243h377l-11 -91h-364l5 -262h390l-11 -92h-477l-8 355h-171l-233 -355h-117zM480 615l-108 -170h111z" />
    <glyph glyph-name="aeacute" unicode="&#x1fd;" horiz-adv-x="960" 
d="M583 800h112l-137 -208h-95zM635 -12q-148 0 -196 107q-88 -107 -245 -107q-174 0 -174 133q0 93 67.5 139.5t174.5 46.5h157l6 45q7 54 -23 80.5t-97 26.5q-60 0 -90.5 -22t-44.5 -68l-92 31q50 142 235 142q142 0 183 -85q74 85 204 85q208 0 208 -213q0 -56 -9 -103
h-390q-4 -76 31.5 -115t103.5 -39q62 0 95.5 21t47.5 63l92 -32q-23 -61 -83.5 -98.5t-160.5 -37.5zM691 459q-67 0 -111.5 -38t-59.5 -114h286q9 70 -19.5 111t-95.5 41zM254 226q-130 0 -130 -92q0 -62 87 -62q73 0 128.5 40.5t66.5 88.5l3 25h-155z" />
    <glyph glyph-name="Oslashacute" unicode="&#x1fe;" horiz-adv-x="800" 
d="M533 1030h112l-137 -208h-95zM753 481q0 -103 -24.5 -191.5t-72 -156t-124.5 -106t-175 -38.5q-115 0 -187 50l-29 -38h-79l63 80q-64 77 -64 218q0 103 24.5 191.5t72 156.5t124.5 106.5t175 38.5q115 0 187 -50l29 38h79l-63 -80q64 -77 64 -219zM446 701
q-63 0 -112.5 -23.5t-80 -61t-51 -90t-28.5 -106.5t-8 -113q0 -86 28 -141l387 496q-50 39 -135 39zM368 80q63 0 112.5 23t80 61t51 90t28.5 106t8 113q0 87 -28 142l-387 -496q50 -39 135 -39z" />
    <glyph glyph-name="oslashacute" unicode="&#x1ff;" horiz-adv-x="590" 
d="M400 800h112l-137 -208h-95zM264 74q79 0 129.5 58.5t50.5 176.5q0 53 -17 85l-241 -301q29 -19 78 -19zM537 265q-17 -136 -91.5 -206.5t-192.5 -70.5q-76 0 -127 30l-14 -18h-73l43 54q-49 57 -49 154q0 162 80 248t208 86q76 0 127 -30l15 18h73l-44 -54
q49 -55 49 -154q0 -30 -4 -57zM310 456q-79 0 -129.5 -58.5t-50.5 -176.5q0 -51 17 -85l241 301q-29 19 -78 19z" />
    <glyph glyph-name="Ainvertedbreve" unicode="&#x202;" horiz-adv-x="726" 
d="M-27 0l398 791h98l204 -791h-106l-56 225h-318l-110 -225h-110zM490 313l-84 351l-170 -351h254zM448 1027q102 0 138.5 -51.5t23.5 -153.5h-76q9 66 -13 93.5t-81 27.5t-88 -27.5t-36 -93.5h-80q12 102 61 153.5t151 51.5z" />
    <glyph glyph-name="ainvertedbreve" unicode="&#x203;" horiz-adv-x="616" 
d="M435 202l16 126q-1 48 -40 86.5t-104 38.5q-76 0 -125.5 -60.5t-49.5 -168.5q0 -71 34 -109t95 -38q65 0 113.5 38.5t60.5 86.5zM554 398l-32 -266l-9 -132h-87l-3 76q-30 -41 -78.5 -64.5t-103.5 -23.5q-102 0 -155.5 56.5t-53.5 161.5q0 158 75.5 247t201.5 89
q55 0 97.5 -23.5t62.5 -64.5l22 76h87zM350 797q102 0 138.5 -51.5t23.5 -153.5h-76q9 66 -13 93.5t-81 27.5t-88 -27.5t-36 -93.5h-80q12 102 61 153.5t151 51.5z" />
    <glyph glyph-name="Einvertedbreve" unicode="&#x206;" horiz-adv-x="693" 
d="M135 780h537l-11 -92h-437l-30 -243h394l-11 -91h-394l-32 -262h457l-11 -92h-557zM432 1027q102 0 138.5 -51.5t23.5 -153.5h-76q9 66 -13 93.5t-81 27.5t-88 -27.5t-36 -93.5h-80q12 102 61 153.5t151 51.5z" />
    <glyph glyph-name="einvertedbreve" unicode="&#x207;" horiz-adv-x="582" 
d="M521 226h-390q-4 -76 31.5 -115t103.5 -39q62 0 95.5 21t47.5 63l92 -32q-23 -61 -83.5 -98.5t-160.5 -37.5q-107 0 -166 56t-59 165q0 160 80.5 246.5t209.5 86.5q208 0 208 -213q0 -45 -9 -103zM313 459q-67 0 -111.5 -38t-59.5 -114h286q9 70 -19.5 111t-95.5 41z
M353 797q102 0 138.5 -51.5t23.5 -153.5h-76q9 66 -13 93.5t-81 27.5t-88 -27.5t-36 -93.5h-80q12 102 61 153.5t151 51.5z" />
    <glyph glyph-name="Iinvertedbreve" unicode="&#x20a;" horiz-adv-x="296" 
d="M253 780l-95 -780h-100l95 780h100zM233 1027q102 0 138.5 -51.5t23.5 -153.5h-76q9 66 -13 93.5t-81 27.5t-88 -27.5t-36 -93.5h-80q12 102 61 153.5t151 51.5z" />
    <glyph glyph-name="iinvertedbreve" unicode="&#x20b;" horiz-adv-x="258" 
d="M41 0l65 530h96l-65 -530h-96zM186 797q102 0 138.5 -51.5t23.5 -153.5h-76q9 66 -13 93.5t-81 27.5t-88 -27.5t-36 -93.5h-80q12 102 61 153.5t151 51.5z" />
    <glyph glyph-name="Oinvertedbreve" unicode="&#x20e;" horiz-adv-x="800" 
d="M369 79q63 0 113 23.5t80.5 61t50.5 90t28 106t8 113.5q0 228 -203 228q-63 0 -113 -23.5t-80.5 -61t-50.5 -90t-28 -106t-8 -113.5q0 -228 203 -228zM358 -12q-151 0 -224 81.5t-73 230.5q0 103 24.5 191.5t72 156t124.5 106t175 38.5q151 0 224 -81.5t73 -230.5
q0 -103 -24.5 -191.5t-72 -156t-124.5 -106t-175 -38.5zM485 1027q102 0 138.5 -51.5t23.5 -153.5h-76q9 66 -13 93.5t-81 27.5t-88 -27.5t-36 -93.5h-80q12 102 61 153.5t151 51.5z" />
    <glyph glyph-name="oinvertedbreve" unicode="&#x20f;" horiz-adv-x="590" 
d="M264 74q79 0 129.5 59t50.5 177q0 146 -134 146q-79 0 -129.5 -59t-50.5 -177q0 -146 134 -146zM253 -12q-105 0 -162.5 56t-57.5 164q0 162 80 248t208 86q105 0 162.5 -56t57.5 -164q0 -162 -80 -248t-208 -86zM352 797q102 0 138.5 -51.5t23.5 -153.5h-76
q9 66 -13 93.5t-81 27.5t-88 -27.5t-36 -93.5h-80q12 102 61 153.5t151 51.5z" />
    <glyph glyph-name="Rinvertedbreve" unicode="&#x212;" horiz-adv-x="707" 
d="M180 327l-40 -327h-100l95 780h312q231 0 231 -185q0 -121 -57 -182.5t-144 -77.5l163 -335h-118l-151 327h-191zM191 419h222q29 0 51.5 4.5t50 19.5t43 50.5t15.5 89.5q0 35 -11.5 57.5t-32.5 32t-39 12.5t-44 3h-222zM419 1027q102 0 138.5 -51.5t23.5 -153.5h-76
q9 66 -13 93.5t-81 27.5t-88 -27.5t-36 -93.5h-80q12 102 61 153.5t151 51.5z" />
    <glyph glyph-name="rinvertedbreve" unicode="&#x213;" horiz-adv-x="414" 
d="M341 450q-65 0 -116 -38.5t-66 -86.5l-39 -325h-95l48 399l10 131h87l3 -81q28 41 75.5 67t100.5 26q45 0 70 -11l-21 -93q-19 12 -57 12zM279 797q102 0 138.5 -51.5t23.5 -153.5h-76q9 66 -13 93.5t-81 27.5t-88 -27.5t-36 -93.5h-80q12 102 61 153.5t151 51.5z" />
    <glyph glyph-name="Uinvertedbreve" unicode="&#x216;" horiz-adv-x="772" 
d="M344 -12q-313 0 -278 294l61 498h102l-61 -499q-8 -42 -1.5 -79t24 -64t59 -43t105.5 -16q122 0 173.5 53t63.5 149l61 499h102l-61 -498q-35 -294 -350 -294zM471 1027q102 0 138.5 -51.5t23.5 -153.5h-76q9 66 -13 93.5t-81 27.5t-88 -27.5t-36 -93.5h-80
q12 102 61 153.5t151 51.5z" />
    <glyph glyph-name="uinvertedbreve" unicode="&#x217;" horiz-adv-x="587" 
d="M403 0l-3 75q-32 -40 -80 -63.5t-102 -23.5q-91 0 -141.5 47t-40.5 132l45 363h96l-43 -346q-7 -51 23 -79t86 -28q61 0 109.5 40t59.5 85l41 328h95l-49 -399l-9 -131h-87zM345 797q102 0 138.5 -51.5t23.5 -153.5h-76q9 66 -13 93.5t-81 27.5t-88 -27.5t-36 -93.5h-80
q12 102 61 153.5t151 51.5z" />
    <glyph glyph-name="Scommaaccent" unicode="&#x218;" horiz-adv-x="713" 
d="M250 -62h117l-63 -138h-88zM327 79q55 1 102 16t82 54.5t35 99.5q0 52 -41 78t-143 36q-44 4 -76.5 10t-67.5 18.5t-57 30t-36.5 46.5t-14.5 68q0 84 44.5 144t111 86t146.5 26q254 0 272 -189l-102 -35q-1 70 -44 101.5t-137 31.5q-29 0 -58 -6.5t-60.5 -22t-51 -48
t-19.5 -77.5q0 -42 35 -63t129 -32q141 -13 205.5 -50.5t64.5 -134.5q0 -71 -28 -126t-75.5 -87.5t-105 -49t-121.5 -16.5q-258 0 -276 193l102 35q3 -72 47 -104.5t138 -32.5z" />
    <glyph glyph-name="scommaaccent" unicode="&#x219;" horiz-adv-x="540" 
d="M166 -62h117l-63 -138h-88zM234 72q153 4 153 97q0 23 -16 35.5t-34.5 16t-65.5 8.5q-12 1 -18 2q-29 3 -38.5 4.5t-37 6.5t-39 9.5t-31 14t-28 21t-16 29t-7.5 38.5q0 49 22.5 87t59 59t76 31.5t78.5 10.5q189 0 205 -136l-100 -34q-3 43 -29 64.5t-82 21.5
q-130 0 -130 -85q0 -31 27.5 -41.5t95.5 -17.5q106 -10 144 -28q64 -29 64 -101q0 -68 -41.5 -114.5t-98 -64.5t-122.5 -18q-100 0 -151.5 36.5t-58.5 100.5l100 35q3 -44 30.5 -66t88.5 -22z" />
    <glyph glyph-name="Tcommaaccent" unicode="&#x21a;" horiz-adv-x="622" 
d="M405 688l-84 -688h-100l84 688h-241l11 92h582l-11 -92h-241zM207 -62h117l-63 -138h-88z" />
    <glyph glyph-name="tcommaaccent" unicode="&#x21b;" horiz-adv-x="420" 
d="M38 449l10 81h96l17 142l97 16l-19 -158h162l-10 -81h-162l-31 -250q-9 -72 11 -97t74 -26q31 -1 62 13l-1 -89q-34 -12 -74 -12q-58 0 -96.5 17.5t-53.5 46t-20 65.5t2 76l32 256h-96zM127 -62h117l-63 -138h-88z" />
    <glyph glyph-name="yogh" unicode="&#x292;" horiz-adv-x="566" 
d="M208 -211q-215 0 -228 152l99 34q2 -47 34.5 -74.5t101.5 -27.5q83 0 133 46.5t50 129.5q0 59 -37.5 91.5t-103.5 32.5q-60 0 -107 -30l-40 59l276 243h-322l11 85h457l-9 -73l-237 -208q86 12 146 -41t60 -149q0 -128 -83.5 -199t-200.5 -71z" />
    <glyph glyph-name="bullseye" unicode="&#x298;" horiz-adv-x="960" 
d="M80 390q0 166 117 283t283 117t283 -117t117 -283t-117 -283t-283 -117t-283 117t-117 283zM330 390q0 62 44 106t106 44t106 -44t44 -106t-44 -106t-106 -44t-106 44t-44 106zM157 339q0 -113 79.5 -192.5t192.5 -79.5t193 79.5t80 192.5t-80 193t-193 80t-192.5 -80
t-79.5 -193z" />
    <glyph glyph-name="circumflex" unicode="&#x2c6;" 
d="M312 800h92l126 -208h-93l-85 127l-117 -127h-101z" />
    <glyph glyph-name="caron" unicode="&#x2c7;" 
d="M378 592h-92l-126 208h93l85 -127l117 127h101z" />
    <glyph glyph-name="breve" unicode="&#x2d8;" 
d="M333 595q-102 0 -138.5 51.5t-23.5 153.5h76q-9 -66 13 -93.5t81 -27.5t88 27.5t36 93.5h80q-12 -102 -61 -153.5t-151 -51.5z" />
    <glyph glyph-name="dotaccent" unicode="&#x2d9;" 
d="M408 750l-14 -111h-112l14 111h112z" />
    <glyph glyph-name="ring" unicode="&#x2da;" 
d="M339 648q23 0 38 15.5t15 40.5q0 40 -41 40q-23 0 -38 -15.5t-15 -40.5q0 -40 41 -40zM331 580q-49 0 -76 27t-27 72q0 57 36.5 95t94.5 38q49 0 76 -27t27 -72q0 -57 -36.5 -95t-94.5 -38z" />
    <glyph glyph-name="ogonek" unicode="&#x2db;" 
d="M453 62l13 -62q-55 -7 -97 -38.5t-42 -67.5q0 -33 41 -33q34 0 68 17q4 1 4 2l14 -67q-44 -25 -106 -25q-46 0 -75.5 21.5t-29.5 65.5q0 62 58.5 113t151.5 74z" />
    <glyph glyph-name="tilde" unicode="&#x2dc;" 
d="M279 778q30 0 53.5 -11t35.5 -25t28 -25t33 -11q45 0 58 46l76 -11q-33 -125 -152 -125q-30 0 -53.5 11t-35.5 25t-28 25t-33 11q-45 0 -58 -46l-76 11q33 125 152 125z" />
    <glyph glyph-name="hungarumlaut" unicode="&#x2dd;" 
d="M323 800h112l-137 -208h-95zM483 800h112l-137 -208h-95z" />
    <glyph glyph-name="invertedbreve" unicode="&#x306;" 
d="M357 797q102 0 138.5 -51.5t23.5 -153.5h-76q9 66 -13 93.5t-81 27.5t-88 -27.5t-36 -93.5h-80q12 102 61 153.5t151 51.5z" />
    <glyph glyph-name="doublegrave" unicode="&#x30f;" 
d="M281 800h112l68 -208h-95zM121 800h112l68 -208h-95z" />
    <glyph glyph-name="commaabovecmb" unicode="&#x313;" 
d="M407 822h-108l95 208h86z" />
    <glyph glyph-name="uni0323" unicode="&#x323;" 
d="M308 -62l-14 -111h-112l14 111h112z" />
    <glyph glyph-name="uni0329" unicode="&#x329;" 
d="M270 -200h-71l20 160h71z" />
    <glyph glyph-name="uni03A9" unicode="&#x3a9;" horiz-adv-x="700" 
d="M393 682q-112 0 -179.5 -77t-67.5 -205q0 -95 40 -186t94 -142l-8 -72h-294l11 93l169 -1q-49 58 -82.5 144t-33.5 173q0 164 101 265.5t262 101.5q136 0 210 -71.5t74 -195.5q0 -108 -60.5 -224t-144.5 -193l169 1l-11 -93h-294l8 72q84 63 156 184t72 233
q0 90 -50 141.5t-141 51.5z" />
    <glyph glyph-name="pi" unicode="&#x3c0;" horiz-adv-x="709" 
d="M674 443h-145l-35 -281q-5 -44 9.5 -64.5t58.5 -21.5q33 -1 61 13v-89q-34 -12 -74 -12q-50 0 -83.5 15.5t-48 41.5t-18.5 52t-1 55l36 291h-169l-44 -355l-25 -88h-88l23 131l38 312h-126l11 87h631z" />
    <glyph glyph-name="Ddotbelow" unicode="&#x1e0c;" horiz-adv-x="764" 
d="M307 0h-267l95 780h267q317 0 317 -301q0 -227 -106.5 -353t-305.5 -126zM151 92h167q152 0 224.5 102.5t72.5 268.5q0 225 -224 225h-167zM368 -62l-14 -111h-112l14 111h112z" />
    <glyph glyph-name="ddotbelow" unicode="&#x1e0d;" horiz-adv-x="611" 
d="M309 542q53 0 95 -22t63 -61l42 341h95l-82 -668l-9 -132h-87l-3 76q-30 -41 -78.5 -64.5t-103.5 -23.5q-102 0 -155.5 56.5t-53.5 161.5q0 158 75.5 247t201.5 89zM435 202l16 126q-1 47 -40 86t-104 39q-76 0 -125.5 -60.5t-49.5 -168.5q0 -71 34 -109t95 -38
q65 0 113.5 38.5t60.5 86.5zM309 -62l-14 -111h-112l14 111h112z" />
    <glyph glyph-name="Hdotbelow" unicode="&#x1e24;" horiz-adv-x="750" 
d="M625 780h100l-95 -780h-100l43 354h-390l-43 -354h-100l95 780h100l-41 -335h390zM383 -62l-14 -111h-112l14 111h112z" />
    <glyph glyph-name="hdotbelow" unicode="&#x1e25;" horiz-adv-x="585" 
d="M216 800l-42 -342q68 84 178 84q91 0 141.5 -47t40.5 -132l-44 -363h-96l42 346q7 51 -23 79t-86 28q-61 0 -109 -39.5t-60 -85.5l-40 -328h-95l98 800h95zM305 -62l-14 -111h-112l14 111h112z" />
    <glyph glyph-name="Ldotbelow" unicode="&#x1e36;" horiz-adv-x="589" 
d="M235 780l-84 -688h396l-11 -92h-496l95 780h100zM338 -62l-14 -111h-112l14 111h112z" />
    <glyph glyph-name="ldotbelow" unicode="&#x1e37;" horiz-adv-x="258" 
d="M41 0l98 800h96l-98 -800h-96zM138 -62l-14 -111h-112l14 111h112z" />
    <glyph glyph-name="Ldotbelowmacron" unicode="&#x1e38;" horiz-adv-x="589" 
d="M235 780l-84 -688h396l-11 -92h-496l95 780h100zM338 -62l-14 -111h-112l14 111h112zM342 882h-288l11 90h288z" />
    <glyph glyph-name="ldotbelowmacron" unicode="&#x1e39;" horiz-adv-x="258" 
d="M41 0l98 800h96l-98 -800h-96zM138 -62l-14 -111h-112l14 111h112zM342 882h-288l11 90h288z" />
    <glyph glyph-name="Mdotbelow" unicode="&#x1e42;" horiz-adv-x="910" 
d="M457 0h-84l-134 455l-33 129l-34 -299l-34 -285h-98l95 780h106l144 -492l43 -164l83 164l264 492h110l-95 -780h-98l34 285l40 299l-65 -129zM463 -62l-14 -111h-112l14 111h112z" />
    <glyph glyph-name="mdotbelow" unicode="&#x1e43;" horiz-adv-x="879" 
d="M687 0l42 349q13 104 -91 104q-51 0 -92 -38.5t-54 -85.5l-40 -329h-96l42 349q13 104 -91 104q-51 0 -92.5 -38.5t-54.5 -85.5l-40 -329h-95l48 399l10 131h87l2 -75q66 87 164 87q127 0 151 -98q33 48 81 73t97 25q87 0 129.5 -47t32.5 -133l-44 -362h-96zM453 -62
l-14 -111h-112l14 111h112z" />
    <glyph glyph-name="Ndotaccent" unicode="&#x1e44;" horiz-adv-x="754" 
d="M231 780l254 -471l70 -133l28 235l45 369h101l-95 -780h-96l-255 471l-69 133l-28 -235l-45 -369h-101l95 780h96zM513 980l-14 -111h-112l14 111h112z" />
    <glyph glyph-name="ndotaccent" unicode="&#x1e45;" horiz-adv-x="587" 
d="M170 530l2 -75q32 40 80 63.5t102 23.5q91 0 141.5 -47t40.5 -132l-44 -363h-96l42 346q7 51 -23 79t-86 28q-61 0 -109 -39.5t-60 -85.5l-40 -328h-95l48 399l10 131h87zM407 750l-14 -111h-112l14 111h112z" />
    <glyph glyph-name="Ndotbelow" unicode="&#x1e46;" horiz-adv-x="754" 
d="M231 780l254 -471l70 -133l28 235l45 369h101l-95 -780h-96l-255 471l-69 133l-28 -235l-45 -369h-101l95 780h96zM385 -62l-14 -111h-112l14 111h112z" />
    <glyph glyph-name="ndotbelow" unicode="&#x1e47;" horiz-adv-x="587" 
d="M170 530l2 -75q32 40 80 63.5t102 23.5q91 0 141.5 -47t40.5 -132l-44 -363h-96l42 346q7 51 -23 79t-86 28q-61 0 -109 -39.5t-60 -85.5l-40 -328h-95l48 399l10 131h87zM312 -62l-14 -111h-112l14 111h112z" />
    <glyph glyph-name="Rdotbelow" unicode="&#x1e5a;" horiz-adv-x="707" 
d="M180 327l-40 -327h-100l95 780h312q231 0 231 -185q0 -121 -57 -182.5t-144 -77.5l163 -335h-118l-151 327h-191zM191 419h222q29 0 51.5 4.5t50 19.5t43 50.5t15.5 89.5q0 35 -11.5 57.5t-32.5 32t-39 12.5t-44 3h-222zM362 -62l-14 -111h-112l14 111h112z" />
    <glyph glyph-name="rdotbelow" unicode="&#x1e5b;" horiz-adv-x="414" 
d="M341 450q-65 0 -116 -38.5t-66 -86.5l-39 -325h-95l48 399l10 131h87l3 -81q28 41 75.5 67t100.5 26q45 0 70 -11l-21 -93q-19 12 -57 12zM121 -62l-14 -111h-112l14 111h112z" />
    <glyph glyph-name="Rdotbelowmacron" unicode="&#x1e5c;" horiz-adv-x="707" 
d="M180 327l-40 -327h-100l95 780h312q231 0 231 -185q0 -121 -57 -182.5t-144 -77.5l163 -335h-118l-151 327h-191zM191 419h222q29 0 51.5 4.5t50 19.5t43 50.5t15.5 89.5q0 35 -11.5 57.5t-32.5 32t-39 12.5t-44 3h-222zM362 -62l-14 -111h-112l14 111h112zM546 882h-288
l11 90h288z" />
    <glyph glyph-name="rdotbelowmacron" unicode="&#x1e5d;" horiz-adv-x="414" 
d="M341 450q-65 0 -116 -38.5t-66 -86.5l-39 -325h-95l48 399l10 131h87l3 -81q28 41 75.5 67t100.5 26q45 0 70 -11l-21 -93q-19 12 -57 12zM406 652h-288l11 90h288zM121 -62l-14 -111h-112l14 111h112z" />
    <glyph glyph-name="Sdotbelow" unicode="&#x1e62;" horiz-adv-x="713" 
d="M327 79q55 1 102 16t82 54.5t35 99.5q0 52 -41 78t-143 36q-44 4 -76.5 10t-67.5 18.5t-57 30t-36.5 46.5t-14.5 68q0 84 44.5 144t111 86t146.5 26q254 0 272 -189l-102 -35q-1 70 -44 101.5t-137 31.5q-29 0 -58 -6.5t-60.5 -22t-51 -48t-19.5 -77.5q0 -42 35 -63
t129 -32q141 -13 205.5 -50.5t64.5 -134.5q0 -71 -28 -126t-75.5 -87.5t-105 -49t-121.5 -16.5q-258 0 -276 193l102 35q3 -72 47 -104.5t138 -32.5zM362 -62l-14 -111h-112l14 111h112z" />
    <glyph glyph-name="sdotbelow" unicode="&#x1e63;" horiz-adv-x="540" 
d="M234 72q153 4 153 97q0 23 -16 35.5t-34.5 16t-65.5 8.5q-12 1 -18 2q-29 3 -38.5 4.5t-37 6.5t-39 9.5t-31 14t-28 21t-16 29t-7.5 38.5q0 49 22.5 87t59 59t76 31.5t78.5 10.5q189 0 205 -136l-100 -34q-3 43 -29 64.5t-82 21.5q-130 0 -130 -85q0 -31 27.5 -41.5
t95.5 -17.5q106 -10 144 -28q64 -29 64 -101q0 -68 -41.5 -114.5t-98 -64.5t-122.5 -18q-100 0 -151.5 36.5t-58.5 100.5l100 35q3 -44 30.5 -66t88.5 -22zM278 -62l-14 -111h-112l14 111h112z" />
    <glyph glyph-name="Tdotbelow" unicode="&#x1e6c;" horiz-adv-x="622" 
d="M405 688l-84 -688h-100l84 688h-241l11 92h582l-11 -92h-241zM319 -62l-14 -111h-112l14 111h112z" />
    <glyph glyph-name="tdotbelow" unicode="&#x1e6d;" horiz-adv-x="420" 
d="M38 449l10 81h96l17 142l97 16l-19 -158h162l-10 -81h-162l-31 -250q-9 -72 11 -97t74 -26q31 -1 62 13l-1 -89q-34 -12 -74 -12q-58 0 -96.5 17.5t-53.5 46t-20 65.5t2 76l32 256h-96zM239 -62l-14 -111h-112l14 111h112z" />
    <glyph glyph-name="Wgrave" unicode="&#x1e80;" horiz-adv-x="954" 
d="M401 1030h112l68 -208h-95zM539 496l-23 146l-61 -146l-221 -508h-85l-68 792h101l30 -460l9 -157l62 157l201 460h94l85 -460l28 -157l43 157l145 460h104l-262 -792h-85z" />
    <glyph glyph-name="wgrave" unicode="&#x1e81;" horiz-adv-x="813" 
d="M312 800h112l68 -208h-95zM444 292l-27 123l-57 -123l-143 -304h-94l-65 542h97l26 -282l9 -128l60 128l133 282h97l63 -282l27 -128l42 128l96 282h96l-198 -542h-93z" />
    <glyph glyph-name="Wacute" unicode="&#x1e82;" horiz-adv-x="954" 
d="M610 1030h112l-137 -208h-95zM539 496l-23 146l-61 -146l-221 -508h-85l-68 792h101l30 -460l9 -157l62 157l201 460h94l85 -460l28 -157l43 157l145 460h104l-262 -792h-85z" />
    <glyph glyph-name="wacute" unicode="&#x1e83;" horiz-adv-x="813" 
d="M511 800h112l-137 -208h-95zM444 292l-27 123l-57 -123l-143 -304h-94l-65 542h97l26 -282l9 -128l60 128l133 282h97l63 -282l27 -128l42 128l96 282h96l-198 -542h-93z" />
    <glyph glyph-name="Wdieresis" unicode="&#x1e84;" horiz-adv-x="954" 
d="M713 980l-14 -111h-112l14 111h112zM513 980l-14 -111h-112l14 111h112zM539 496l-23 146l-61 -146l-221 -508h-85l-68 792h101l30 -460l9 -157l62 157l201 460h94l85 -460l28 -157l43 157l145 460h104l-262 -792h-85z" />
    <glyph glyph-name="wdieresis" unicode="&#x1e85;" horiz-adv-x="813" 
d="M614 750l-14 -111h-112l14 111h112zM414 750l-14 -111h-112l14 111h112zM444 292l-27 123l-57 -123l-143 -304h-94l-65 542h97l26 -282l9 -128l60 128l133 282h97l63 -282l27 -128l42 128l96 282h96l-198 -542h-93z" />
    <glyph glyph-name="Ygrave" unicode="&#x1ef2;" horiz-adv-x="730" 
d="M299 1030h112l68 -208h-95zM300 551l71 -141l107 141l177 229h118l-359 -456l-39 -324h-100l39 324l-247 456h112z" />
    <glyph glyph-name="ygrave" unicode="&#x1ef3;" horiz-adv-x="562" 
d="M187 800h112l68 -208h-95zM575 530l-276 -495l-125 -235h-110l130 226l-157 504h107l75 -274l36 -131l67 131l144 274h109z" />
    <glyph glyph-name="enspace" unicode="&#x2002;" horiz-adv-x="500" 
 />
    <glyph glyph-name="emspace" unicode="&#x2003;" horiz-adv-x="1000" 
 />
    <glyph glyph-name="threeperemspace" unicode="&#x2004;" horiz-adv-x="333" 
 />
    <glyph glyph-name="fourperemspace" unicode="&#x2005;" horiz-adv-x="250" 
 />
    <glyph glyph-name="sixperemspace" unicode="&#x2006;" horiz-adv-x="167" 
 />
    <glyph glyph-name="figurespace" unicode="&#x2007;" horiz-adv-x="700" 
 />
    <glyph glyph-name="punctuationspace" unicode="&#x2008;" horiz-adv-x="280" 
 />
    <glyph glyph-name="thinspace" unicode="&#x2009;" horiz-adv-x="200" 
 />
    <glyph glyph-name="hairspace" unicode="&#x200a;" horiz-adv-x="100" 
 />
    <glyph glyph-name="zerowidthspace" unicode="&#x200b;" horiz-adv-x="0" 
 />
    <glyph glyph-name="figuredash" unicode="&#x2012;" horiz-adv-x="700" 
d="M656 380l-11 -90h-600l11 90h600z" />
    <glyph glyph-name="endash" unicode="&#x2013;" horiz-adv-x="500" 
d="M445 290h-400l11 90h400z" />
    <glyph glyph-name="emdash" unicode="&#x2014;" horiz-adv-x="1000" 
d="M956 380l-11 -90h-900l11 90h900z" />
    <glyph glyph-name="quoteleft" unicode="&#x2018;" horiz-adv-x="172" 
d="M129 530h-114l113 250h62z" />
    <glyph glyph-name="quoteright" unicode="&#x2019;" horiz-adv-x="172" 
d="M123 780h114l-113 -250h-63z" />
    <glyph glyph-name="quotesinglbase" unicode="&#x201a;" horiz-adv-x="172" 
d="M13 86h115l-115 -250h-61z" />
    <glyph glyph-name="quotedblleft" unicode="&#x201c;" horiz-adv-x="340" 
d="M129 530h-114l113 250h62zM300 530h-115l113 250h63z" />
    <glyph glyph-name="quotedblright" unicode="&#x201d;" horiz-adv-x="343" 
d="M293 780h115l-113 -250h-63zM123 780h114l-113 -250h-63z" />
    <glyph glyph-name="quotedblbase" unicode="&#x201e;" horiz-adv-x="343" 
d="M183 86h115l-114 -250h-63zM13 86h115l-115 -250h-61z" />
    <glyph glyph-name="dagger" unicode="&#x2020;" horiz-adv-x="310" 
d="M168 780h84l-26 -118l120 11l-10 -83l-118 12l-13 -212h-86l39 212l-120 -12l10 83l118 -11z" />
    <glyph glyph-name="daggerdbl" unicode="&#x2021;" horiz-adv-x="310" 
d="M168 780h84l-26 -118l120 11l-10 -83l-118 12l-1 -51l-11 -50l120 11l-10 -83l-117 12l-13 -212h-86l39 212l-121 -12l10 83l118 -11l1 50l11 51l-120 -12l10 83l118 -11z" />
    <glyph glyph-name="bullet" unicode="&#x2022;" horiz-adv-x="391" 
d="M353 474l-34 -278h-279l34 278h279z" />
    <glyph glyph-name="ellipsis" unicode="&#x2026;" horiz-adv-x="1020" 
d="M209 111l-13 -111h-112l13 111h112zM539 111l-13 -111h-112l13 111h112zM869 111l-13 -111h-112l13 111h112z" />
    <glyph glyph-name="perthousand" unicode="&#x2030;" horiz-adv-x="1562" 
d="M912 764l-611 -764h-104l611 764h104zM299 696q-57 0 -94 -38.5t-37 -121.5q0 -101 99 -101q57 0 94 38.5t37 121.5q0 101 -99 101zM257 355q-82 0 -128.5 43.5t-46.5 127.5q0 121 64 185.5t163 64.5q82 0 129 -43.5t47 -128.5q0 -120 -64.5 -184.5t-163.5 -64.5zM810 68
q57 0 94 39t37 122q0 100 -99 100q-57 0 -94 -38.5t-37 -121.5q0 -101 99 -101zM852 409q82 0 129 -43.5t47 -127.5q0 -121 -64.5 -185.5t-163.5 -64.5q-81 0 -128.5 43.5t-47.5 127.5q0 121 64.5 185.5t163.5 64.5zM1276 68q57 0 94 39t37 122q0 100 -99 100
q-57 0 -94 -38.5t-37 -121.5q0 -101 99 -101zM1318 409q82 0 129 -43.5t47 -127.5q0 -121 -64.5 -185.5t-163.5 -64.5q-81 0 -128.5 43.5t-47.5 127.5q0 121 64.5 185.5t163.5 64.5z" />
    <glyph glyph-name="guilsinglleft" unicode="&#x2039;" horiz-adv-x="300" 
d="M229 154l-10 -73l-190 141l10 86l226 141l-10 -81l-136 -107z" />
    <glyph glyph-name="guilsinglright" unicode="&#x203a;" horiz-adv-x="300" 
d="M55 376l10 73l190 -141l-10 -86l-226 -141l10 81l136 107z" />
    <glyph glyph-name="interrobang" unicode="&#x203d;" horiz-adv-x="606" 
d="M376 373q-31 -13 -46 -22l-25 -146h-65l34 487q-83 -24 -108 -119l-93 31q61 188 283 188q103 0 163 -46.5t60 -132.5q0 -45 -14 -82.5t-34 -61.5t-48 -43t-50 -29.5t-46 -19.5q-8 -3 -11 -4zM347 453q127 52 127 148q0 81 -85 96zM316 111l-13 -111h-112l13 111h112z
" />
    <glyph glyph-name="fraction" unicode="&#x2044;" horiz-adv-x="205" 
d="M466 764l-611 -764h-104l611 764h104z" />
    <glyph glyph-name="uni2070" unicode="&#x2070;" horiz-adv-x="508" 
d="M267 435q57 0 94 39t37 122q0 100 -99 100q-57 0 -94 -38.5t-37 -121.5q0 -101 99 -101zM257 355q-82 0 -128.5 43.5t-46.5 127.5q0 121 64 185.5t163 64.5q82 0 129 -43.5t47 -127.5q0 -121 -64 -185.5t-164 -64.5z" />
    <glyph glyph-name="uni2074" unicode="&#x2074;" horiz-adv-x="402" 
d="M383 445h-70l-9 -78h-84l9 78h-183l9 67l220 264h79l-31 -252h70zM239 524l16 122l-98 -122h82z" />
    <glyph glyph-name="uni2075" unicode="&#x2075;" horiz-adv-x="411" 
d="M219 432q36 0 60 20.5t24 62.5q0 56 -62 56q-54 0 -81 -33l-69 24l46 202h261l-10 -80h-188l-15 -65q25 16 69 16q135 0 135 -112q0 -83 -52 -125.5t-129 -42.5q-71 0 -105.5 26t-38.5 79l86 30q1 -33 16.5 -45.5t52.5 -12.5z" />
    <glyph glyph-name="uni2076" unicode="&#x2076;" horiz-adv-x="420" 
d="M275 700q-92 0 -105 -104q36 36 101 36q124 0 124 -109q0 -82 -48 -125t-125 -43q-144 0 -144 154q0 131 55.5 199t152.5 68q56 0 88.5 -24t38.5 -66l-85 -29q-5 42 -53 43zM252 562q-36 0 -61.5 -20t-25.5 -57q0 -26 18.5 -40t45.5 -14q34 0 56.5 19.5t22.5 59.5
q0 50 -56 52z" />
    <glyph glyph-name="uni2077" unicode="&#x2077;" horiz-adv-x="379" 
d="M185 367h-96l163 272l28 45h-200l10 80h304l-6 -54z" />
    <glyph glyph-name="uni2078" unicode="&#x2078;" horiz-adv-x="420" 
d="M243 602q78 0 78 56q0 41 -66 41q-77 0 -77 -56q0 -41 65 -41zM222 431q87 0 87 60q0 47 -73 47q-86 0 -86 -63q0 -44 72 -44zM213 355q-151 0 -151 100q0 87 71 116q-38 20 -38 73q0 69 49.5 100.5t120.5 31.5q62 0 101 -23.5t39 -75.5q0 -37 -16.5 -65t-41.5 -41
q47 -21 47 -78q0 -67 -46.5 -102.5t-134.5 -35.5z" />
    <glyph glyph-name="uni2079" unicode="&#x2079;" horiz-adv-x="420" 
d="M202 431q92 0 105 104q-36 -36 -101 -36q-124 0 -124 109q0 82 48 125t125 43q144 0 144 -154q0 -131 -55.5 -199t-152.5 -68q-56 0 -88.5 24t-38.5 66l85 29q5 -42 53 -43zM225 569q36 0 61.5 20t25.5 57q0 26 -18.5 40t-45.5 14q-34 0 -56.5 -19.5t-22.5 -59.5
q0 -50 56 -52z" />
    <glyph glyph-name="uni207A" unicode="&#x207a;" horiz-adv-x="386" 
d="M157 425l13 107h-107l11 95h107l14 107h95l-14 -107h107l-11 -95h-107l-13 -107h-95z" />
    <glyph glyph-name="uni207B" unicode="&#x207b;" horiz-adv-x="386" 
d="M372 533h-311l11 94h311z" />
    <glyph glyph-name="uni207C" unicode="&#x207c;" horiz-adv-x="386" 
d="M364 466h-308l11 89h308zM381 605h-308l11 89h308z" />
    <glyph glyph-name="uni207D" unicode="&#x207d;" horiz-adv-x="241" 
d="M261 820q-92 -160 -92 -334q0 -95 23 -172h-80q-31 89 -31 179q0 173 93 327h87z" />
    <glyph glyph-name="uni207E" unicode="&#x207e;" horiz-adv-x="241" 
d="M38 314q92 160 92 334q0 95 -23 172h80q31 -89 31 -179q0 -173 -93 -327h-87z" />
    <glyph glyph-name="uni2080" unicode="&#x2080;" horiz-adv-x="508" 
d="M222 68q57 0 94 39t37 122q0 100 -99 100q-57 0 -94 -38.5t-37 -121.5q0 -101 99 -101zM212 -12q-82 0 -128.5 43.5t-46.5 127.5q0 121 64 185.5t163 64.5q82 0 129 -43.5t47 -127.5q0 -121 -64 -185.5t-164 -64.5z" />
    <glyph glyph-name="uni2081" unicode="&#x2081;" horiz-adv-x="297" 
d="M157 0h-84l35 290q-30 -24 -91 -39l11 83q39 14 62.5 30t49.5 45h67z" />
    <glyph glyph-name="uni2082" unicode="&#x2082;" horiz-adv-x="420" 
d="M222 409q62 0 101 -28t39 -80q0 -28 -8.5 -50t-18 -35t-33 -26t-35.5 -17.5t-42 -15.5q-7 -3 -11 -4q-93 -33 -108 -76l88 2h150l-9 -79h-330q6 54 20 90.5t41 60t51.5 36.5t68.5 29q53 20 72.5 33t19.5 39q0 43 -64 43q-39 0 -59.5 -12.5t-29.5 -43.5l-80 27
q36 107 177 107z" />
    <glyph glyph-name="uni2083" unicode="&#x2083;" horiz-adv-x="426" 
d="M177 68q95 0 95 63q0 14 -5.5 22t-18 11.5t-22 4t-27.5 0.5h-64l9 70h65q22 0 35 2.5t23.5 14.5t10.5 35q0 41 -65 41q-37 0 -57.5 -13t-28.5 -44l-80 27q31 107 175 107q62 0 102 -25t40 -78q0 -75 -59 -100q50 -18 50 -76q0 -64 -49 -103t-141 -39q-142 0 -151 107
l86 30q1 -32 19.5 -44.5t57.5 -12.5z" />
    <glyph glyph-name="uni2084" unicode="&#x2084;" horiz-adv-x="402" 
d="M338 78h-70l-9 -78h-84l9 78h-183l9 67l220 264h79l-31 -252h70zM194 157l16 122l-98 -122h82z" />
    <glyph glyph-name="uni2085" unicode="&#x2085;" horiz-adv-x="411" 
d="M174 65q36 0 60 20.5t24 62.5q0 56 -62 56q-54 0 -81 -33l-69 24l46 202h261l-10 -80h-188l-15 -65q25 16 69 16q135 0 135 -112q0 -83 -52 -125.5t-129 -42.5q-71 0 -105.5 26t-38.5 79l86 30q1 -33 16.5 -45.5t52.5 -12.5z" />
    <glyph glyph-name="uni2086" unicode="&#x2086;" horiz-adv-x="420" 
d="M230 333q-92 0 -105 -104q36 36 101 36q124 0 124 -109q0 -82 -48 -125t-125 -43q-144 0 -144 154q0 131 55.5 199t152.5 68q56 0 88.5 -24t38.5 -66l-85 -29q-5 42 -53 43zM207 195q-36 0 -61.5 -20t-25.5 -57q0 -26 18.5 -40t45.5 -14q34 0 56.5 19.5t22.5 59.5
q0 50 -56 52z" />
    <glyph glyph-name="uni2087" unicode="&#x2087;" horiz-adv-x="379" 
d="M140 0h-96l163 272l28 45h-200l10 80h304l-6 -54z" />
    <glyph glyph-name="uni2088" unicode="&#x2088;" horiz-adv-x="420" 
d="M198 235q78 0 78 56q0 41 -66 41q-77 0 -77 -56q0 -41 65 -41zM177 64q87 0 87 60q0 47 -73 47q-86 0 -86 -63q0 -44 72 -44zM168 -12q-151 0 -151 100q0 87 71 116q-38 20 -38 73q0 69 49.5 100.5t120.5 31.5q62 0 101 -23.5t39 -75.5q0 -37 -16.5 -65t-41.5 -41
q47 -21 47 -78q0 -67 -46.5 -102.5t-134.5 -35.5z" />
    <glyph glyph-name="uni2089" unicode="&#x2089;" horiz-adv-x="420" 
d="M157 64q92 0 105 104q-36 -36 -101 -36q-124 0 -124 109q0 82 48 125t125 43q144 0 144 -154q0 -131 -55.5 -199t-152.5 -68q-56 0 -88.5 24t-38.5 66l85 29q5 -42 53 -43zM180 202q36 0 61.5 20t25.5 57q0 26 -18.5 40t-45.5 14q-34 0 -56.5 -19.5t-22.5 -59.5
q0 -50 56 -52z" />
    <glyph glyph-name="uni208A" unicode="&#x208a;" horiz-adv-x="386" 
d="M112 58l13 107h-107l11 95h107l14 107h95l-14 -107h107l-11 -95h-107l-13 -107h-95z" />
    <glyph glyph-name="uni208B" unicode="&#x208b;" horiz-adv-x="386" 
d="M327 166h-311l11 94h311z" />
    <glyph glyph-name="uni208C" unicode="&#x208c;" horiz-adv-x="386" 
d="M319 99h-308l11 89h308zM336 238h-308l11 89h308z" />
    <glyph glyph-name="uni208D" unicode="&#x208d;" horiz-adv-x="241" 
d="M216 453q-92 -160 -92 -334q0 -95 23 -172h-80q-31 89 -31 179q0 173 93 327h87z" />
    <glyph glyph-name="uni208E" unicode="&#x208e;" horiz-adv-x="241" 
d="M-7 -53q92 160 92 334q0 95 -23 172h80q31 -89 31 -179q0 -173 -93 -327h-87z" />
    <glyph glyph-name="uni20A1" unicode="&#x20a1;" horiz-adv-x="716" 
d="M579 810h75l-41 -79q68 -47 78 -150l-102 -35q-3 61 -25 91l-284 -548q31 -10 74 -10q86 0 129.5 32.5t64.5 106.5l94 -33q-62 -197 -299 -197q-59 0 -107 14l-25 -48h-75l39 75q-19 12 -26 19l-48 -94h-75l77 150q-43 73 -43 188q0 102 24 189t70 153.5t119.5 104
t166.5 37.5h11l18 34h75l-22 -42q10 -1 31 -7zM403 684q-53 -3 -95.5 -28t-69 -63t-43.5 -89t-24 -102t-7 -105q0 -41 5 -67zM200 146q9 -14 22 -25l286 554q-11 4 -31 7z" />
    <glyph glyph-name="uni20A2" unicode="&#x20a2;" horiz-adv-x="716" 
d="M573 381q-65 0 -116 -38.5t-65 -86.5l-22 -177q78 3 118 35.5t60 103.5l94 -33q-62 -197 -299 -197q-142 0 -212.5 79t-70.5 225q0 102 24 189t70 153.5t119.5 104t166.5 37.5q236 0 251 -195l-102 -35q-3 74 -38.5 106.5t-121.5 32.5q-74 0 -127.5 -33.5t-82.5 -91.5
t-42.5 -123t-13.5 -139q0 -170 114 -208l29 240l9 131h87l3 -81q28 41 76 67t101 26q44 0 69 -11l-20 -93q-22 12 -58 12z" />
    <glyph glyph-name="uni20A3" unicode="&#x20a3;" horiz-adv-x="630" 
d="M69 497h107l32 267h447l-11 -92h-347l-21 -175h240l-10 -76h-240l-6 -52h240l-10 -76h-240l-35 -293h-100l35 293h-107l10 76h107l6 52h-107z" />
    <glyph glyph-name="uni20A4" unicode="&#x20a4;" horiz-adv-x="707" 
d="M458 688q-160 -1 -177 -138l-10 -83h241l-9 -76h-241l-7 -52h241l-9 -76h-241l-22 -174h400l-10 -89h-605l10 89h110l22 174h-111l9 76h111l7 52h-111l9 76h111l9 76q14 112 86.5 172.5t197.5 60.5q211 0 218 -158l-100 -34q2 107 -129 104z" />
    <glyph glyph-name="uni20A6" unicode="&#x20a6;" horiz-adv-x="755" 
d="M49 484h73l34 280h109l129 -280h176l34 280h101l-34 -280h73l-9 -76h-73l-7 -52h73l-9 -76h-73l-34 -280h-109l-129 280h-176l-34 -280h-101l34 280h-73l9 76h73l7 52h-73zM214 408l-7 -52h132l-24 52h-101zM429 408l23 -52h102l7 52h-132zM233 588l-10 -104h57zM535 176
l10 104h-58z" />
    <glyph glyph-name="uni20A7" unicode="&#x20a7;" horiz-adv-x="1461" 
d="M840 76q41 0 63.5 15.5t31.5 55.5l101 13q3 -44 30.5 -66t88.5 -22q153 4 153 97q0 23 -16 35.5t-34.5 16t-65.5 8.5q-12 1 -18 2q-29 3 -38.5 4.5t-37 6.5t-39 9.5t-31 14t-28 21t-16 29t-7.5 38.5q0 49 22.5 87t59 59t76 31.5t78.5 10.5q189 0 205 -136l-100 -34
q-3 43 -29 64.5t-82 21.5q-130 0 -130 -85q0 -31 27.5 -41.5t95.5 -17.5q106 -10 144 -28q64 -29 64 -101q0 -68 -41.5 -114.5t-98 -64.5t-122.5 -18q-114 0 -168 49q-54 -49 -151 -49q-58 0 -96.5 17.5t-53.5 46t-20 65.5t2 76l32 256h-95q-65 -153 -289 -153h-130
l-36 -296h-101l93 764h231q52 0 95 -9t80.5 -30.5t58.5 -61t21 -95.5q0 -24 -2 -38h84l17 142l97 16l-19 -158h162l-10 -81h-162l-31 -250q-9 -72 11 -97t74 -26zM188 388h167q26 0 50.5 6.5t50.5 23t42 53t16 88.5q0 113 -124 113h-167z" />
    <glyph glyph-name="uni20A8" unicode="&#x20a8;" horiz-adv-x="1143" 
d="M387 400q63 0 109 38t46 127q0 107 -122 107h-197l-33 -272h197zM889 459q-130 0 -130 -85q0 -31 27.5 -41.5t95.5 -17.5q31 -3 42.5 -4t39.5 -5.5t40.5 -9.5t32.5 -15t29 -22.5t16.5 -31.5t7.5 -43q0 -196 -289 -196q-159 0 -272 71t-191 249h-160l-37 -308h-101l93 764
h288q228 0 228 -185q0 -121 -56.5 -184t-143.5 -79q34 -76 79 -127.5t95.5 -75.5t94 -32.5t94.5 -8.5q92 0 135 22t43 76q0 23 -16 35.5t-34.5 16t-65.5 8.5q-4 1 -6 1t-5.5 0.5t-6.5 0.5q-29 3 -38.5 4.5t-36.5 6.5t-38.5 9.5t-31 14t-28 21t-16 29t-7.5 38.5
q0 65 39.5 109.5t90 61.5t105.5 17q189 0 205 -136l-100 -34q-3 43 -29 64.5t-82 21.5z" />
    <glyph glyph-name="uni20A9" unicode="&#x20a9;" horiz-adv-x="867" 
d="M831 280h-94l-91 -292h-107l-33 292h-159l-105 -292h-107l-19 292h-94l9 76h79l-3 52h-69l9 76h55l-19 280h106l12 -280h126l100 280h117l32 -280h125l81 280h106l-87 -280h55l-9 -76h-69l-17 -52h79zM393 408l-19 -52h123l-5 52h-99zM205 408l2 -52h74l19 52h-95z
M585 408l5 -52h74l16 52h-95zM468 618l-48 -134h63zM210 280l5 -109l39 109h-44zM599 280l12 -109l32 109h-44z" />
    <glyph glyph-name="uni20AA" unicode="&#x20aa;" horiz-adv-x="800" 
d="M133 764h265q90 0 137 -46.5t36 -131.5l-52 -424h-100l51 409q12 101 -89 101h-159l-82 -672h-100zM485 0h-265l72 592h100l-61 -500h159q101 0 113 101l70 571h100l-72 -586q-10 -85 -68 -131.5t-148 -46.5z" />
    <glyph glyph-name="Euro" unicode="&#x20ac;" horiz-adv-x="769" 
d="M258 499h311l-35 -77h-296l-10 -80h271l-34 -77h-236q9 -188 177 -188q83 0 128 34t65 104l94 -33q-62 -193 -298 -193q-130 0 -197 71t-72 205h-107l9 77h99l10 80h-99l10 77h107q78 276 337 276q233 0 250 -191l-102 -35q-3 70 -40 104t-119 34q-169 0 -223 -188z" />
    <glyph glyph-name="uni20AE" unicode="&#x20ae;" horiz-adv-x="532" 
d="M112 304l10 82l107 50l29 236h-196l11 92h492l-11 -92h-196l-23 -186l120 56l-10 -82l-120 -56l-6 -50l120 56l-10 -82l-120 -56l-33 -272h-100l27 222l-107 -50l10 82l107 50l6 50z" />
    <glyph glyph-name="uni20B1" unicode="&#x20b1;" horiz-adv-x="679" 
d="M661 408h-69q-68 -147 -263 -147h-134l-32 -261h-101l50 408h-71l9 78h71l7 53h-71l9 78h71l18 147h235q87 0 148.5 -34.5t78.5 -112.5h69l-9 -78h-55q0 -21 -7 -53h55zM515 486q3 5 5.5 26t1.5 27h-293l-7 -53h293zM206 355h154q86 0 123 53h-270zM245 670l-7 -53h270
q-23 53 -109 53h-154z" />
    <glyph glyph-name="litre" unicode="&#x2113;" horiz-adv-x="359" 
d="M28 159v100q18 12 42 32v217q0 272 145 272q61 0 89 -44t28 -115q0 -100 -50 -196.5t-116 -162.5v-108q0 -42 13 -58t48 -17q37 0 65 14l13 -92q-30 -12 -78 -12q-73 0 -115 30t-42 92v78q-31 -23 -42 -30zM166 534v-143q34 43 58 109t24 134q0 60 -32 60q-50 0 -50 -160
z" />
    <glyph glyph-name="numero" unicode="&#x2116;" horiz-adv-x="1301" 
d="M993 222q-105 0 -162.5 56t-57.5 164q0 162 79.5 248t208.5 86q105 0 162.5 -56t57.5 -165q0 -161 -80 -247t-208 -86zM507 0l-230 448l-67 133l-21 -190l-48 -391h-100l93 764h89l230 -448l67 -133l21 190l47 391h101l-93 -764h-89zM1003 308q79 0 130 58.5t51 176.5
q0 75 -35.5 111t-98.5 36q-79 0 -129.5 -59t-50.5 -178q0 -145 133 -145zM1035 111l-13 -111h-112l13 111h112z" />
    <glyph glyph-name="servicemark" unicode="&#x2120;" horiz-adv-x="555" 
d="M410 624l11 -48l23 48l80 156h56l-33 -270h-46l16 132l7 46l-91 -178h-40l-47 178l-21 -178h-46l33 270h56zM135 505q-92 0 -98 69l48 17q1 -42 55 -42q24 0 43.5 12.5t19.5 35.5q0 27 -54 32q-88 8 -88 63q0 45 31.5 68.5t75.5 23.5q87 0 93 -67l-45 -15q-1 21 -14 30
t-40 9q-20 0 -36 -10t-16 -32q0 -13 10 -19t37 -9q48 -5 70.5 -18.5t22.5 -47.5q0 -48 -33.5 -74t-81.5 -26z" />
    <glyph glyph-name="trademark" unicode="&#x2122;" horiz-adv-x="555" 
d="M403 624l11 -48l23 48l80 156h56l-33 -270h-46l16 132l7 46l-20 -38l-71 -140h-40l-37 140l-10 38l-5 -46l-16 -132h-46l33 270h56zM180 735l-28 -225h-48l28 225h-80l5 45h209l-5 -45h-81z" />
    <glyph glyph-name="ohm" unicode="&#x2126;" horiz-adv-x="700" 
d="M393 682q-112 0 -179.5 -77t-67.5 -205q0 -95 40 -186t94 -142l-8 -72h-294l11 93l169 -1q-49 58 -82.5 144t-33.5 173q0 164 101 265.5t262 101.5q136 0 210 -71.5t74 -195.5q0 -108 -60.5 -224t-144.5 -193l169 1l-11 -93h-294l8 72q84 63 156 184t72 233
q0 90 -50 141.5t-141 51.5z" />
    <glyph glyph-name="estimated" unicode="&#x212e;" horiz-adv-x="795" 
d="M788 349h-636q14 -284 246 -284q246 0 283 198h92q-20 -139 -118 -207t-257 -68q-174 0 -282 109t-108 291q0 181 108 290t282 109t282 -109t108 -290v-39zM398 711q-232 0 -246 -285h491q-13 285 -245 285z" />
    <glyph glyph-name="arrowleft" unicode="&#x2190;" horiz-adv-x="880" 
d="M38 351v77l417 257v-112l-153 -90l-88 -47l89 1h527v-95h-527l-89 1l88 -47l153 -90v-112z" />
    <glyph glyph-name="arrowup" unicode="&#x2191;" horiz-adv-x="880" 
d="M401 792h77l257 -417h-112l-90 153l-47 88l1 -89v-527h-95v527l1 89l-47 -88l-90 -153h-112z" />
    <glyph glyph-name="arrowright" unicode="&#x2192;" horiz-adv-x="880" 
d="M842 428v-77l-417 -257v112l153 90l88 47l-89 -1h-527v95h527l89 -1l-88 47l-153 90v112z" />
    <glyph glyph-name="arrowdown" unicode="&#x2193;" horiz-adv-x="880" 
d="M478 -11h-77l-257 417h112l90 -153l47 -88l-1 89v527h95v-527l-1 -89l47 88l90 153h112z" />
    <glyph glyph-name="uni2196" unicode="&#x2196;" horiz-adv-x="880" 
d="M20 738l55 54l476 -113l-79 -79l-172 44l-95 29l63 -62l373 -372l-67 -68l-373 373l-62 64l29 -96l45 -172l-80 -79z" />
    <glyph glyph-name="uni2197" unicode="&#x2197;" horiz-adv-x="880" 
d="M805 792l55 -54l-113 -477l-80 79l45 172l29 96l-62 -64l-373 -373l-67 68l373 372l63 62l-95 -29l-172 -44l-79 79z" />
    <glyph glyph-name="uni2198" unicode="&#x2198;" horiz-adv-x="880" 
d="M75 -12l-55 54l113 477l80 -79l-45 -172l-29 -96l62 64l373 373l67 -68l-373 -372l-63 -62l95 29l172 44l79 -79z" />
    <glyph glyph-name="uni2199" unicode="&#x2199;" horiz-adv-x="880" 
d="M860 42l-55 -54l-476 113l79 79l172 -44l95 -29l-63 62l-373 372l67 68l373 -373l62 -64l-29 96l-45 172l80 79z" />
    <glyph glyph-name="partialdiff" unicode="&#x2202;" horiz-adv-x="689" 
d="M337 413q-84 0 -136.5 -50.5t-52.5 -147.5q0 -70 43 -103.5t115 -33.5q141 0 194 136q24 87 -24.5 143t-138.5 56zM541 408q17 125 -41.5 202t-175.5 77q-92 0 -163 -43l-31 76q95 56 204 56q145 0 224 -77t79 -232q0 -45 -5 -80q-25 -202 -109 -300.5t-236 -98.5
q-110 0 -177 57t-67 159q0 140 83.5 221.5t212.5 81.5q71 0 126 -26.5t76 -72.5z" />
    <glyph glyph-name="increment" unicode="&#x2206;" horiz-adv-x="860" 
d="M10 0l6 54l430 721h78l252 -721l-6 -54h-760zM470 641l-72 -126l-253 -424l125 1h266l125 -1l-149 424z" />
    <glyph glyph-name="product" unicode="&#x220f;" horiz-adv-x="765" 
d="M667 672l-82 -672h-100l82 672h-285l-82 -672h-100l82 672h-114l11 92h713l-11 -92h-114z" />
    <glyph glyph-name="summation" unicode="&#x2211;" horiz-adv-x="688" 
d="M146 764h525l-11 -92h-246l-133 1l249 -248l-9 -70l-331 -264l133 1h288l-11 -92h-571l11 91l377 304l-281 282z" />
    <glyph glyph-name="minus" unicode="&#x2212;" horiz-adv-x="490" 
d="M445 343h-396l11 94h396z" />
    <glyph glyph-name="radical" unicode="&#x221a;" horiz-adv-x="787" 
d="M714 764h116l-544 -776h-96l-52 439l-106 -22l12 95l185 42l28 -302l12 -132l80 125z" />
    <glyph glyph-name="infinity" unicode="&#x221e;" horiz-adv-x="800" 
d="M749 390q0 -78 -47.5 -119.5t-127.5 -41.5q-93 0 -174 95q-81 -95 -174 -95q-80 0 -127.5 41.5t-47.5 119.5t47.5 119.5t127.5 41.5q93 0 174 -95q81 95 174 95q80 0 127.5 -41.5t47.5 -119.5zM666 390q0 44 -26 63.5t-66 17.5q-68 -3 -125 -81q57 -78 125 -81
q40 -2 66 17.5t26 63.5zM226 309q68 3 125 81q-57 78 -125 81q-40 2 -66 -17.5t-26 -63.5t26 -63.5t66 -17.5z" />
    <glyph glyph-name="integral" unicode="&#x222b;" horiz-adv-x="258" 
d="M206 565l-70 -572q-11 -93 -59.5 -149t-158.5 -56q-40 0 -70 12l21 89q23 -14 58 -13q53 1 78.5 26t34.5 97l71 572q5 44 17 77.5t35.5 64t65.5 47t100 16.5q40 0 70 -12l-21 -89q-23 14 -58 13q-54 -1 -79.5 -26t-34.5 -97z" />
    <glyph glyph-name="approxequal" unicode="&#x2248;" horiz-adv-x="490" 
d="M471 499l-34 -79l-2 2q-2 3 -4 5.5t-6 6.5t-9 7.5t-11.5 7.5t-14 7t-17 5t-19.5 2q-34 1 -88.5 -34t-99.5 -35q-39 0 -66.5 14t-35.5 28l-9 14l33 78q2 -4 8.5 -11.5t27.5 -18.5t47 -12q35 -1 89.5 34t99.5 35q39 0 66.5 -14t35.5 -28zM450 330l-34 -79q-2 4 -9 12
t-27.5 19t-45.5 12q-35 1 -89.5 -34t-99.5 -35q-39 0 -66.5 14t-36.5 28l-8 14l34 76q2 -4 9.5 -12t27.5 -17.5t45 -10.5q35 -1 89.5 34t99.5 35q39 0 66.5 -14t36.5 -28z" />
    <glyph glyph-name="notequal" unicode="&#x2260;" horiz-adv-x="490" 
d="M28 154l77 102h-67l11 94h126l60 80h-176l12 94h235l76 102h94l-76 -102h67l-12 -94h-126l-60 -80h176l-11 -94h-235l-77 -102h-94z" />
    <glyph glyph-name="lessequal" unicode="&#x2264;" horiz-adv-x="490" 
d="M416 112l-376 158l9 80l377 -156zM171 457v-1l106 -41l169 -66l-13 -99l-377 157l13 103l415 157l-12 -103l-185 -66z" />
    <glyph glyph-name="greaterequal" unicode="&#x2265;" horiz-adv-x="490" 
d="M436 270l-416 -158l10 82l415 156zM351 460v1l-106 41l-169 66l12 99l377 -157l-13 -103l-415 -157l13 103l185 66z" />
    <glyph glyph-name="filledbox" unicode="&#x25a0;" horiz-adv-x="980" 
d="M100 0v780h780v-780h-780zM780 684h-580v-588h580v588zM221 187l203 203l-203 203l66 66l203 -203l203 203l66 -66l-203 -203l203 -203l-66 -66l-203 203l-203 -203z" />
    <glyph glyph-name="whitesquare" unicode="&#x25a1;" horiz-adv-x="980" 
d="M100 0v780h780v-780h-780zM780 684h-580v-588h580v588z" />
    <glyph glyph-name="blacksmallsquare" unicode="&#x25aa;" horiz-adv-x="730" 
d="M630 530v-530h-530v530h530z" />
    <glyph glyph-name="whitesmallsquare" unicode="&#x25ab;" horiz-adv-x="730" 
d="M100 0v530h530v-530h-530zM530 434h-330v-338h330v338z" />
    <glyph glyph-name="uni25B2" unicode="&#x25b2;" horiz-adv-x="850" 
d="M815 0h-780l390 790z" />
    <glyph glyph-name="uni25B6" unicode="&#x25b6;" horiz-adv-x="850" 
d="M40 0v780l790 -390z" />
    <glyph glyph-name="uni25BC" unicode="&#x25bc;" horiz-adv-x="850" 
d="M35 780h780l-390 -790z" />
    <glyph glyph-name="uni25C0" unicode="&#x25c0;" horiz-adv-x="850" 
d="M810 780v-780l-790 390z" />
    <glyph glyph-name="lozenge" unicode="&#x25ca;" horiz-adv-x="900" 
d="M422 126l270 266l-199 262l-271 -266zM408 -12l-319 402l418 402l318 -402z" />
    <glyph glyph-name="circle" unicode="&#x25cb;" horiz-adv-x="730" 
d="M90 265q0 114 80.5 194.5t194.5 80.5t194.5 -80.5t80.5 -194.5t-80.5 -194.5t-194.5 -80.5t-194.5 80.5t-80.5 194.5z" />
    <glyph glyph-name="blackcircle" unicode="&#x25cf;" horiz-adv-x="980" 
d="M90 390q0 166 117 283t283 117t283 -117t117 -283t-117 -283t-283 -117t-283 117t-117 283z" />
    <glyph glyph-name="uni25E2" unicode="&#x25e2;" horiz-adv-x="850" 
d="M30 239l551 551l249 -800z" />
    <glyph glyph-name="uni25E3" unicode="&#x25e3;" horiz-adv-x="850" 
d="M269 790l551 -551l-800 -249z" />
    <glyph glyph-name="uni25E4" unicode="&#x25e4;" horiz-adv-x="850" 
d="M820 541l-551 -551l-249 800z" />
    <glyph glyph-name="uni25E5" unicode="&#x25e5;" horiz-adv-x="850" 
d="M581 -10l-551 551l800 249z" />
    <glyph glyph-name="whitecircle" unicode="&#x25ef;" horiz-adv-x="980" 
d="M90 390q0 166 117 283t283 117t283 -117t117 -283t-117 -283t-283 -117t-283 117t-117 283zM788 390q0 131 -84.5 219t-213.5 88t-213.5 -88t-84.5 -219t84.5 -219t213.5 -88t213.5 88t84.5 219z" />
    <glyph glyph-name="blacksquare" unicode="&#x25fc;" horiz-adv-x="980" 
d="M880 780v-780h-780v780h780z" />
    <glyph glyph-name="uni2600" unicode="&#x2600;" horiz-adv-x="985" 
d="M493 565q112 0 191 -79t79 -191t-79 -190.5t-191 -78.5t-190.5 78.5t-78.5 190.5t78.5 191t190.5 79zM493 89q86 0 146.5 60.5t60.5 145.5t-61 146t-146 61t-145.5 -60.5t-60.5 -146.5q0 -85 60.5 -145.5t145.5 -60.5zM27 345l11 63l160 -29l-11 -62zM960 345l-160 -28
l-11 62l160 29zM883 33l-141 82l32 54l141 -81zM104 33l-32 55l141 81l32 -54zM915 502l-141 -81l-32 54l141 82zM72 502l32 55l141 -82l-32 -54zM217 -84l-49 40l105 125l48 -41zM819 634l-105 -125l-48 41l104 124zM770 -84l-104 124l48 41l105 -125zM168 634l49 40
l104 -124l-48 -41zM462 -174v163h63v-163h-63zM525 764v-163h-63v163h63zM38 183l-11 62l160 28l11 -62zM949 183l-160 28l11 62l160 -28zM624 -156l-56 153l59 21l56 -153zM363 -156l-59 21l56 153l59 -21zM304 725l59 21l56 -152l-59 -22zM683 725l-56 -153l-59 22l56 152
z" />
    <glyph glyph-name="uni2601" unicode="&#x2601;" horiz-adv-x="1350" 
d="M257 637q54 90 146.5 143.5t200.5 53.5q133 0 238.5 -77.5t145.5 -200.5q1 1 3 1q34 8 65 8q112 0 190.5 -79t78.5 -191t-78.5 -190.5t-190.5 -78.5h-721q-129 0 -219.5 91t-90.5 219q0 107 65.5 190.5t166.5 110.5zM917 295q28 65 28 136q0 141 -100 240.5t-241 99.5
q-78 0 -147 -33.5t-116 -91.5q127 -2 215.5 -92.5t88.5 -217.5q0 -15 -2 -41h-64q3 19 3 41q0 103 -72.5 175t-174.5 72q-103 0 -175 -72t-72 -175t72 -175t175 -72h721q86 0 146 60.5t60 145.5q0 86 -60 146.5t-146 60.5q-26 0 -50 -6h-1q-1 -1 -2 -1q5 -35 5 -64
q0 -70 -23 -136h-68z" />
    <glyph glyph-name="uni2602" unicode="&#x2602;" horiz-adv-x="1350" 
d="M257 637q54 90 146.5 143.5t200.5 53.5q133 0 238.5 -77.5t145.5 -200.5q1 1 3 1q34 8 65 8q112 0 190.5 -79t78.5 -191t-78.5 -190.5t-190.5 -78.5h-721q-129 0 -219.5 91t-90.5 219q0 107 65.5 190.5t166.5 110.5zM985 295h-68q28 65 28 136q0 141 -100 240.5
t-241 99.5q-78 0 -147 -33.5t-116 -91.5q127 -2 215.5 -92.5t88.5 -217.5q0 -15 -2 -41h-64q3 19 3 41q0 103 -72.5 175t-174.5 72q-103 0 -175 -72t-72 -175t72 -175t175 -72h721q86 0 146 60.5t60 145.5q0 86 -60 146.5t-146 60.5q-26 0 -50 -6h-1q-1 -1 -2 -1
q5 -35 5 -64q0 -70 -23 -136zM583 -10l-59 -163h-67l59 163h67zM1019 -10l-59 -163h-67l59 163h67zM801 -10l-59 -163h-67l59 163h67zM365 -10l-59 -163h-67l59 163h67z" />
    <glyph glyph-name="uni2603" unicode="&#x2603;" horiz-adv-x="894" 
d="M681 196l138 80l31 -54l-106 -62l125 -72l-32 -54l-122 70v-117h-63v153l-174 101v-198l138 -79l-31 -55l-107 62v-145h-63v142l-101 -59l-31 55l132 76v201l-170 -99v-160h-63v124l-125 -72l-32 54l122 71l-101 58l32 55l132 -77l174 100l-171 99l-138 -80l-32 55
l107 61l-125 72l32 55l122 -71v117h63v-153l173 -100v197l-138 79l32 55l106 -61v144h63v-141l101 58l32 -54l-133 -77v-200l171 98v160h63v-123l125 72l32 -55l-123 -70l101 -59l-31 -54l-133 76l-173 -100z" />
    <glyph glyph-name="uni2605" unicode="&#x2605;" horiz-adv-x="880" 
d="M440 180l-260 -190l99 307l-260 189h322l99 306l99 -306h322l-260 -189l99 -307z" />
    <glyph glyph-name="uni2607" unicode="&#x2607;" horiz-adv-x="1351" 
d="M917 296q28 64 28 135q0 141 -99.5 240.5t-240.5 99.5q-78 0 -147 -33t-117 -91q127 -3 216 -93.5t89 -217.5q0 -22 -3 -40h-63q3 18 3 40q0 103 -72.5 175.5t-175.5 72.5q-102 0 -174.5 -72.5t-72.5 -175.5q0 -102 72.5 -174.5t174.5 -72.5l72 -63h-72q-128 0 -219 91
t-91 219q0 108 65.5 191t167.5 110q53 90 145.5 143.5t201.5 53.5q133 0 238.5 -77.5t144.5 -199.5h4q27 8 64 8q112 0 191 -78.5t79 -190.5t-79 -191t-191 -79l-69 63h69q86 0 146.5 60.5t60.5 146.5q0 85 -60.5 145.5t-146.5 60.5q-25 0 -49 -6h-4q5 -35 5 -65
q0 -71 -23 -135h-68zM670 262h177l-113 -168l75 -68l-225 -225h-6l96 207l-91 81zM870 262h177l-113 -168l75 -68l-225 -225h-6l96 207l-91 81zM647 262l-113 -168l75 -68l-225 -225h-6l96 207l-91 81l87 173h177z" />
    <glyph glyph-name="filledsmallbox" unicode="&#x2612;" horiz-adv-x="730" 
d="M221 187l78 78l-78 78l66 66l78 -78l78 78l66 -66l-78 -78l78 -78l-66 -66l-78 78l-78 -78zM100 0v530h530v-530h-530zM530 434h-330v-338h330v338z" />
    <glyph glyph-name="uni2614" unicode="&#x2614;" horiz-adv-x="1350" 
d="M917 295q28 65 28 136q0 140 -100 240t-241 100q-78 0 -147 -33.5t-116 -91.5q127 -2 215.5 -92.5t88.5 -217.5q0 -15 -2 -41h-64q3 19 3 41q0 102 -72.5 174.5t-174.5 72.5q-103 0 -175 -72.5t-72 -174.5q0 -92 59 -161.5t148 -83.5l-22 -60q-107 22 -177.5 107.5
t-70.5 197.5q0 107 65.5 190.5t166.5 109.5q54 91 146 144.5t201 53.5q133 0 238.5 -77.5t145.5 -200.5h1q1 1 2 1q34 8 65 8q112 0 190.5 -79t78.5 -191q0 -106 -72.5 -183.5t-177.5 -85.5l25 67q70 15 116 71.5t46 130.5q0 86 -60.5 146.5t-145.5 60.5q-26 0 -50 -6
q-1 -1 -3 -1q5 -35 5 -64q0 -70 -23 -136h-68zM1056 89l-96 -263h-67l96 263h67zM947 89l-96 -263h-67l96 263h67zM838 89l-96 -263h-67l96 263h67zM729 89l-96 -263h-67l96 263h67zM511 89l-96 -263h-67l96 263h67zM620 89l-96 -263h-67l96 263h67zM402 89l-96 -263h-67
l96 263h67z" />
    <glyph glyph-name="uni263C" unicode="&#x263c;" horiz-adv-x="960" 
d="M880 390l-169 -30l155 -73l-171 15l132 -112l-162 59l98 -141l-141 98l58 -162l-111 130l15 -170l-74 155l-30 -169l-30 169l-74 -155l15 170l-111 -130l58 162l-141 -98l98 141l-162 -59l132 112l-171 -15l155 73l-169 30l169 30l-155 73l171 -15l-132 112l162 -59
l-98 141l141 -98l-58 162l111 -130l-15 170l74 -155l30 169l30 -169l74 155l-15 -170l111 130l-58 -162l141 98l-98 -141l162 59l-132 -112l171 15l-155 -73z" />
    <glyph glyph-name="uni263E" unicode="&#x263e;" horiz-adv-x="960" 
d="M624 728q-139 0 -231.5 -95.5t-92.5 -242.5t92.5 -242.5t231.5 -95.5q50 0 96 15q-107 -77 -240 -77q-166 0 -283 117t-117 283t117 283t283 117q131 0 240 -77q-52 15 -96 15z" />
    <glyph glyph-name="uni2660" unicode="&#x2660;" horiz-adv-x="900" 
d="M451 790q32 -48 97 -116t136 -114q78 -51 121 -103t43 -123q0 -73 -51 -123.5t-125 -50.5q-69 0 -120.5 46t-79.5 115l-3 -1q8 -102 26.5 -174t55.5 -146h-202q37 74 55.5 146t26.5 174l-3 1q-28 -69 -79.5 -115t-120.5 -46q-74 0 -125 50.5t-51 123.5q0 71 43 123
t121 103q71 46 136 114t97 116h2z" />
    <glyph glyph-name="uni2663" unicode="&#x2663;" horiz-adv-x="900" 
d="M349 0q37 74 55.5 146t26.5 174l-3 1q-28 -69 -79.5 -115t-120.5 -46q-74 0 -125 50.5t-51 123.5q0 79 48.5 129.5t125.5 50.5q40 0 84 -23l2 2q-38 57 -38 117q0 75 50.5 127.5t125.5 52.5t125.5 -52.5t50.5 -127.5q0 -60 -38 -117l2 -2q44 23 84 23q77 0 125.5 -50.5
t48.5 -129.5q0 -73 -51 -123.5t-125 -50.5q-69 0 -120.5 46t-79.5 115l-3 -1q8 -102 26.5 -174t55.5 -146h-202z" />
    <glyph glyph-name="uni2665" unicode="&#x2665;" horiz-adv-x="900" 
d="M451 -10h-2q-28 43 -94 126.5t-139 166.5q-164 185 -164 301q0 90 52 148t139 58q85 0 132.5 -42.5t72.5 -114.5h4q25 72 72.5 114.5t132.5 42.5q87 0 139 -58t52 -148q0 -116 -164 -301q-73 -83 -139 -166.5t-94 -126.5z" />
    <glyph glyph-name="uni2666" unicode="&#x2666;" horiz-adv-x="900" 
d="M817 390q-106 -83 -202.5 -188.5t-163.5 -211.5h-2q-67 106 -163.5 211.5t-202.5 188.5q106 83 202.5 188.5t163.5 211.5h2q67 -106 163.5 -211.5t202.5 -188.5z" />
    <glyph glyph-name="musicflatsign" unicode="&#x266d;" horiz-adv-x="467" 
d="M440 351q0 -68 -33.5 -133t-89 -115.5t-124.5 -88.5t-143 -59v866h65v-363q21 37 64 61t85 24q91 0 133.5 -47.5t42.5 -144.5zM115 335v-277q40 16 77 38.5t78 57t66 84t25 105.5q0 55 -24 89t-77 34q-57 0 -98.5 -41t-46.5 -90z" />
    <glyph glyph-name="musicnaturalsign" unicode="&#x266e;" horiz-adv-x="346" 
d="M50 99v731h65v-295l181 146v-731h-65v294zM115 421v-155l116 93v154z" />
    <glyph glyph-name="musicsharpsign" unicode="&#x266f;" horiz-adv-x="451" 
d="M349 880v-199l90 72v-115l-90 -72v-154l90 72v-115l-90 -72v-297h-65v244l-116 -92v-252h-65v199l-90 -72v115l90 72v154l-90 -72v115l90 72v297h65v-245l116 93v252h65zM168 421v-155l116 93v154z" />
    <glyph glyph-name="uni267B" unicode="&#x267b;" horiz-adv-x="960" 
d="M863 266l1 -2l-96 -167q-15 -22 -21.5 -30t-24 -17t-42.5 -9h-57v-49l-113 136l113 135v-49h145q26 0 50 13t34 26zM186 122h-2l-96 168q-11 21 -15 32t-3 30.5t14 40.5l28 49l-42 24l174 31l59 -166l-41 24q-70 -120 -72 -125q-13 -23 -14 -50t4 -42zM404 779v1h193
q24 -1 36 -2.5t28 -12.5t28 -32l28 -49l43 24l-61 -166l-173 31l41 24l-72 125q-13 23 -36 37.5t-39 16.5zM200 598l67 119q10 17 34 31q46 24 97 10t68 -45l-116 -201zM446 41h-135q-22 0 -44 13q-43 25 -57.5 79.5t4.5 80.5h232v-173zM806 527l69 -117q10 -18 10 -44
q1 -48 -38 -87t-74 -39l-116 201z" />
    <glyph glyph-name="uni267C" unicode="&#x267c;" horiz-adv-x="960" 
d="M880 389q0 -166 -116.5 -282.5t-282.5 -116.5q-167 0 -284 116.5t-117 282.5q0 167 117 284t284 117q166 0 282.5 -117t116.5 -284zM313 645l-52 -92l116 -67l90 156q-13 24 -52.5 34.5t-75.5 -7.5q-18 -11 -26 -24zM415 694v-1q48 -5 71 -44l56 -97l-32 -19l134 -24
l47 129l-33 -19l-22 38q-14 24 -29.5 30.5t-41.5 6.5h-150zM343 121h105v134h-180q-15 -20 -3.5 -62.5t44.5 -61.5q17 -10 34 -10zM249 184h1q-20 44 3 84l56 97l32 -19l-46 129l-135 -24l33 -19l-22 -38q-10 -16 -11 -31.5t2 -23.5t12 -25zM784 407l-53 91l-116 -67
l90 -156q27 0 57.5 30t29.5 68q0 20 -8 34zM776 294l-1 1q-3 -4 -9 -11t-25.5 -18t-39.5 -11h-112v38l-88 -105l88 -105v38h44q28 0 41.5 10.5t26.5 32.5z" />
    <glyph glyph-name="uni267D" unicode="&#x267d;" horiz-adv-x="960" 
d="M880 389q0 -166 -116.5 -282.5t-282.5 -116.5q-167 0 -284 116.5t-117 282.5q0 167 117 284t284 117q166 0 282.5 -117t116.5 -284zM860 389q0 158 -111 269.5t-268 111.5q-158 0 -269.5 -111.5t-111.5 -269.5q0 -157 111.5 -268t269.5 -111q157 0 268 111t111 268z
M261 553l52 92q8 13 26 24q36 18 75.5 7.5t52.5 -34.5l-90 -156zM415 693v1h150q26 0 41.5 -6.5t29.5 -30.5l22 -38l33 19l-47 -129l-134 24l32 19l-56 97q-10 17 -28 28t-30 13zM448 121h-105q-17 0 -34 10q-33 19 -44.5 61.5t3.5 62.5h180v-134zM250 184h-1l-75 130
q-9 17 -12 25t-2 23.5t11 31.5l22 38l-33 19l135 24l46 -129l-32 19l-56 -97q-10 -18 -11 -39t4 -33zM731 498l53 -91q8 -14 8 -34q1 -38 -29.5 -68t-57.5 -30l-90 156zM775 295l1 -1l-75 -130q-9 -15 -15 -22.5t-20 -14t-33 -6.5h-44v-38l-88 105l88 105v-38h112
q20 0 38.5 10t26.5 20z" />
    <glyph glyph-name="anglebracketleft" unicode="&#x3008;" horiz-adv-x="263" 
d="M138 345l56 -475h-98l-64 480l181 480h101z" />
    <glyph glyph-name="anglebracketright" unicode="&#x3009;" horiz-adv-x="263" 
d="M130 355l-56 475h98l64 -480l-181 -480h-101z" />
    <glyph glyph-name="Adoublegrave" unicode="&#xf000;" horiz-adv-x="726" 
d="M-27 0l398 791h98l204 -791h-106l-56 225h-318l-110 -225h-110zM490 313l-84 351l-170 -351h254zM372 1030h112l68 -208h-95zM212 1030h112l68 -208h-95z" />
    <glyph glyph-name="Anocross" unicode="&#xf001;" horiz-adv-x="726" 
d="M567 0l-161 664l-323 -664h-110l398 791h98l204 -791h-106z" />
    <glyph glyph-name="Edoublegrave" unicode="&#xf002;" horiz-adv-x="693" 
d="M135 780h537l-11 -92h-437l-30 -243h394l-11 -91h-394l-32 -262h457l-11 -92h-557zM356 1030h112l68 -208h-95zM196 1030h112l68 -208h-95z" />
    <glyph glyph-name="Gtilde" unicode="&#xf003;" horiz-adv-x="780" 
d="M61 300q0 103 24.5 191.5t72 156t124.5 106t175 38.5q131 0 199 -52t77 -143l-102 -35q-3 73 -47.5 106t-137.5 33q-76 0 -132.5 -33t-88 -90t-46 -124t-14.5 -145q0 -230 204 -230q129 0 211 50l25 198h-168l10 87h267l-42 -346q-79 -45 -148.5 -62.5t-156.5 -17.5
q-306 0 -306 312zM398 1008q30 0 53.5 -11t35.5 -25t28 -25t33 -11q45 0 58 46l76 -11q-33 -125 -152 -125q-30 0 -53.5 11t-35.5 25t-28 25t-33 11q-45 0 -58 -46l-76 11q33 125 152 125z" />
    <glyph glyph-name="Hcaron" unicode="&#xf004;" horiz-adv-x="750" 
d="M625 780h100l-95 -780h-100l43 354h-390l-43 -354h-100l95 780h100l-41 -335h390zM481 822h-92l-126 208h93l85 -127l117 127h101z" />
    <glyph glyph-name="Idoublegrave" unicode="&#xf005;" horiz-adv-x="296" 
d="M253 780l-95 -780h-100l95 780h100zM157 1030h112l68 -208h-95zM-3 1030h112l68 -208h-95z" />
    <glyph glyph-name="Kcedilla" unicode="&#xf006;" horiz-adv-x="712" 
d="M235 780l-47 -388l406 388h139l-378 -352l304 -428h-132l-247 358l-108 -100l-32 -258h-100l95 780h100zM250 -76l25 52q143 -12 143 -90q0 -48 -38 -73t-96 -25q-56 0 -89 18l23 53q24 -14 53 -14q60 0 60 34q0 36 -81 45z" />
    <glyph glyph-name="Lcedilla" unicode="&#xf007;" horiz-adv-x="589" 
d="M235 780l-84 -688h396l-11 -92h-496l95 780h100zM219 -76l25 52q143 -12 143 -90q0 -48 -38 -73t-96 -25q-56 0 -89 18l23 53q24 -14 53 -14q60 0 60 34q0 36 -81 45z" />
    <glyph glyph-name="Ngrave" unicode="&#xf008;" horiz-adv-x="754" 
d="M231 780l254 -471l70 -133l28 235l45 369h101l-95 -780h-96l-255 471l-69 133l-28 -235l-45 -369h-101l95 780h96zM311 1030h112l68 -208h-95z" />
    <glyph glyph-name="Ncedilla" unicode="&#xf009;" horiz-adv-x="754" 
d="M231 780l254 -471l70 -133l28 235l45 369h101l-95 -780h-96l-255 471l-69 133l-28 -235l-45 -369h-101l95 780h96zM266 -76l25 52q143 -12 143 -90q0 -48 -38 -73t-96 -25q-56 0 -89 18l23 53q24 -14 53 -14q60 0 60 34q0 36 -81 45z" />
    <glyph glyph-name="Odoublegrave" unicode="&#xf010;" horiz-adv-x="800" 
d="M369 79q63 0 113 23.5t80.5 61t50.5 90t28 106t8 113.5q0 228 -203 228q-63 0 -113 -23.5t-80.5 -61t-50.5 -90t-28 -106t-8 -113.5q0 -228 203 -228zM358 -12q-151 0 -224 81.5t-73 230.5q0 103 24.5 191.5t72 156t124.5 106t175 38.5q151 0 224 -81.5t73 -230.5
q0 -103 -24.5 -191.5t-72 -156t-124.5 -106t-175 -38.5zM409 1030h112l68 -208h-95zM249 1030h112l68 -208h-95z" />
    <glyph glyph-name="Ounderlineaccent" unicode="&#xf011;" horiz-adv-x="800" 
d="M369 79q63 0 113 23.5t80.5 61t50.5 90t28 106t8 113.5q0 228 -203 228q-63 0 -113 -23.5t-80.5 -61t-50.5 -90t-28 -106t-8 -113.5q0 -228 203 -228zM358 -12q-151 0 -224 81.5t-73 230.5q0 103 24.5 191.5t72 156t124.5 106t175 38.5q151 0 224 -81.5t73 -230.5
q0 -103 -24.5 -191.5t-72 -156t-124.5 -106t-175 -38.5zM370 -200h-71l20 160h71z" />
    <glyph glyph-name="Rdoublegrave" unicode="&#xf012;" horiz-adv-x="707" 
d="M180 327l-40 -327h-100l95 780h312q231 0 231 -185q0 -121 -57 -182.5t-144 -77.5l163 -335h-118l-151 327h-191zM191 419h222q29 0 51.5 4.5t50 19.5t43 50.5t15.5 89.5q0 35 -11.5 57.5t-32.5 32t-39 12.5t-44 3h-222zM343 1030h112l68 -208h-95zM183 1030h112l68 -208
h-95z" />
    <glyph glyph-name="Rcedilla" unicode="&#xf013;" horiz-adv-x="707" 
d="M180 327l-40 -327h-100l95 780h312q231 0 231 -185q0 -121 -57 -182.5t-144 -77.5l163 -335h-118l-151 327h-191zM191 419h222q29 0 51.5 4.5t50 19.5t43 50.5t15.5 89.5q0 35 -11.5 57.5t-32.5 32t-39 12.5t-44 3h-222zM243 -76l25 52q143 -12 143 -90q0 -48 -38 -73
t-96 -25q-56 0 -89 18l23 53q24 -14 53 -14q60 0 60 34q0 36 -81 45z" />
    <glyph glyph-name="Udoublegrave" unicode="&#xf014;" horiz-adv-x="772" 
d="M344 -12q-313 0 -278 294l61 498h102l-61 -499q-8 -42 -1.5 -79t24 -64t59 -43t105.5 -16q122 0 173.5 53t63.5 149l61 499h102l-61 -498q-35 -294 -350 -294zM395 1030h112l68 -208h-95zM235 1030h112l68 -208h-95z" />
    <glyph glyph-name="UE" unicode="&#xf015;" horiz-adv-x="1161" 
d="M603 780h537l-11 -92h-437l-30 -243h394l-11 -91h-394l-32 -262h457l-11 -92h-719q-315 0 -278 294l59 486h102l-59 -486q-8 -42 -1.5 -79t24 -64t59 -43t105.5 -16h162z" />
    <glyph glyph-name="Ymacron" unicode="&#xf016;" horiz-adv-x="730" 
d="M601 980l-14 -111h-112l14 111h112zM401 980l-14 -111h-112l14 111h112zM300 551l71 -141l107 141l177 229h118l-359 -456l-39 -324h-100l39 324l-247 456h112z" />
    <glyph glyph-name="Yoghcaron" unicode="&#xf017;" horiz-adv-x="714" 
d="M274 -212q-136 0 -209 53t-82 145l103 35q1 -70 53.5 -106t146.5 -36q116 0 188.5 66t72.5 190q0 84 -49 131t-149 47q-36 0 -60 -15l-56 59l220 239l89 92h-431l11 92h562l-10 -81l-281 -299q257 -19 257 -248q0 -176 -107.5 -270t-268.5 -94zM454 822h-92l-126 208h93
l85 -127l117 127h101z" />
    <glyph glyph-name="adoublegrave" unicode="&#xf018;" horiz-adv-x="616" 
d="M435 202l16 126q-1 48 -40 86.5t-104 38.5q-76 0 -125.5 -60.5t-49.5 -168.5q0 -71 34 -109t95 -38q65 0 113.5 38.5t60.5 86.5zM554 398l-32 -266l-9 -132h-87l-3 76q-30 -41 -78.5 -64.5t-103.5 -23.5q-102 0 -155.5 56.5t-53.5 161.5q0 158 75.5 247t201.5 89
q55 0 97.5 -23.5t62.5 -64.5l22 76h87zM274 800h112l68 -208h-95zM114 800h112l68 -208h-95z" />
    <glyph glyph-name="a.hist" unicode="&#xf019;" horiz-adv-x="616" 
d="M435 202l16 126q-1 48 -40 86.5t-104 38.5q-76 0 -125.5 -60.5t-49.5 -168.5q0 -71 34 -109t95 -38q65 0 113.5 38.5t60.5 86.5zM554 398l-32 -266l-9 -132h-87l-3 76q-30 -41 -78.5 -64.5t-103.5 -23.5q-102 0 -155.5 56.5t-53.5 161.5q0 158 75.5 247t201.5 89
q55 0 97.5 -23.5t62.5 -64.5l22 76h87z" />
    <glyph glyph-name="aacute.hist" unicode="&#xf020;" horiz-adv-x="616" 
d="M435 202l16 126q-1 48 -40 86.5t-104 38.5q-76 0 -125.5 -60.5t-49.5 -168.5q0 -71 34 -109t95 -38q65 0 113.5 38.5t60.5 86.5zM554 398l-32 -266l-9 -132h-87l-3 76q-30 -41 -78.5 -64.5t-103.5 -23.5q-102 0 -155.5 56.5t-53.5 161.5q0 158 75.5 247t201.5 89
q55 0 97.5 -23.5t62.5 -64.5l22 76h87zM398 800h112l-137 -208h-95z" />
    <glyph glyph-name="agrave.hist" unicode="&#xf021;" horiz-adv-x="616" 
d="M199 800h112l68 -208h-95zM435 202l16 126q-1 48 -40 86.5t-104 38.5q-76 0 -125.5 -60.5t-49.5 -168.5q0 -71 34 -109t95 -38q65 0 113.5 38.5t60.5 86.5zM554 398l-32 -266l-9 -132h-87l-3 76q-30 -41 -78.5 -64.5t-103.5 -23.5q-102 0 -155.5 56.5t-53.5 161.5
q0 158 75.5 247t201.5 89q55 0 97.5 -23.5t62.5 -64.5l22 76h87z" />
    <glyph glyph-name="acircumflex.hist" unicode="&#xf022;" horiz-adv-x="616" 
d="M435 202l16 126q-1 48 -40 86.5t-104 38.5q-76 0 -125.5 -60.5t-49.5 -168.5q0 -71 34 -109t95 -38q65 0 113.5 38.5t60.5 86.5zM554 398l-32 -266l-9 -132h-87l-3 76q-30 -41 -78.5 -64.5t-103.5 -23.5q-102 0 -155.5 56.5t-53.5 161.5q0 158 75.5 247t201.5 89
q55 0 97.5 -23.5t62.5 -64.5l22 76h87zM305 800h92l126 -208h-93l-85 127l-117 -127h-101z" />
    <glyph glyph-name="adieresis.hist" unicode="&#xf023;" horiz-adv-x="616" 
d="M301 750l-14 -111h-112l14 111h112zM501 750l-14 -111h-112l14 111h112zM435 202l16 126q-1 48 -40 86.5t-104 38.5q-76 0 -125.5 -60.5t-49.5 -168.5q0 -71 34 -109t95 -38q65 0 113.5 38.5t60.5 86.5zM554 398l-32 -266l-9 -132h-87l-3 76q-30 -41 -78.5 -64.5
t-103.5 -23.5q-102 0 -155.5 56.5t-53.5 161.5q0 158 75.5 247t201.5 89q55 0 97.5 -23.5t62.5 -64.5l22 76h87z" />
    <glyph glyph-name="atilde.hist" unicode="&#xf024;" horiz-adv-x="616" 
d="M435 202l16 126q-1 48 -40 86.5t-104 38.5q-76 0 -125.5 -60.5t-49.5 -168.5q0 -71 34 -109t95 -38q65 0 113.5 38.5t60.5 86.5zM554 398l-32 -266l-9 -132h-87l-3 76q-30 -41 -78.5 -64.5t-103.5 -23.5q-102 0 -155.5 56.5t-53.5 161.5q0 158 75.5 247t201.5 89
q55 0 97.5 -23.5t62.5 -64.5l22 76h87zM272 778q30 0 53.5 -11t35.5 -25t28 -25t33 -11q45 0 58 46l76 -11q-33 -125 -152 -125q-30 0 -53.5 11t-35.5 25t-28 25t-33 11q-45 0 -58 -46l-76 11q33 125 152 125z" />
    <glyph glyph-name="aring.hist" unicode="&#xf025;" horiz-adv-x="616" 
d="M435 202l16 126q-1 48 -40 86.5t-104 38.5q-76 0 -125.5 -60.5t-49.5 -168.5q0 -71 34 -109t95 -38q65 0 113.5 38.5t60.5 86.5zM554 398l-32 -266l-9 -132h-87l-3 76q-30 -41 -78.5 -64.5t-103.5 -23.5q-102 0 -155.5 56.5t-53.5 161.5q0 158 75.5 247t201.5 89
q55 0 97.5 -23.5t62.5 -64.5l22 76h87zM332 648q23 0 38 15.5t15 40.5q0 40 -41 40q-23 0 -38 -15.5t-15 -40.5q0 -40 41 -40zM324 580q-48 0 -75.5 27t-27.5 72q0 57 36.5 95t94.5 38q48 0 75.5 -27t27.5 -72q0 -57 -36.5 -95t-94.5 -38z" />
    <glyph glyph-name="acaron.hist" unicode="&#xf026;" horiz-adv-x="616" 
d="M435 202l16 126q-1 48 -40 86.5t-104 38.5q-76 0 -125.5 -60.5t-49.5 -168.5q0 -71 34 -109t95 -38q65 0 113.5 38.5t60.5 86.5zM554 398l-32 -266l-9 -132h-87l-3 76q-30 -41 -78.5 -64.5t-103.5 -23.5q-102 0 -155.5 56.5t-53.5 161.5q0 158 75.5 247t201.5 89
q55 0 97.5 -23.5t62.5 -64.5l22 76h87zM371 592h-92l-126 208h93l85 -127l117 127h101z" />
    <glyph glyph-name="amacron.hist" unicode="&#xf027;" horiz-adv-x="616" 
d="M477 652h-288l11 90h288zM435 202l16 126q-1 48 -40 86.5t-104 38.5q-76 0 -125.5 -60.5t-49.5 -168.5q0 -71 34 -109t95 -38q65 0 113.5 38.5t60.5 86.5zM554 398l-32 -266l-9 -132h-87l-3 76q-30 -41 -78.5 -64.5t-103.5 -23.5q-102 0 -155.5 56.5t-53.5 161.5
q0 158 75.5 247t201.5 89q55 0 97.5 -23.5t62.5 -64.5l22 76h87z" />
    <glyph glyph-name="abreve.hist" unicode="&#xf028;" horiz-adv-x="616" 
d="M435 202l16 126q-1 48 -40 86.5t-104 38.5q-76 0 -125.5 -60.5t-49.5 -168.5q0 -71 34 -109t95 -38q65 0 113.5 38.5t60.5 86.5zM554 398l-32 -266l-9 -132h-87l-3 76q-30 -41 -78.5 -64.5t-103.5 -23.5q-102 0 -155.5 56.5t-53.5 161.5q0 158 75.5 247t201.5 89
q55 0 97.5 -23.5t62.5 -64.5l22 76h87zM326 595q-102 0 -138.5 51.5t-23.5 153.5h76q-9 -66 13 -93.5t81 -27.5t88 27.5t36 93.5h80q-12 -102 -61 -153.5t-151 -51.5z" />
    <glyph glyph-name="ainvertedbreve.hist" unicode="&#xf029;" horiz-adv-x="616" 
d="M435 202l16 126q-1 48 -40 86.5t-104 38.5q-76 0 -125.5 -60.5t-49.5 -168.5q0 -71 34 -109t95 -38q65 0 113.5 38.5t60.5 86.5zM554 398l-32 -266l-9 -132h-87l-3 76q-30 -41 -78.5 -64.5t-103.5 -23.5q-102 0 -155.5 56.5t-53.5 161.5q0 158 75.5 247t201.5 89
q55 0 97.5 -23.5t62.5 -64.5l22 76h87zM350 797q102 0 138.5 -51.5t23.5 -153.5h-76q9 66 -13 93.5t-81 27.5t-88 -27.5t-36 -93.5h-80q12 102 61 153.5t151 51.5z" />
    <glyph glyph-name="adoublegrave.hist" unicode="&#xf030;" horiz-adv-x="616" 
d="M435 202l16 126q-1 48 -40 86.5t-104 38.5q-76 0 -125.5 -60.5t-49.5 -168.5q0 -71 34 -109t95 -38q65 0 113.5 38.5t60.5 86.5zM554 398l-32 -266l-9 -132h-87l-3 76q-30 -41 -78.5 -64.5t-103.5 -23.5q-102 0 -155.5 56.5t-53.5 161.5q0 158 75.5 247t201.5 89
q55 0 97.5 -23.5t62.5 -64.5l22 76h87zM274 800h112l68 -208h-95zM114 800h112l68 -208h-95z" />
    <glyph glyph-name="aringacute.hist" unicode="&#xf031;" horiz-adv-x="616" 
d="M435 202l16 126q-1 48 -40 86.5t-104 38.5q-76 0 -125.5 -60.5t-49.5 -168.5q0 -71 34 -109t95 -38q65 0 113.5 38.5t60.5 86.5zM554 398l-32 -266l-9 -132h-87l-3 76q-30 -41 -78.5 -64.5t-103.5 -23.5q-102 0 -155.5 56.5t-53.5 161.5q0 158 75.5 247t201.5 89
q55 0 97.5 -23.5t62.5 -64.5l22 76h87zM335 904h96l-71 -93q46 -2 70.5 -28.5t24.5 -68.5q0 -58 -36 -96t-95 -38q-48 0 -75 27t-27 71q0 42 24 81zM344 744q-23 0 -38 -16t-15 -39q0 -19 11 -30.5t30 -11.5q24 0 39 16t15 41q0 18 -11.5 29t-30.5 11z" />
    <glyph glyph-name="aogonek.hist" unicode="&#xf032;" horiz-adv-x="616" 
d="M554 398l-32 -266l-9 -132q-55 -7 -97 -38.5t-42 -67.5q0 -33 41 -33q34 0 68 17q4 1 4 2l14 -67q-44 -25 -106 -25q-46 0 -75.5 21.5t-29.5 65.5q0 48 36 90.5t98 70.5l-1 40q-30 -41 -78.5 -64.5t-103.5 -23.5q-102 0 -155.5 56.5t-53.5 161.5q0 158 75.5 247t201.5 89
q55 0 97.5 -23.5t62.5 -64.5l22 76h87zM435 202l16 126q-1 48 -40 86.5t-104 38.5q-76 0 -125.5 -60.5t-49.5 -168.5q0 -71 34 -109t95 -38q65 0 113.5 38.5t60.5 86.5z" />
    <glyph glyph-name="edoublegrave" unicode="&#xf033;" horiz-adv-x="582" 
d="M521 226h-390q-4 -76 31.5 -115t103.5 -39q62 0 95.5 21t47.5 63l92 -32q-23 -61 -83.5 -98.5t-160.5 -37.5q-107 0 -166 56t-59 165q0 160 80.5 246.5t209.5 86.5q208 0 208 -213q0 -45 -9 -103zM313 459q-67 0 -111.5 -38t-59.5 -114h286q9 70 -19.5 111t-95.5 41z
M277 800h112l68 -208h-95zM117 800h112l68 -208h-95z" />
    <glyph glyph-name="gtilde" unicode="&#xf034;" horiz-adv-x="611" 
d="M554 398l-50 -410q-12 -97 -87 -148.5t-191 -51.5q-113 0 -164 36t-57 102l102 35q2 -44 29 -67t91 -23q169 0 182 113l13 111q-30 -38 -77 -60.5t-102 -22.5q-99 0 -153.5 53.5t-54.5 157.5q0 154 75.5 236.5t197.5 82.5q57 0 99 -23.5t62 -64.5l22 76h87zM438 226
l13 102q-2 48 -40.5 86.5t-102.5 38.5q-77 0 -124.5 -53.5t-47.5 -162.5q0 -136 129 -136q64 0 112 38.5t61 86.5zM271 778q30 0 53.5 -11t35.5 -25t28 -25t33 -11q45 0 58 46l76 -11q-33 -125 -152 -125q-30 0 -53.5 11t-35.5 25t-28 25t-33 11q-45 0 -58 -46l-76 11
q33 125 152 125z" />
    <glyph glyph-name="hcaron" unicode="&#xf035;" horiz-adv-x="585" 
d="M216 800l-42 -342q68 84 178 84q91 0 141.5 -47t40.5 -132l-44 -363h-96l42 346q7 51 -23 79t-86 28q-61 0 -109 -39.5t-60 -85.5l-40 -328h-95l98 800h95zM218 822h-92l-126 208h93l85 -127l117 127h101z" />
    <glyph glyph-name="idoublegrave" unicode="&#xf036;" horiz-adv-x="258" 
d="M41 0l65 530h96l-65 -530h-96zM110 800h112l68 -208h-95zM-50 800h112l68 -208h-95z" />
    <glyph glyph-name="idotaccent" unicode="&#xf037;" horiz-adv-x="258" 
d="M41 0l65 530h96l-65 -530h-96zM237 750l-14 -111h-112l14 111h112z" />
    <glyph glyph-name="kcedilla" unicode="&#xf038;" horiz-adv-x="561" 
d="M118 0h-95l98 800h95l-63 -514l103 96l165 148h129l-257 -228l225 -302h-124l-176 240l-79 -68zM181 -76l25 52q143 -12 143 -90q0 -48 -38 -73t-96 -25q-56 0 -89 18l23 53q24 -14 53 -14q60 0 60 34q0 36 -81 45z" />
    <glyph glyph-name="lcedilla" unicode="&#xf039;" horiz-adv-x="258" 
d="M41 0l98 800h96l-98 -800h-96zM20 -76l25 52q143 -12 143 -90q0 -48 -38 -73t-96 -25q-56 0 -89 18l23 53q24 -14 53 -14q60 0 60 34q0 36 -81 45z" />
    <glyph glyph-name="ngrave" unicode="&#xf040;" horiz-adv-x="587" 
d="M170 530l2 -75q32 40 80 63.5t102 23.5q91 0 141.5 -47t40.5 -132l-44 -363h-96l42 346q7 51 -23 79t-86 28q-61 0 -109 -39.5t-60 -85.5l-40 -328h-95l48 399l10 131h87zM205 800h112l68 -208h-95z" />
    <glyph glyph-name="ncedilla" unicode="&#xf041;" horiz-adv-x="587" 
d="M170 530l2 -75q32 40 80 63.5t102 23.5q91 0 141.5 -47t40.5 -132l-44 -363h-96l42 346q7 51 -23 79t-86 28q-61 0 -109 -39.5t-60 -85.5l-40 -328h-95l48 399l10 131h87zM193 -76l25 52q143 -12 143 -90q0 -48 -38 -73t-96 -25q-56 0 -89 18l23 53q24 -14 53 -14
q60 0 60 34q0 36 -81 45z" />
    <glyph glyph-name="odoublegrave" unicode="&#xf042;" horiz-adv-x="590" 
d="M264 74q79 0 129.5 59t50.5 177q0 146 -134 146q-79 0 -129.5 -59t-50.5 -177q0 -146 134 -146zM253 -12q-105 0 -162.5 56t-57.5 164q0 162 80 248t208 86q105 0 162.5 -56t57.5 -164q0 -162 -80 -248t-208 -86zM276 800h112l68 -208h-95zM116 800h112l68 -208h-95z" />
    <glyph glyph-name="ounderlineaccent" unicode="&#xf043;" horiz-adv-x="590" 
d="M264 74q79 0 129.5 59t50.5 177q0 146 -134 146q-79 0 -129.5 -59t-50.5 -177q0 -146 134 -146zM253 -12q-105 0 -162.5 56t-57.5 164q0 162 80 248t208 86q105 0 162.5 -56t57.5 -164q0 -162 -80 -248t-208 -86zM265 -200h-71l20 160h71z" />
    <glyph glyph-name="rdoublegrave" unicode="&#xf044;" horiz-adv-x="414" 
d="M341 450q-65 0 -116 -38.5t-66 -86.5l-39 -325h-95l48 399l10 131h87l3 -81q28 41 75.5 67t100.5 26q45 0 70 -11l-21 -93q-19 12 -57 12zM203 800h112l68 -208h-95zM43 800h112l68 -208h-95z" />
    <glyph glyph-name="rcedilla" unicode="&#xf045;" horiz-adv-x="414" 
d="M341 450q-65 0 -116 -38.5t-66 -86.5l-39 -325h-95l48 399l10 131h87l3 -81q28 41 75.5 67t100.5 26q45 0 70 -11l-21 -93q-19 12 -57 12zM9 -76l25 52q143 -12 143 -90q0 -48 -38 -73t-96 -25q-56 0 -89 18l23 53q24 -14 53 -14q60 0 60 34q0 36 -81 45z" />
    <glyph glyph-name="udoublegrave" unicode="&#xf046;" horiz-adv-x="587" 
d="M403 0l-3 75q-32 -40 -80 -63.5t-102 -23.5q-91 0 -141.5 47t-40.5 132l45 363h96l-43 -346q-7 -51 23 -79t86 -28q61 0 109.5 40t59.5 85l41 328h95l-49 -399l-9 -131h-87zM269 800h112l68 -208h-95zM109 800h112l68 -208h-95z" />
    <glyph glyph-name="ue" unicode="&#xf047;" horiz-adv-x="966" 
d="M706 542q208 0 208 -213q0 -45 -9 -103h-390q-4 -76 31.5 -115t103.5 -39q62 0 95.5 21t47.5 63l92 -32q-23 -61 -83.5 -98.5t-160.5 -37.5q-150 0 -201 105q-41 -56 -101 -80.5t-121 -24.5q-91 0 -141.5 47t-40.5 132l45 363h96l-43 -346q-7 -51 23 -79t86 -28
q61 0 109.5 40t59.5 85l8 63q17 136 92.5 206.5t193.5 70.5zM697 459q-67 0 -111.5 -38t-59.5 -114h286q9 70 -19.5 111t-95.5 41z" />
    <glyph glyph-name="ymacron" unicode="&#xf048;" horiz-adv-x="562" 
d="M575 530l-276 -495l-125 -235h-110l130 226l-157 504h107l75 -274l36 -131l67 131l144 274h109zM465 652h-288l11 90h288z" />
    <glyph glyph-name="yoghcaron" unicode="&#xf049;" horiz-adv-x="566" 
d="M208 -211q-215 0 -228 152l99 34q2 -47 34.5 -74.5t101.5 -27.5q83 0 133 46.5t50 129.5q0 59 -37.5 91.5t-103.5 32.5q-60 0 -107 -30l-40 59l276 243h-322l11 85h457l-9 -73l-237 -208q86 12 146 -41t60 -149q0 -128 -83.5 -199t-200.5 -71zM352 592h-92l-126 208h93
l85 -127l117 127h101z" />
    <glyph glyph-name="cordinal" unicode="&#xf050;" horiz-adv-x="451" 
d="M73 545q0 111 58.5 179t158.5 68q149 0 161 -112l-87 -30q-3 31 -21 47.5t-59 16.5q-55 0 -90 -41t-35 -116q0 -48 23.5 -74.5t65.5 -26.5q43 0 66 16t34 48l80 -28q-40 -114 -189 -114q-80 0 -123 43t-43 124z" />
    <glyph glyph-name="a.superior" unicode="&#xf051;" horiz-adv-x="425" 
d="M243 659q-43 0 -69.5 -34t-26.5 -89q0 -40 19 -60.5t52 -20.5q34 0 60 19t34 43l10 80q-2 25 -23.5 43.5t-55.5 18.5zM405 636l-20 -157l-6 -89h-71l-3 40q-16 -21 -46.5 -35t-61.5 -14q-65 0 -98.5 35.5t-33.5 102.5q0 102 47.5 158t128.5 56q31 0 58 -13.5t38 -34.5
l12 39h71z" />
    <glyph glyph-name="b.superior" unicode="&#xf052;" horiz-adv-x="425" 
d="M205 895l-25 -204q40 42 104 42q65 0 99 -35.5t34 -102.5q0 -101 -48 -157.5t-129 -56.5q-30 0 -57.5 14t-39.5 35l-12 -40h-71l16 89l51 416h78zM237 455q42 0 69 34t27 89q0 40 -19 60.5t-52 20.5q-34 0 -60 -19t-33 -43l-10 -80q2 -24 23 -43t55 -19z" />
    <glyph glyph-name="c.superior" unicode="&#xf053;" horiz-adv-x="386" 
d="M244 661q-46 0 -73 -34t-27 -92q0 -39 18.5 -60t51.5 -21q63 0 78 49l74 -26q-35 -96 -161 -96q-67 0 -103.5 36.5t-36.5 104.5q0 99 51 155t133 56q124 0 136 -95l-79 -27q-5 50 -62 50z" />
    <glyph glyph-name="d.superior" unicode="&#xf054;" horiz-adv-x="425" 
d="M333 691l25 204h78l-51 -416l-6 -89h-71l-3 40q-16 -21 -46.5 -35t-61.5 -14q-65 0 -98.5 35.5t-33.5 102.5q0 102 47.5 158t128.5 56q62 0 92 -42zM243 659q-43 0 -69.5 -34t-26.5 -89q0 -40 19 -60.5t52 -20.5q34 0 60 19t34 43l10 80q-2 25 -23.5 43.5t-55.5 18.5z
" />
    <glyph glyph-name="e.superior" unicode="&#xf055;" horiz-adv-x="401" 
d="M382 527h-237q0 -77 74 -77q62 0 77 44l73 -26q-34 -87 -158 -87q-70 0 -108 36.5t-38 105.5q0 100 51.5 155t134.5 55q68 0 103 -35.5t35 -102.5q0 -29 -7 -68zM243 665q-75 0 -89 -75h152q5 35 -11.5 55t-51.5 20z" />
    <glyph glyph-name="f.superior" unicode="&#xf056;" horiz-adv-x="277" 
d="M65 655l8 69h66l6 47q7 60 39 96t105 36q35 0 53 -9l-16 -74q-19 11 -44 11q-28 -1 -41 -14t-17 -50l-6 -43h91l-8 -69h-91l-48 -390h-79l48 390h-66z" />
    <glyph glyph-name="g.superior" unicode="&#xf057;" horiz-adv-x="425" 
d="M296 383l7 58q-40 -42 -104 -42q-133 0 -133 131q0 100 47 151.5t128 51.5q32 0 58.5 -13.5t37.5 -34.5l12 39h71l-15 -88l-31 -252q-8 -63 -56 -95.5t-123 -32.5q-136 0 -145 87l83 28q0 -46 62 -46q94 0 101 58zM243 659q-44 0 -69.5 -29.5t-25.5 -83.5q0 -74 72 -74
q34 0 60 19t34 44l8 62q-2 25 -23.5 43.5t-55.5 18.5z" />
    <glyph glyph-name="h.superior" unicode="&#xf058;" horiz-adv-x="417" 
d="M127 895h78l-25 -207q45 45 108 45q59 0 90 -30t24 -87l-28 -226h-79l27 214q3 28 -12 41.5t-45 13.5q-33 0 -60 -19t-36 -43l-26 -207h-78z" />
    <glyph glyph-name="i.superior" unicode="&#xf059;" horiz-adv-x="227" 
d="M223 871l-10 -87h-87l10 87h87zM81 390l41 334h79l-41 -334h-79z" />
    <glyph glyph-name="j.superior" unicode="&#xf060;" horiz-adv-x="227" 
d="M223 871l-10 -87h-87l10 87h87zM82 392l40 332h79l-41 -336q-7 -60 -39 -96t-105 -36q-35 0 -53 9l17 73q25 -11 44 -10q27 1 40 14t18 50z" />
    <glyph glyph-name="k.superior" unicode="&#xf061;" horiz-adv-x="392" 
d="M142 390h-77l62 504h77l-37 -301l147 131h106l-166 -145l143 -189h-101l-101 141l-40 -35z" />
    <glyph glyph-name="l.superior" unicode="&#xf062;" horiz-adv-x="227" 
d="M81 390l62 505h79l-62 -505h-79z" />
    <glyph glyph-name="m.superior" unicode="&#xf063;" horiz-adv-x="595" 
d="M172 724l2 -41q42 50 101 50q69 0 90 -52q43 52 111 52q57 0 83.5 -31.5t19.5 -88.5l-28 -223h-78l27 216q3 27 -9.5 40.5t-39.5 12.5q-27 0 -48 -18.5t-30 -43.5l-26 -207h-78l27 216q3 27 -10 40.5t-40 12.5q-26 0 -47 -18.5t-31 -43.5l-26 -207h-77l31 246l5 88h71z
" />
    <glyph glyph-name="n.superior" unicode="&#xf064;" horiz-adv-x="416" 
d="M172 724l2 -41q20 22 51 36t62 14q59 0 90 -30t24 -87l-28 -226h-78l27 214q3 28 -13 41.5t-46 13.5q-33 0 -59.5 -19t-35.5 -43l-26 -207h-77l31 246l5 88h71z" />
    <glyph glyph-name="o.superior" unicode="&#xf065;" horiz-adv-x="403" 
d="M243 660q-43 0 -70 -31.5t-27 -96.5q0 -77 71 -77q42 0 69 31t27 97q0 77 -70 77zM208 381q-68 0 -105.5 36t-37.5 106q0 100 52 155t135 55q68 0 105 -36t37 -105q0 -101 -51.5 -156t-134.5 -55z" />
    <glyph glyph-name="p.superior" unicode="&#xf066;" horiz-adv-x="425" 
d="M148 424l-20 -160h-78l46 372l5 88h71l3 -39q16 21 47 34.5t62 13.5q65 0 99 -35.5t34 -102.5q0 -101 -48 -157.5t-129 -56.5q-64 0 -92 43zM237 455q42 0 69 34t27 89q0 40 -19 60.5t-52 20.5q-34 0 -60 -19t-33 -43l-10 -80q2 -24 23 -43t55 -19z" />
    <glyph glyph-name="q.superior" unicode="&#xf067;" horiz-adv-x="425" 
d="M281 264l20 160q-41 -43 -104 -43q-65 0 -98.5 35.5t-33.5 102.5q0 102 47.5 158t128.5 56q31 0 58 -13.5t38 -34.5l12 39h71l-15 -88l-46 -372h-78zM243 659q-43 0 -69.5 -34t-26.5 -89q0 -40 19 -60.5t52 -20.5q34 0 60 19t34 43l10 80q-2 25 -23.5 43.5t-55.5 18.5z
" />
    <glyph glyph-name="r.superior" unicode="&#xf068;" horiz-adv-x="294" 
d="M277 733q33 0 51 -9l-16 -76q-14 9 -43 9q-34 0 -63 -19.5t-39 -44.5l-25 -203h-77l31 246l5 88h71l3 -40q39 49 102 49z" />
    <glyph glyph-name="s.superior" unicode="&#xf069;" horiz-adv-x="365" 
d="M196 449q79 2 79 48q0 19 -31.5 26t-68.5 7.5t-68.5 19.5t-31.5 59q0 44 26.5 73.5t60 40t70.5 10.5q122 0 133 -87l-80 -27q-2 46 -58 46q-67 0 -67 -43q0 -15 20.5 -21t49.5 -7.5t58 -6.5t49.5 -24t20.5 -53q0 -66 -51 -97.5t-120 -31.5q-126 0 -136 89l81 28
q3 -49 64 -49z" />
    <glyph glyph-name="t.superior" unicode="&#xf070;" horiz-adv-x="287" 
d="M57 655l8 69h60l11 88l80 13l-13 -101h98l-8 -69h-98l-17 -137q-4 -37 5.5 -49.5t36.5 -13.5q22 -2 49 10l-2 -74q-26 -10 -56 -10q-129 0 -111 133l17 141h-60z" />
    <glyph glyph-name="u.superior" unicode="&#xf071;" horiz-adv-x="416" 
d="M299 390l-1 42q-20 -23 -51 -37t-62 -14q-60 0 -90.5 30t-23.5 88l27 225h79l-26 -214q-7 -55 57 -55q32 0 59.5 19.5t36.5 42.5l25 207h77l-30 -246l-5 -88h-72z" />
    <glyph glyph-name="v.superior" unicode="&#xf072;" horiz-adv-x="376" 
d="M230 381h-71l-97 343h84l40 -163l19 -82l38 82l81 163h86z" />
    <glyph glyph-name="w.superior" unicode="&#xf073;" horiz-adv-x="534" 
d="M274 724h79l33 -149l15 -73l24 73l49 149h85l-126 -343h-79l-36 170l-15 72l-33 -72l-78 -170h-80l-41 343h84l12 -149l5 -73l34 73z" />
    <glyph glyph-name="x.superior" unicode="&#xf074;" horiz-adv-x="384" 
d="M243 452l-29 51l-42 -51l-53 -62h-98l116 132l36 41l-24 37l-79 124h95l37 -62l25 -43l35 43l51 62h96l-109 -124l-31 -37l26 -41l82 -132h-96z" />
    <glyph glyph-name="y.superior" unicode="&#xf075;" horiz-adv-x="379" 
d="M147 724l43 -153l21 -78l39 78l79 153h86l-172 -311l-79 -149h-90l84 147l-98 313h87z" />
    <glyph glyph-name="z.superior" unicode="&#xf076;" horiz-adv-x="371" 
d="M373 663l-218 -203h200l-9 -70h-307l7 61l218 203h-180l8 70h288z" />
    <glyph glyph-name="caronSlovak" unicode="&#xf078;" 
d="M358 800h108l-95 -208h-86z" />
    <glyph glyph-name="altcedilla" unicode="&#xf079;" 
d="M189 -76l25 52q143 -12 143 -90q0 -48 -38 -73t-96 -25q-56 0 -89 18l23 53q24 -14 53 -14q60 0 60 34q0 36 -81 45z" />
    <glyph glyph-name="acute.cap" unicode="&#xf080;" 
d="M433 1030h112l-137 -208h-95z" />
    <glyph glyph-name="grave.cap" unicode="&#xf081;" 
d="M234 1030h112l68 -208h-95z" />
    <glyph glyph-name="circumflex.cap" unicode="&#xf082;" 
d="M340 1030h92l126 -208h-93l-85 127l-117 -127h-101z" />
    <glyph glyph-name="dieresis.cap" unicode="&#xf083;" 
d="M336 980l-14 -111h-112l14 111h112zM536 980l-14 -111h-112l14 111h112z" />
    <glyph glyph-name="tilde.cap" unicode="&#xf084;" 
d="M307 1008q30 0 53.5 -11t35.5 -25t28 -25t33 -11q45 0 58 46l76 -11q-33 -125 -152 -125q-30 0 -53.5 11t-35.5 25t-28 25t-33 11q-45 0 -58 -46l-76 11q33 125 152 125z" />
    <glyph glyph-name="ring.cap" unicode="&#xf085;" 
d="M367 878q23 0 38 15.5t15 40.5q0 40 -41 40q-23 0 -38 -15.5t-15 -40.5q0 -40 41 -40zM359 810q-49 0 -76 27t-27 72q0 57 36.5 95t94.5 38q49 0 76 -27t27 -72q0 -57 -36.5 -95t-94.5 -38z" />
    <glyph glyph-name="caron.cap" unicode="&#xf086;" 
d="M406 822h-92l-126 208h93l85 -127l117 127h101z" />
    <glyph glyph-name="macron.cap" unicode="&#xf087;" 
d="M512 882h-288l11 90h288z" />
    <glyph glyph-name="breve.cap" unicode="&#xf088;" 
d="M361 825q-102 0 -138.5 51.5t-23.5 153.5h76q-9 -66 13 -93.5t81 -27.5t88 27.5t36 93.5h80q-12 -102 -61 -153.5t-151 -51.5z" />
    <glyph glyph-name="invertedbreve.cap" unicode="&#xf089;" 
d="M385 1027q102 0 138.5 -51.5t23.5 -153.5h-76q9 66 -13 93.5t-81 27.5t-88 -27.5t-36 -93.5h-80q12 102 61 153.5t151 51.5z" />
    <glyph glyph-name="hungarumlaut.cap" unicode="&#xf090;" 
d="M351 1030h112l-137 -208h-95zM511 1030h112l-137 -208h-95z" />
    <glyph glyph-name="doublegrave.cap" unicode="&#xf091;" 
d="M309 1030h112l68 -208h-95zM149 1030h112l68 -208h-95z" />
    <glyph glyph-name="dotaccent.cap" unicode="&#xf092;" 
d="M436 980l-14 -111h-112l14 111h112z" />
    <glyph glyph-name="exclamdown.cap" unicode="&#xf093;" horiz-adv-x="264" 
d="M118 669l13 111h112l-13 -111h-112zM154 0h-124l99 575h65z" />
    <glyph glyph-name="questiondown.cap" unicode="&#xf094;" horiz-adv-x="606" 
d="M341 575h72q9 -43 9 -75q0 -49 -24 -85.5t-44 -48.5t-60 -30q-5 -3 -8 -4q-27 -12 -40 -18.5t-35.5 -21.5t-34 -29t-20.5 -36.5t-9 -48.5q0 -99 129 -99q72 0 115.5 30t63.5 98l92 -32q-60 -187 -282 -187q-103 0 -163 47t-60 133q0 33 8.5 62.5t17.5 49.5t30.5 40.5
t32.5 30t39 24t33.5 16.5t33.5 13q5 2 7 3q53 21 76.5 47.5t23.5 78.5q0 19 -3 42zM319 669l13 111h112l-13 -111h-112z" />
    <glyph glyph-name="interrobangdown" unicode="&#xf095;" horiz-adv-x="558" 
d="M384 530l-14 -111h-112l14 111h112zM410 6l93 -32q-60 -186 -279 -186q-111 0 -172 52t-49 146q3 26 11 48t17.5 38.5t25 31t27 23.5t30.5 19t29.5 14.5t29.5 12t24 9.5q39 17 52 25l21 116h65l-31 -435q80 22 106 118zM106 -14q-11 -89 86 -104l39 219q-8 -3 -21 -8.5
t-18 -7.5q-78 -35 -86 -99z" />
    <glyph glyph-name="interrobangdown.cap" unicode="&#xf096;" horiz-adv-x="606" 
d="M245 407q31 13 46 22l25 146h65l-34 -487q83 24 108 119l93 -31q-61 -188 -283 -188q-103 0 -163 46.5t-60 132.5q0 45 14 82.5t34 61.5t48 43t50 29.5t46 19.5q8 3 11 4zM274 327q-127 -52 -127 -148q0 -81 85 -96zM305 669l13 111h112l-13 -111h-112z" />
    <glyph glyph-name="reversequoteleft" unicode="&#xf097;" horiz-adv-x="172" 
d="M45 780h114l2 -250h-63z" />
    <glyph glyph-name="reversequotedblleft" unicode="&#xf098;" horiz-adv-x="343" 
d="M45 780h115l1 -250h-63zM216 780h114l2 -250h-63z" />
    <glyph glyph-name="guilsinglleft.cap" unicode="&#xf099;" horiz-adv-x="300" 
d="M245 279l-10 -73l-190 141l10 86l226 141l-10 -81l-136 -107z" />
    <glyph glyph-name="guilsinglright.cap" unicode="&#xf100;" horiz-adv-x="300" 
d="M71 501l10 73l190 -141l-10 -86l-226 -141l10 81l136 107z" />
    <glyph glyph-name="guillemotleft.cap" unicode="&#xf101;" horiz-adv-x="520" 
d="M245 279l-10 -73l-190 141l10 86l226 141l-10 -81l-136 -107zM465 279l-10 -73l-190 141l10 86l226 141l-10 -81l-136 -107z" />
    <glyph glyph-name="guillemotright.cap" unicode="&#xf102;" horiz-adv-x="520" 
d="M291 501l10 73l190 -141l-10 -86l-226 -141l10 81l136 107zM71 501l10 73l190 -141l-10 -86l-226 -141l10 81l136 107z" />
    <glyph glyph-name="onethirdemdash" unicode="&#xf104;" horiz-adv-x="333" 
d="M289 380l-11 -90h-233l11 90h233z" />
    <glyph glyph-name="threequarteremdash" unicode="&#xf105;" horiz-adv-x="750" 
d="M706 380l-11 -90h-650l11 90h650z" />
    <glyph glyph-name="periodcentered.cap" unicode="&#xf106;" horiz-adv-x="240" 
d="M190 446l-13 -111h-112l13 111h112z" />
    <glyph glyph-name="hyphen.cap" unicode="&#xf107;" horiz-adv-x="360" 
d="M312 345h-260l11 90h260z" />
    <glyph glyph-name="onethirdemdash.cap" unicode="&#xf108;" horiz-adv-x="333" 
d="M296 435l-11 -90h-233l11 90h233z" />
    <glyph glyph-name="endash.cap" unicode="&#xf109;" horiz-adv-x="500" 
d="M452 345h-400l11 90h400z" />
    <glyph glyph-name="threequarteremdash.cap" unicode="&#xf110;" horiz-adv-x="750" 
d="M713 435l-11 -90h-650l11 90h650z" />
    <glyph glyph-name="emdash.cap" unicode="&#xf111;" horiz-adv-x="1000" 
d="M963 435l-11 -90h-900l11 90h900z" />
    <glyph glyph-name="figuredash.cap" unicode="&#xf112;" horiz-adv-x="700" 
d="M663 435l-11 -90h-600l11 90h600z" />
    <glyph glyph-name="parenleft.cap" unicode="&#xf113;" horiz-adv-x="263" 
d="M315 870q-172 -290 -172 -629q0 -170 55 -331h-95q-61 130 -61 337q-4 154 51 341.5t127 281.5h95z" />
    <glyph glyph-name="parenright.cap" unicode="&#xf114;" horiz-adv-x="263" 
d="M-39 -90q172 290 172 629q0 170 -55 331h95q61 -130 61 -337q4 -154 -51 -341.5t-127 -281.5h-95z" />
    <glyph glyph-name="bracketleft.cap" unicode="&#xf115;" horiz-adv-x="263" 
d="M303 778h-58l-95 -776h58l-12 -92h-158l118 960h158z" />
    <glyph glyph-name="bracketright.cap" unicode="&#xf116;" horiz-adv-x="263" 
d="M-25 2h58l95 776h-58l11 92h158l-118 -960h-158z" />
    <glyph glyph-name="braceleft.cap" unicode="&#xf117;" horiz-adv-x="301" 
d="M230 2h20l-12 -92h-25q-166 0 -146 166l23 185q6 50 -8.5 67.5t-50.5 17.5h-21l11 88h21q36 0 54.5 17.5t24.5 67.5l23 185q20 166 187 166h25l-11 -92h-20q-38 0 -59 -18t-27 -67l-23 -184q-11 -84 -68 -119q48 -36 39 -119l-23 -184q-6 -49 11.5 -67t54.5 -18z" />
    <glyph glyph-name="braceright.cap" unicode="&#xf118;" horiz-adv-x="301" 
d="M87 778h-21l11 92h25q168 0 148 -166l-23 -185q-6 -50 8.5 -67.5t50.5 -17.5h20l-11 -88h-20q-36 0 -54.5 -17.5t-24.5 -67.5l-23 -185q-20 -166 -189 -166h-24l11 92h21q38 0 59 18t27 67l23 184q9 83 67 119q-49 38 -38 119l23 184q6 49 -11.5 67t-54.5 18z" />
    <glyph glyph-name="anglebracketleft.cap" unicode="&#xf119;" horiz-adv-x="263" 
d="M142 385l56 -475h-98l-64 480l181 480h101z" />
    <glyph glyph-name="anglebracketright.cap" unicode="&#xf120;" horiz-adv-x="263" 
d="M135 395l-56 475h98l64 -480l-181 -480h-101z" />
    <glyph glyph-name="lowline" unicode="&#xf121;" horiz-adv-x="310" 
d="M250 0h-270l11 90h270z" />
    <glyph glyph-name="tripleprime" unicode="&#xf122;" horiz-adv-x="538" 
d="M95 780h117l-54 -250h-69zM266 780h116l-53 -250h-69zM437 780h116l-53 -250h-69z" />
    <glyph glyph-name="at.cap" unicode="&#xf123;" horiz-adv-x="1043" 
d="M695 155h-55l-2 72q-23 -36 -69.5 -59.5t-98.5 -23.5q-88 0 -143.5 49.5t-55.5 149.5q0 75 22 133t59.5 92t82.5 51t95 17q52 0 93 -23.5t55 -59.5l20 72h88l-24 -132l-31 -252q51 -3 90 21t61 67t32.5 94.5t10.5 109.5q0 124 -84 200t-259 76q-202 0 -320.5 -136
t-118.5 -364q0 -161 88 -249.5t259 -88.5q130 0 207 34t96 80l93 -32q-35 -72 -137.5 -120.5t-274.5 -48.5q-204 0 -315 109t-111 305q0 272 151.5 435t393.5 163q210 0 317 -94.5t107 -254.5q0 -184 -80.5 -288t-241.5 -104zM651 358l8 64q0 49 -34.5 87t-97.5 38
q-72 0 -116 -45.5t-44 -148.5q0 -120 121 -120q63 0 107.5 38.5t55.5 86.5z" />
    <glyph glyph-name="registered.superior" unicode="&#xf124;" horiz-adv-x="350" 
d="M195 488q-59 0 -97 38t-38 95q0 69 52 120t121 51q59 0 97 -38t38 -95q0 -69 -52 -120t-121 -51zM94 625q0 -44 30 -73.5t75 -29.5q53 0 94 40t41 93q0 44 -30 73.5t-75 29.5q-53 0 -94 -40t-41 -93zM236 548l-23 70h-39l-8 -70h-33l22 184h79q57 0 57 -46q0 -53 -44 -64
l26 -74h-37zM178 651h48q30 0 30 29q0 20 -24 20h-48z" />
    <glyph glyph-name="published" unicode="&#xf125;" horiz-adv-x="900" 
d="M388 402h111q86 0 86 89q0 35 -20.5 46.5t-53.5 11.5h-105zM377 316l-21 -170h-87l60 488h197q64 0 107 -30.5t43 -99.5q0 -50 -15 -86t-36.5 -55t-55.5 -30.5t-61.5 -14t-63.5 -2.5h-67zM52 341q0 89 38 172.5t100 144t145.5 97.5t171.5 37q153 0 254 -101t101 -250
q0 -120 -63.5 -225t-168 -166.5t-222.5 -61.5q-153 0 -254.5 101.5t-101.5 251.5zM496 701q-139 0 -245.5 -104.5t-106.5 -244.5q0 -116 78 -194.5t197 -78.5q140 0 246 104.5t106 246.5q0 115 -78 193t-197 78z" />
    <glyph glyph-name="zero.slash" unicode="&#xf126;" horiz-adv-x="700" 
d="M654 499q-1 -111 -20.5 -201t-59.5 -161t-108 -110t-159 -39q-130 0 -189.5 68.5t-59.5 209.5q1 111 20.5 201t59.5 160.5t108 109.5t159 39q130 0 189.5 -68t59.5 -209zM170 178l323 482q-37 27 -99 27q-81 0 -135 -57.5t-77 -147t-23 -206.5q0 -60 11 -98zM542 587
l-323 -483q37 -27 99 -27q81 0 135 57.5t77 147.5t23 207q0 60 -11 98z" />
    <glyph glyph-name="zero.LP" unicode="&#xf127;" horiz-adv-x="716" 
d="M326 77q80 0 134.5 57.5t77.5 147t23 206.5q0 105 -38 152t-122 47q-80 0 -134.5 -57.5t-77.5 -147t-23 -206.5q0 -105 38 -152t122 -47zM315 -12q-130 0 -190 68.5t-60 209.5q1 111 20.5 201t59.5 160.5t108 109.5t159 39q130 0 190 -68.5t60 -209.5q-1 -111 -20.5 -201
t-59.5 -160.5t-108 -109.5t-159 -39z" />
    <glyph glyph-name="one.LP" unicode="&#xf128;" horiz-adv-x="451" 
d="M271 0h-98l77 633q-68 -58 -186 -93l11 95q71 27 114.5 56.5t95.5 84.5h81z" />
    <glyph glyph-name="two.LP" unicode="&#xf129;" horiz-adv-x="706" 
d="M609 0h-593q6 53 19.5 97t29.5 76.5t42 61t49 47.5t60 38.5t64.5 31.5t72.5 30q12 5 43 17.5t44 18.5t37.5 18.5t35.5 23.5t25 27.5t19.5 36t5.5 43.5q0 34 -15.5 58.5t-41 36.5t-50.5 17.5t-51 5.5q-51 0 -92 -11t-75.5 -42t-44.5 -80l-91 31q61 192 314 192
q108 0 176.5 -51t68.5 -146q0 -26 -4.5 -49t-11 -41t-19.5 -35.5t-23 -29.5t-30 -25.5t-32.5 -21.5t-37 -19.5t-37.5 -17t-41 -17t-40 -16.5q-128 -55 -185 -99t-70 -117h490z" />
    <glyph glyph-name="three.LP" unicode="&#xf130;" horiz-adv-x="700" 
d="M306 76q235 0 235 163q0 30 -11.5 51t-27.5 32t-43.5 17.5t-48.5 7.5t-54 1h-110l11 91h110q33 0 56.5 2.5t50 11t43 23t27.5 41.5t11 64q0 105 -159 105q-96 0 -145.5 -29.5t-66.5 -101.5l-93 32q58 189 307 189q113 0 184.5 -44.5t71.5 -137.5q0 -83 -42.5 -133
t-100.5 -63q52 -9 90 -49t38 -107q0 -112 -90.5 -183t-253.5 -71q-250 0 -265 190l101 35q0 -71 41.5 -103t133.5 -34z" />
    <glyph glyph-name="four.LP" unicode="&#xf131;" horiz-adv-x="673" 
d="M614 178h-143l-21 -178h-96l21 178h-354l9 68l429 529h86l-63 -507h143zM386 268l31 250l14 97l-69 -94l-134 -166l-71 -88l95 1h134z" />
    <glyph glyph-name="five.LP" unicode="&#xf132;" horiz-adv-x="684" 
d="M310 76q90 2 151.5 53.5t61.5 161.5q0 139 -155 139q-125 0 -189 -70l-81 27l86 377h452l-11 -91h-369l-47 -205q65 47 172 47q116 0 178 -54.5t62 -158.5q0 -149 -92 -231.5t-230 -82.5q-131 0 -192 48.5t-67 139.5l100 35q2 -74 41 -104.5t129 -30.5z" />
    <glyph glyph-name="six.LP" unicode="&#xf133;" horiz-adv-x="698" 
d="M325 78q88 0 144 52t56 149q0 134 -149 134q-88 0 -149.5 -52.5t-61.5 -146.5q19 -136 160 -136zM425 685q-100 0 -166.5 -63.5t-84.5 -204.5h2q77 90 222 90q109 0 170.5 -57t61.5 -161q0 -139 -88 -220t-220 -81q-129 0 -191.5 71.5t-62.5 216.5q0 245 101 372.5
t275 127.5q99 0 152.5 -44.5t63.5 -114.5l-100 -34q-8 102 -135 102z" />
    <glyph glyph-name="seven.LP" unicode="&#xf134;" horiz-adv-x="627" 
d="M218 0h-109l344 583l55 91l-175 -1h-245l11 91h535l-8 -66z" />
    <glyph glyph-name="eight.LP" unicode="&#xf135;" horiz-adv-x="695" 
d="M391 685q-187 0 -187 -146q0 -61 42 -83t114 -22q38 0 67 5.5t58.5 19.5t46 45t16.5 77q0 104 -157 104zM349 350q-30 0 -56.5 -3.5t-56 -14t-50.5 -28t-34.5 -47.5t-13.5 -69q0 -111 178 -111q211 0 211 153q0 120 -178 120zM305 -12q-133 0 -200 47t-67 135
q0 98 51 154.5t117 69.5q-45 11 -73 50t-28 97q0 63 25.5 110t69 73.5t94 39t108.5 12.5q70 0 123 -16.5t88 -57.5t35 -103q0 -80 -42 -135.5t-102 -69.5q51 -11 85.5 -50.5t34.5 -108.5q0 -117 -81.5 -182t-237.5 -65z" />
    <glyph glyph-name="nine.LP" unicode="&#xf136;" horiz-adv-x="698" 
d="M383 686q-88 0 -144 -52t-56 -149q0 -134 149 -134q88 0 149.5 52.5t61.5 146.5q-19 136 -160 136zM283 79q100 0 166.5 63.5t84.5 204.5h-2q-77 -90 -222 -90q-109 0 -170.5 57t-61.5 161q0 139 88 220t220 81q129 0 191.5 -71.5t62.5 -216.5q0 -245 -101 -372.5
t-275 -127.5q-99 0 -152.5 44.5t-63.5 114.5l100 34q8 -102 135 -102z" />
    <glyph glyph-name="Eurooldstyle" unicode="&#xf137;" horiz-adv-x="612" 
d="M19 285l10 79h74q32 86 98.5 132t159.5 46q191 0 208 -142l-99 -34q-4 45 -30.5 68t-84.5 23q-105 0 -153 -93h225l-35 -79h-216q-5 -33 -5 -40h204l-35 -79h-162q27 -93 125 -93q113 0 143 91l90 -32q-51 -144 -243 -144q-93 0 -148.5 46t-66.5 132h-73l10 79h62
q0 7 5 40h-63z" />
    <glyph glyph-name="sterlingoldstyle" unicode="&#xf138;" horiz-adv-x="618" 
d="M226 350l-5 -47h200l-10 -76h-200l-17 -138h352l-10 -89h-533l10 89h85l17 138h-85l10 76h85l5 46q12 92 80 142.5t169 50.5q97 0 145.5 -37.5t53.5 -98.5l-101 -34q2 85 -109 82q-128 -2 -142 -104z" />
    <glyph glyph-name="florinoldstyle" unicode="&#xf139;" horiz-adv-x="420" 
d="M119 227h-109l10 75h109l4 35q12 92 63.5 148t153.5 56q41 0 72 -11l-20 -90q-24 11 -50 13q-58 0 -86.5 -24.5t-37.5 -98.5l-3 -28h148l-10 -75h-148l-28 -234q-25 -204 -217 -204q-41 0 -70 11l20 90q29 -13 47 -13q59 0 87.5 24.5t37.5 98.5z" />
    <glyph glyph-name="yenoldstyle" unicode="&#xf140;" horiz-adv-x="596" 
d="M61 77l10 79h158l5 40h-158l9 79h109l-137 255h113l62 -119l60 -126l92 126l92 119h113l-202 -255h110l-9 -79h-157l-5 -40h157l-10 -79h-157l-9 -77h-97l9 77h-158z" />
    <glyph glyph-name="uni20A1oldstyle" unicode="&#xf141;" horiz-adv-x="560" 
d="M452 607h75l-55 -105q44 -36 54 -102l-99 -34q-1 15 -7 34l-170 -327h10q113 0 143 91l90 -32q-51 -144 -243 -144q-22 0 -43 3l-34 -68h-75l44 85q-14 7 -19 11l-50 -96h-75l74 143q-39 54 -39 144q0 156 78.5 244t206.5 88l34 65h75l-37 -71q4 -1 11.5 -3t11.5 -3z
M272 452q-64 -8 -104 -74t-40 -151q0 -27 4 -46zM370 448q-3 1 -22 6l-179 -347q10 -10 17 -14z" />
    <glyph glyph-name="uni20A2oldstyle" unicode="&#xf142;" horiz-adv-x="560" 
d="M467 235q-65 0 -116 -38.5t-65 -86.5l-4 -36q92 7 121 90l90 -32q-51 -144 -243 -144q-118 0 -174 72.5t-40 204.5t90.5 204.5t191.5 72.5q191 0 208 -142l-99 -34q-8 92 -119 91q-72 -2 -119.5 -51.5t-58.5 -140.5q-16 -130 59 -174l11 93l9 131h87l3 -81q28 41 76 67
t101 26q31 0 46 -4l-20 -92q-20 4 -35 4z" />
    <glyph glyph-name="uni20A3oldstyle" unicode="&#xf143;" horiz-adv-x="576" 
d="M39 353h107l22 177h397l-12 -92h-297l-10 -85h230l-10 -79h-230l-5 -40h230l-9 -79h-230l-19 -155h-100l19 155h-107l9 79h107l5 40h-107z" />
    <glyph glyph-name="uni20A4oldstyle" unicode="&#xf144;" horiz-adv-x="622" 
d="M401 144h-200l-7 -55h352l-10 -89h-533l10 89h85l7 55h-85l10 79h85l5 40h-85l9 79h85l1 7q12 92 80 142.5t169 50.5q97 0 145.5 -37.5t53.5 -98.5l-101 -34q2 85 -109 82q-128 -2 -142 -104l-1 -8h200l-9 -79h-200l-5 -40h200z" />
    <glyph glyph-name="uni20A6oldstyle" unicode="&#xf145;" horiz-adv-x="700" 
d="M32 364h73l21 166h124l93 -166h161l21 166h99l-21 -166h73l-10 -79h-73l-4 -40h73l-10 -79h-73l-20 -166h-124l-95 166h-160l-20 -166h-99l20 166h-73l10 79h73l4 40h-73zM194 285l-4 -40h106l-24 40h-78zM388 285l23 -40h79l4 40h-106zM208 399l-4 -35h24zM456 166
l20 -35l4 35h-24z" />
    <glyph glyph-name="uni20A7oldstyle" unicode="&#xf146;" horiz-adv-x="1490" 
d="M850 -12q-86 0 -128 37q-65 -37 -161 -37q-89 0 -130 39q-60 -39 -145 -39q-53 0 -95 22t-63 61l-33 -271h-95l73 598l10 132h87l2 -76q30 41 78.5 64.5t103.5 23.5q102 0 155.5 -56.5t53.5 -161.5q0 -133 -60 -226q17 -22 69 -22q70 0 109 31q-5 31 1 86l32 256h-96
l10 81h96l17 142l97 16l-19 -158h162l-10 -81h-162l-31 -250q-9 -72 10.5 -97.5t72.5 -25.5q67 0 107 30q-2 5 -4 19l101 35q3 -44 30.5 -66t88.5 -22q153 4 153 97q0 23 -16 35.5t-34.5 16t-65.5 8.5q-12 1 -18 2q-29 3 -38.5 4.5t-37 6.5t-39 9.5t-31 14t-28 21t-16 29
t-7.5 38.5q0 49 22.5 87t59 59t76 31.5t78.5 10.5q189 0 205 -136l-100 -34q-3 43 -29 64.5t-82 21.5q-130 0 -130 -85q0 -31 27.5 -41.5t95.5 -17.5q106 -10 144 -28q64 -29 64 -101q0 -68 -41.5 -114.5t-98 -64.5t-122.5 -18q-104 0 -158 41q-65 -41 -167 -41zM160 328
l-16 -126q1 -47 40 -86t104 -39q76 0 125.5 60.5t49.5 168.5q0 71 -34 109t-95 38q-65 0 -113.5 -38.5t-60.5 -86.5z" />
    <glyph glyph-name="uni20A8oldstyle" unicode="&#xf147;" horiz-adv-x="1026" 
d="M971 159q-23 -171 -300 -171q-50 0 -87 3t-85.5 14.5t-85 32.5t-75 59.5t-66.5 93.5h-113l-23 -191h-100l65 530h229q173 0 173 -139q0 -142 -120 -181q26 -45 59.5 -74.5t72.5 -42t68 -16t67 -3.5q116 0 169.5 19t53.5 76q0 23 -16 35.5t-34.5 16t-65.5 8.5q-4 1 -6 1
t-5.5 0.5t-6.5 0.5q-29 3 -38.5 4.5t-37 6.5t-39 9.5t-31 14t-28 21t-16 29t-7.5 38.5q0 49 22.5 87t59 59t76 31.5t78.5 10.5q189 0 205 -136l-100 -34q-3 43 -29 64.5t-82 21.5q-130 0 -130 -85q0 -31 27.5 -41.5t95.5 -17.5q105 -10 143 -27q65 -30 65 -103q0 -7 -2 -25z
M170 283h133q16 0 26 1t25.5 6t25 14t16.5 28t7 45q0 21 -7 34.5t-20.5 18.5t-24.5 6.5t-29 1.5h-133z" />
    <glyph glyph-name="uni20A9oldstyle" unicode="&#xf148;" horiz-adv-x="756" 
d="M707 166h-101l-57 -178h-120l-18 178h-106l-62 -178h-120l-14 178h-100l10 79h85l-4 40h-77l10 79h61l-12 166h107l6 -166h93l60 166h110l17 -166h94l48 166h107l-54 -166h61l-10 -79h-77l-12 -40h85zM346 285l-13 -40h70l-5 40h-52zM483 285l5 -40h48l10 40h-63z
M198 285l2 -40h47l13 40h-62zM496 166l5 -42l12 42h-17zM203 166l2 -42l14 42h-16zM387 401l-14 -37h17z" />
    <glyph glyph-name="uni20AAoldstyle" unicode="&#xf149;" horiz-adv-x="750" 
d="M95 530h245q90 0 136.5 -46.5t36.5 -131.5l-25 -200h-100l23 185q12 101 -89 101h-139l-53 -438h-100zM445 0h-245l45 368h100l-34 -276h139q101 0 113 101l42 337h100l-44 -352q-10 -85 -68 -131.5t-148 -46.5z" />
    <glyph glyph-name="uni20AEoldstyle" unicode="&#xf150;" horiz-adv-x="492" 
d="M75 165l10 82l107 50l17 141h-176l12 92h452l-12 -92h-176l-11 -91l120 56l-10 -82l-120 -56l-6 -50l120 56l-10 -82l-120 -56l-16 -133h-100l10 83l-107 -50l10 82l107 50l6 50z" />
    <glyph glyph-name="uni20B1oldstyle" unicode="&#xf151;" horiz-adv-x="620" 
d="M591 320h-74q-39 -128 -204 -128h-130l-23 -192h-99l39 320h-73l9 79h73l17 131h229q167 0 172 -131h73zM214 440l-6 -41h217q-9 41 -77 41h-134zM194 283h134q20 0 32.5 1.5t29 10t25.5 25.5h-216z" />
    <glyph glyph-name="numbersignoldstyle" unicode="&#xf152;" horiz-adv-x="696" 
d="M121 454h120l58 153h97l-59 -153h149l59 153h96l-59 -153h95l-11 -90h-118l-74 -198h96l-11 -90h-120l-58 -153h-96l58 153h-149l-58 -153h-96l58 153h-94l11 90h117l75 198h-97zM303 364l-75 -198h149l75 198h-149z" />
    <glyph glyph-name="zero.OT" unicode="&#xf200;" horiz-adv-x="700" 
d="M319 78q93 0 156.5 58.5t63.5 187.5q0 85 -46.5 123.5t-123.5 38.5q-93 0 -156.5 -58.5t-63.5 -187.5q0 -85 46.5 -123.5t123.5 -38.5zM308 -12q-119 0 -189.5 60.5t-70.5 180.5q0 172 94.5 259.5t237.5 87.5q119 0 190 -60t71 -181q0 -88 -27 -156t-74 -109
t-105.5 -61.5t-126.5 -20.5z" />
    <glyph glyph-name="one.OT" unicode="&#xf201;" horiz-adv-x="700" 
d="M593 0h-521l11 90h210l41 340q-84 -74 -237 -112l11 96q86 24 145 61.5t115 100.5h81l-59 -486h214z" />
    <glyph glyph-name="two.OT" unicode="&#xf202;" horiz-adv-x="700" 
d="M375 487q-85 0 -131 -25t-62 -82l-93 31q53 165 297 165q246 0 246 -160q0 -27 -4.5 -49.5t-15.5 -39.5t-22 -30t-31.5 -23.5t-35.5 -17t-43 -13.5t-45 -10.5t-50.5 -9.5t-51.5 -10q-98 -21 -141.5 -51.5t-49.5 -71.5l469 1l-11 -91h-574q11 136 80.5 200.5t216.5 91.5
q22 4 53 9.5t45 8t34.5 7t29 9t20 11.5t15.5 16t7 21t3 29q0 50 -40.5 67t-114.5 17z" />
    <glyph glyph-name="three.OT" unicode="&#xf203;" horiz-adv-x="700" 
d="M279 -124q112 0 168.5 39.5t56.5 125.5q0 36 -14 59t-42.5 33t-53.5 12.5t-65 2.5h-109l11 91h109q41 0 69.5 5t55 19t40 44t13.5 77q0 102 -149 102q-95 0 -140 -29t-62 -102l-93 32q58 189 297 189q111 0 179 -44t68 -136q0 -84 -42.5 -135t-100.5 -64q52 -9 90 -48.5
t38 -106.5q0 -112 -86.5 -183t-248.5 -71q-240 0 -255 190l101 35q0 -72 37.5 -104t127.5 -33z" />
    <glyph glyph-name="four.OT" unicode="&#xf204;" horiz-adv-x="700" 
d="M606 0h-142l-25 -200h-97l25 200h-354l8 68l426 507h87l-59 -484h142zM378 91l28 232l13 95l-71 -89l-198 -239l90 1h138z" />
    <glyph glyph-name="five.OT" unicode="&#xf205;" horiz-adv-x="700" 
d="M294 -124q91 2 152 54t61 162q0 138 -155 138q-125 0 -188 -70l-81 27l85 377h452l-11 -91h-369l-47 -205q66 47 172 47q116 0 178 -54.5t62 -158.5q0 -148 -92 -231t-230 -83q-131 0 -191.5 48.5t-66.5 139.5l100 35q1 -74 40 -104.5t129 -30.5z" />
    <glyph glyph-name="six.OT" unicode="&#xf206;" horiz-adv-x="700" 
d="M321 78q88 0 144 52t56 149q0 134 -149 134q-88 0 -149.5 -52.5t-61.5 -146.5q19 -136 160 -136zM421 685q-100 0 -166.5 -63.5t-84.5 -204.5h2q77 90 222 90q109 0 170.5 -57t61.5 -161q0 -139 -88 -220t-220 -81q-129 0 -191.5 71.5t-62.5 216.5q0 245 101 372.5
t275 127.5q99 0 152.5 -44.5t63.5 -114.5l-100 -34q-8 102 -135 102z" />
    <glyph glyph-name="seven.OT" unicode="&#xf207;" horiz-adv-x="700" 
d="M234 -200h-109l364 583l55 91l-174 -1h-292l11 91h584l-8 -66z" />
    <glyph glyph-name="eight.OT" unicode="&#xf208;" horiz-adv-x="700" 
d="M394 685q-187 0 -187 -146q0 -61 42 -83t114 -22q38 0 67 5.5t58.5 19.5t46 45t16.5 77q0 104 -157 104zM352 350q-30 0 -56.5 -3.5t-56 -14t-50.5 -28t-34.5 -47.5t-13.5 -69q0 -111 178 -111q211 0 211 153q0 120 -178 120zM308 -12q-133 0 -200 47t-67 135
q0 98 51 154.5t117 69.5q-45 11 -73 50t-28 97q0 63 25.5 110t69 73.5t94 39t108.5 12.5q70 0 123 -16.5t88 -57.5t35 -103q0 -80 -42 -135.5t-102 -69.5q51 -11 85.5 -50.5t34.5 -108.5q0 -117 -81.5 -182t-237.5 -65z" />
    <glyph glyph-name="nine.OT" unicode="&#xf209;" horiz-adv-x="700" 
d="M364 486q-88 0 -144 -52t-56 -149q0 -134 149 -134q88 0 149.5 52.5t61.5 146.5q-19 136 -160 136zM264 -121q100 0 166.5 63.5t84.5 204.5h-2q-77 -90 -222 -90q-109 0 -170.5 57t-61.5 161q0 139 88 220t220 81q129 0 191.5 -71.5t62.5 -216.5q0 -245 -101 -372.5
t-275 -127.5q-99 0 -152.5 44.5t-63.5 114.5l100 34q7 -102 135 -102z" />
    <glyph glyph-name="zero.inf" unicode="&#xf210;" horiz-adv-x="508" 
d="M197 -132q57 0 94 39t37 122q0 100 -99 100q-57 0 -94 -38.5t-37 -121.5q0 -101 99 -101zM187 -212q-82 0 -128.5 43.5t-46.5 127.5q0 121 64 185.5t163 64.5q82 0 129 -43.5t47 -127.5q0 -121 -64 -185.5t-164 -64.5z" />
    <glyph glyph-name="one.inf" unicode="&#xf211;" horiz-adv-x="297" 
d="M132 -200h-84l35 290q-30 -24 -91 -39l11 83q39 14 62.5 30t49.5 45h67z" />
    <glyph glyph-name="two.inf" unicode="&#xf212;" horiz-adv-x="420" 
d="M197 209q63 0 101.5 -28t38.5 -80q0 -28 -8.5 -50t-18 -35t-33 -26t-35.5 -17.5t-42 -15.5q-7 -3 -11 -4q-93 -33 -108 -76l88 2h150l-9 -79h-330q6 54 20 90.5t41 60t51.5 36.5t68.5 29q53 20 72.5 33t19.5 39q0 43 -64 43q-39 0 -59.5 -12.5t-29.5 -43.5l-80 27
q36 107 177 107z" />
    <glyph glyph-name="three.inf" unicode="&#xf213;" horiz-adv-x="426" 
d="M152 -132q95 0 95 63q0 14 -5.5 22t-18 11.5t-22 4t-27.5 0.5h-64l9 70h65q22 0 35 2.5t23.5 14.5t10.5 35q0 41 -65 41q-37 0 -57.5 -13t-28.5 -44l-80 27q31 107 175 107q62 0 102 -25t40 -78q0 -75 -59 -100q50 -18 50 -76q0 -64 -49 -103t-141 -39q-142 0 -151 107
l86 30q1 -32 19.5 -44.5t57.5 -12.5z" />
    <glyph glyph-name="four.inf" unicode="&#xf214;" horiz-adv-x="402" 
d="M313 -122h-70l-9 -78h-84l9 78h-183l9 67l220 264h79l-31 -252h70zM169 -43l16 122l-98 -122h82z" />
    <glyph glyph-name="five.inf" unicode="&#xf215;" horiz-adv-x="411" 
d="M149 -135q36 0 60 20.5t24 62.5q0 56 -62 56q-54 0 -81 -33l-69 24l46 202h261l-10 -80h-188l-15 -65q25 16 69 16q135 0 135 -112q0 -83 -52 -125.5t-129 -42.5q-71 0 -105.5 26t-38.5 79l86 30q1 -33 16.5 -45.5t52.5 -12.5z" />
    <glyph glyph-name="six.inf" unicode="&#xf216;" horiz-adv-x="420" 
d="M205 133q-92 0 -105 -104q36 36 101 36q124 0 124 -109q0 -82 -48 -125t-125 -43q-144 0 -144 154q0 131 55.5 199t152.5 68q56 0 88.5 -24t38.5 -66l-85 -29q-5 42 -53 43zM182 -5q-36 0 -61.5 -20t-25.5 -57q0 -26 18.5 -40t45.5 -14q34 0 56.5 19.5t22.5 59.5
q0 50 -56 52z" />
    <glyph glyph-name="seven.inf" unicode="&#xf217;" horiz-adv-x="379" 
d="M115 -200h-96l163 272l28 45h-200l10 80h304l-6 -54z" />
    <glyph glyph-name="eight.inf" unicode="&#xf218;" horiz-adv-x="420" 
d="M173 35q78 0 78 56q0 41 -66 41q-77 0 -77 -56q0 -41 65 -41zM152 -136q87 0 87 60q0 47 -73 47q-86 0 -86 -63q0 -44 72 -44zM143 -212q-151 0 -151 100q0 87 71 116q-38 20 -38 73q0 69 49.5 100.5t120.5 31.5q62 0 101 -23.5t39 -75.5q0 -37 -16.5 -65t-41.5 -41
q47 -21 47 -78q0 -67 -46.5 -102.5t-134.5 -35.5z" />
    </font>
</defs>
</svg>
