<?xml version="1.0" encoding="utf-8"?>
<!-- Generator: Adobe Illustrator 21.1.0, SVG Export Plug-In . SVG Version: 6.00 Build 0)  -->
<svg version="1.1" id="Layer_1" xmlns="http://www.w3.org/2000/svg" xmlns:xlink="http://www.w3.org/1999/xlink" x="0px" y="0px"
	 viewBox="0 0 47.6 47.4" style="enable-background:new 0 0 47.6 47.4;" xml:space="preserve">
<style type="text/css">
	.st0{clip-path:url(#SVGID_2_);fill:#DEBFA5;}
	.st1{fill:#DEBFA5;}
	.st2{fill:none;stroke:#DEBFA5;}
</style>
<g>
	<defs>
		<rect id="SVGID_1_" x="0.3" y="0.2" width="47.1" height="47.1"/>
	</defs>
	<clipPath id="SVGID_2_">
		<use xlink:href="#SVGID_1_"  style="overflow:visible;"/>
	</clipPath>
	<path class="st0" d="M23.8,47.2c-13,0-23.5-10.6-23.5-23.5c0-13,10.6-23.5,23.5-23.5c13,0,23.5,10.6,23.5,23.5
		C47.3,36.7,36.8,47.2,23.8,47.2z M23.8,2.2c-11.9,0-21.5,9.7-21.5,21.5c0,11.9,9.7,21.5,21.5,21.5s21.5-9.7,21.5-21.5
		C45.3,11.8,35.7,2.2,23.8,2.2z"/>
</g>
<polygon class="st1" points="26.3,23.2 34.5,13.8 29.6,13.8 24,20.8 18.3,13.8 13.2,13.8 21.4,23.5 12.9,33.6 17.5,33.6 23.7,26 
	29.7,33.6 34.7,33.6 "/>
<polygon class="st2" points="26.3,23.2 34.5,13.8 29.6,13.8 24,20.8 18.3,13.8 13.2,13.8 21.4,23.5 12.9,33.6 17.5,33.6 23.7,26 
	29.7,33.6 34.7,33.6 "/>
</svg>
