<svg width="122" height="357" xmlns="http://www.w3.org/2000/svg" xmlns:xlink="http://www.w3.org/1999/xlink" xmlns:svgjs="http://svgjs.com/svgjs" viewBox="0.893 0 120.214 357" fill="#e09f7e"><svg xmlns="http://www.w3.org/2000/svg" width="122" height="357" viewBox="1 0.136 120 356.364"><path paint-order="stroke fill markers" fill-rule="evenodd" d="M6.924 356.5L121 242.515V227.41L1 347.313v9.187h5.924zm29.149 0L121 271.572V256.5l-100 100h15.073zm29.036 0L121 300.608V285.59L50.092 356.5h15.018zm28.37 0L121 329.559v-14.877L78.273 356.5h15.206zm27.52 0v-13.637L107.365 356.5H121zM121 213.382v-15.064L1 317.812v15.051l120-119.481zm0-28.185v-15.06L1 289.627v15.054l120-119.485zm0-29.097v-15.055L1 260.538v15.053L121 156.1zm0-29.094v-15.052L1 231.438V246.5l120-119.494zm0-28.181V83.773L1 203.263v15.055L121 98.825zm0-29.092V54.682L1 174.176v15.051L121 69.733zm0-29.091V25.59L1 145.074v15.062L121 40.642zm0-28.901V.136h-3.441L.999 116.018v15.027L121 11.741zM103.727.136H88.618L1 87.754v15.11L103.727.135zm-29.09 0H59.572L1 58.702v15.07L74.636.137zm-29.092 0H30.572L1 29.7v14.982L45.545.136zm-28.181 0H1.976L1 1.106V16.5L17.364.136z"/></svg></svg>