<svg xmlns="http://www.w3.org/2000/svg" viewBox="0 0 42.313 40.867"><line id="Path-3" y1="2" x2="42.313" y2="2" fill="none" stroke="#fff" stroke-width="4"/><line id="Path-3-Copy" y1="12.839" x2="42.313" y2="12.839" fill="none" stroke="#fff" stroke-width="4"/><line id="Path-3-Copy-2" y1="23.678" x2="42.313" y2="23.678" fill="none" stroke="#fff" stroke-width="4"/><path d="M5.718,40.723,3.451,35.266,2.863,33.72,2.9,37.305v3.418H1.724V31.369h1.3l2.446,5.9.756,1.967.755-1.967,2.447-5.9h1.3v9.354H9.544V37.305L9.58,33.72l-.588,1.546L6.726,40.723Z" fill="#fff"/><path d="M20.284,31.369v1.1H15.043v2.916h4.726v1.09H15.043V39.62h5.481v1.1h-6.68V31.369Z" fill="#fff"/><path d="M28.277,37.017l1.032,1.595-.037-2.818V31.369h1.212v9.354H29.393l-3.827-5.648-1.031-1.6.036,2.819v4.425H23.36V31.369h1.091Z" fill="#fff"/><path d="M33.512,37.342V31.369h1.223v5.984c0,1.343.432,2.423,2.543,2.423s2.542-1.08,2.542-2.423V31.369h1.224v5.973c0,2-.9,3.525-3.766,3.525S33.512,39.345,33.512,37.342Z" fill="#fff"/></svg>