<?xml version="1.0" encoding="UTF-8"?>
<svg width="453px" height="72px" viewBox="0 0 453 72" version="1.1" xmlns="http://www.w3.org/2000/svg" xmlns:xlink="http://www.w3.org/1999/xlink">
    <!-- Generator: Sketch 52.6 (67491) - http://www.bohemiancoding.com/sketch -->
    <title>LOGOS/Lowe Horizontal COLOUR</title>
    <desc>Created with Sketch.</desc>
    <g id="LOGOS/Lowe-Horizontal-COLOUR" stroke="none" stroke-width="1" fill="none" fill-rule="evenodd">
        <polygon id="Path" fill="#E09F7E" points="314.3716 48.389 329.4196 48.389 329.4196 51.885 310.5716 51.885 310.5716 22.245 314.3716 22.245"></polygon>
        <polygon id="Path" fill="#E09F7E" points="337.2286 51.885 341.0286 51.885 341.0286 22.245 337.2286 22.245"></polygon>
        <polygon id="Path" fill="#E09F7E" points="363.9186 52.341 360.1946 52.341 348.7946 22.245 352.8606 22.245 359.7006 40.903 362.0566 47.553 364.4126 40.903 371.2526 22.245 375.3566 22.245"></polygon>
        <polygon id="Path" fill="#E09F7E" points="383.2036 51.885 387.0036 51.885 387.0036 22.245 383.2036 22.245"></polygon>
        <polygon id="Path" fill="#E09F7E" points="412.5966 40.143 415.8646 45.197 415.7506 36.267 415.7506 22.245 419.5886 22.245 419.5886 51.885 416.1306 51.885 404.0086 33.987 400.7406 28.933 400.8546 37.863 400.8546 51.885 397.0166 51.885 397.0166 22.245 400.4746 22.245"></polygon>
        <path d="M428.4616,37.065 C428.4616,27.793 432.3756,21.789 441.3816,21.789 C448.7916,21.789 452.2876,25.209 452.9336,30.111 L449.0586,30.529 C448.4876,26.843 446.0936,25.247 441.3816,25.247 C434.2376,25.247 432.3756,30.757 432.3756,37.065 C432.3756,43.373 434.2376,48.845 441.3816,48.883 C444.7256,48.883 447.4236,48.123 449.1716,46.983 L449.1716,39.459 L442.7876,39.459 L442.7876,36.153 L452.9336,36.153 L452.9336,49.301 C448.9816,51.733 445.7516,52.379 441.3436,52.341 C432.3756,52.265 428.4616,46.337 428.4616,37.065 Z" id="Path" fill="#E09F7E"></path>
        <polygon id="Path" fill="#ffffff" points="-0.0004 50.138 -0.0004 52.074 15.3706 36.704 15.3706 34.767"></polygon>
        <polygon id="Path" fill="#ffffff" points="-0.0004 46.436 -0.0004 48.372 15.3706 33.002 15.3706 31.066"></polygon>
        <polygon id="Path" fill="#ffffff" points="-0.0004 39.032 -0.0004 40.968 15.3706 25.598 15.3706 23.661"></polygon>
        <polygon id="Path" fill="#ffffff" points="-0.0004 42.734 -0.0004 44.67 15.3706 29.3 15.3706 27.364"></polygon>
        <polygon id="Path" fill="#ffffff" points="1.7296 52.11 -0.0004 52.11 -0.0004 65.515 39.3186 65.515 39.3186 52.11 14.7716 52.11 15.3706 51.512 15.3706 49.576 12.8366 52.11 11.0696 52.11 15.3706 47.81 15.3706 45.874 9.1336 52.11 7.3696 52.11 15.3706 44.108 15.3706 42.171 5.4326 52.11 3.6656 52.11 15.3706 40.406 15.3706 38.47"></polygon>
        <polygon id="Path" fill="#ffffff" points="10.9106 5.91 -0.0004 16.82 -0.0004 18.756 12.8466 5.91"></polygon>
        <polygon id="Path" fill="#ffffff" points="7.2076 5.91 0.0006 13.117 0.0006 15.054 9.1446 5.91"></polygon>
        <polygon id="Path" fill="#ffffff" points="-0.0004 5.91 -0.0004 7.65 1.7406 5.91"></polygon>
        <polygon id="Path" fill="#ffffff" points="3.5056 5.91 0.0006 9.414 0.0006 11.35 5.4416 5.91"></polygon>
        <polygon id="Path" fill="#ffffff" points="-0.0004 35.329 -0.0004 37.265 15.3706 21.896 15.3706 19.959"></polygon>
        <polygon id="Path" fill="#ffffff" points="-0.0004 31.628 -0.0004 33.564 15.3706 18.193 15.3706 16.257"></polygon>
        <polygon id="Path" fill="#ffffff" points="-0.0004 27.925 -0.0004 29.862 15.3706 14.492 15.3706 12.556"></polygon>
        <polygon id="Path" fill="#ffffff" points="-0.0004 24.222 -0.0004 26.16 15.3706 10.79 15.3706 8.853"></polygon>
        <polygon id="Path" fill="#ffffff" points="14.6116 5.91 0.0006 20.52 0.0006 22.456 15.3706 7.087 15.3706 5.91"></polygon>
        <path d="M83.6466,65.285 C84.1086,65.156 84.5646,65.016 85.0156,64.869 L85.0156,48.658 C84.5836,49.08 84.1286,49.478 83.6466,49.846 L83.6466,65.285 Z" id="Path" fill="#ffffff"></path>
        <path d="M81.0296,65.899 C81.4896,65.808 81.9466,65.711 82.3986,65.603 L82.3986,50.7 C81.9586,50.968 81.5016,51.215 81.0296,51.44 L81.0296,65.899 Z" id="Path" fill="#ffffff"></path>
        <path d="M75.7936,66.537 C76.2536,66.515 76.7106,66.486 77.1636,66.448 L77.1636,52.698 C76.7146,52.782 76.2606,52.854 75.7936,52.904 L75.7936,66.537 Z" id="Path" fill="#ffffff"></path>
        <path d="M73.9046,4.927 C55.6746,4.927 42.0026,17.617 42.0026,35.757 C42.0026,38.813 42.3996,41.71 43.1316,44.423 L43.1316,37.283 L44.3806,37.283 L44.3806,48.116 C44.7886,49.103 45.2446,50.058 45.7496,50.98 L45.7496,37.283 L46.9986,37.283 L46.9986,53.035 C47.4306,53.689 47.8856,54.324 48.3676,54.937 L48.3676,37.283 L49.6156,37.283 L49.6156,56.416 C50.0576,56.906 50.5116,57.384 50.9846,57.842 L50.9846,37.283 L52.2336,37.283 L52.2336,58.986 C52.6766,59.368 53.1356,59.732 53.6026,60.088 L53.6026,37.283 L54.8516,37.283 L54.8516,60.987 C55.2986,61.292 55.7556,61.584 56.2206,61.866 L56.2206,37.283 L57.4696,37.283 L57.4696,62.583 C57.9176,62.827 58.3746,63.059 58.8386,63.283 L58.8386,42.616 C58.0586,40.522 57.6406,38.207 57.6406,35.757 C57.6406,26.016 64.0746,18.51 73.9046,18.51 C83.7346,18.51 90.0796,26.016 90.0796,35.757 C90.0796,38.219 89.6616,40.545 88.8826,42.648 L88.8826,63.315 C89.3466,63.093 89.8026,62.861 90.2516,62.618 L90.2516,37.283 L91.5006,37.283 L91.5006,61.903 C91.9656,61.62 92.4226,61.328 92.8696,61.025 L92.8696,37.283 L94.1186,37.283 L94.1186,60.127 C94.5856,59.772 95.0436,59.407 95.4876,59.026 L95.4876,37.283 L96.7356,37.283 L96.7356,57.886 C97.2106,57.427 97.6636,56.949 98.1046,56.459 L98.1046,37.283 L99.3536,37.283 L99.3536,54.978 C99.8346,54.365 100.2906,53.73 100.7226,53.076 L100.7226,37.283 L101.9716,37.283 L101.9716,51.014 C102.4756,50.093 102.9326,49.137 103.3406,48.15 L103.3406,37.283 L104.5896,37.283 L104.5896,44.446 C105.3216,41.726 105.7176,38.822 105.7176,35.757 C105.7176,17.617 92.1346,4.927 73.9046,4.927 Z" id="Path" fill="#ffffff"></path>
        <path d="M86.2646,64.429 C86.7276,64.256 87.1836,64.074 87.6336,63.882 L87.6336,45.304 C87.2266,46.005 86.7646,46.66 86.2646,47.283 L86.2646,64.429 Z" id="Path" fill="#ffffff"></path>
        <path d="M78.4116,66.313 C78.8716,66.258 79.3276,66.193 79.7806,66.12 L79.7806,51.965 C79.3356,52.13 78.8806,52.277 78.4116,52.403 L78.4116,66.313 Z" id="Path" fill="#ffffff"></path>
        <path d="M70.5586,66.441 C71.0106,66.481 71.4686,66.508 71.9276,66.532 L71.9276,52.89 C71.4616,52.839 71.0056,52.77 70.5586,52.684 L70.5586,66.441 Z" id="Path" fill="#ffffff"></path>
        <path d="M60.0866,63.852 C60.5376,64.045 60.9936,64.229 61.4556,64.402 L61.4556,47.236 C60.9556,46.613 60.4946,45.955 60.0866,45.254 L60.0866,63.852 Z" id="Path" fill="#ffffff"></path>
        <path d="M65.3226,65.583 C65.7746,65.692 66.2316,65.791 66.6916,65.883 L66.6916,51.405 C66.2196,51.177 65.7626,50.929 65.3226,50.657 L65.3226,65.583 Z" id="Path" fill="#ffffff"></path>
        <path d="M62.7046,64.846 C63.1556,64.993 63.6126,65.131 64.0736,65.261 L64.0736,49.8 C63.5916,49.431 63.1376,49.033 62.7046,48.611 L62.7046,64.846 Z" id="Path" fill="#ffffff"></path>
        <path d="M73.1756,52.968 L73.1756,66.571 C73.4186,66.576 73.6596,66.587 73.9046,66.587 C74.1196,66.587 74.3306,66.576 74.5446,66.573 L74.5446,52.972 C74.3296,52.98 74.1226,53.004 73.9046,53.004 C73.6556,53.004 73.4196,52.978 73.1756,52.968 Z" id="Path" fill="#ffffff"></path>
        <path d="M67.9406,66.107 C68.3926,66.18 68.8496,66.247 69.3096,66.303 L69.3096,52.382 C68.8416,52.253 68.3856,52.104 67.9406,51.936 L67.9406,66.107 Z" id="Path" fill="#ffffff"></path>
        <path d="M174.5646,5.954 L189.9606,5.954 L172.8926,65.559 L172.8616,65.559 L157.5536,65.559 L157.5226,65.559 L148.1516,32.834 L147.5876,34.806 L133.9086,48.485 L134.3006,49.86 L146.8786,37.283 L146.1016,39.994 L134.7306,51.366 L135.1226,52.741 L145.3926,42.471 L144.6166,45.182 L135.5526,54.246 L135.9446,55.62 L143.9076,47.659 L143.1306,50.369 L136.3746,57.125 L136.7666,58.5 L142.4216,52.845 L141.6456,55.557 L137.1966,60.006 L137.5886,61.38 L140.9366,58.034 L140.1596,60.744 L138.0186,62.887 L138.4106,64.26 L139.4506,63.221 L138.7816,65.559 L137.1116,65.559 L137.1126,65.559 L135.3456,65.559 L133.4096,65.559 L131.6426,65.559 L129.7076,65.559 L127.9406,65.559 L126.0056,65.559 L124.2396,65.559 L123.4426,65.559 L106.3746,5.954 L121.7696,5.954 L131.1116,38.686 L131.2896,38.062 L145.5616,23.79 L145.1686,22.416 L131.9956,35.59 L132.7686,32.882 L144.7376,20.912 L144.3446,19.539 L133.4736,30.41 L134.2466,27.702 L143.9136,18.035 L143.5206,16.661 L134.9526,25.229 L135.7256,22.521 L143.0896,15.157 L142.6966,13.784 L136.4306,20.048 L137.2046,17.339 L142.2656,12.278 L141.8726,10.904 L137.9096,14.868 L138.6826,12.16 L141.4416,9.401 L141.0486,8.027 L139.3876,9.687 L140.1606,6.978 L140.1626,6.977 L140.4546,5.954 L141.1856,5.954 L142.8036,5.954 L143.1216,5.954 L144.8876,5.954 L155.8496,5.954 L155.8506,5.954 L165.2076,38.741 L174.5646,5.954 Z M146.8166,28.173 L132.2646,42.725 L132.6566,44.1 L147.2106,29.546 L146.8166,28.173 Z M131.4426,39.846 L131.8346,41.22 L146.3866,26.668 L145.9926,25.294 L131.4426,39.846 Z M148.0346,32.424 L147.6406,31.05 L133.0866,45.605 L133.4786,46.979 L148.0346,32.424 Z" id="Combined-Shape" fill="#ffffff"></path>
        <polygon id="Path" fill="#ffffff" points="195.3516 27.607 210.7226 27.607 210.7226 26.237 195.3516 26.237"></polygon>
        <polygon id="Path" fill="#ffffff" points="195.3516 22.371 210.7226 22.371 210.7226 21.002 195.3516 21.002"></polygon>
        <polygon id="Path" fill="#ffffff" points="210.7226 28.856 195.3506 28.856 195.3506 28.858 195.3506 42.657 195.3506 42.659 210.7226 42.659 210.7226 42.657 239.0516 42.657 239.0516 28.858 210.7226 28.858"></polygon>
        <polygon id="Path" fill="#ffffff" points="195.3516 24.989 210.7226 24.989 210.7226 23.62 195.3516 23.62"></polygon>
        <polygon id="Path" fill="#ffffff" points="210.7226 5.954 195.3506 5.954 195.3506 19.753 210.7226 19.753 239.0516 19.753 239.0516 5.954"></polygon>
        <polygon id="Path" fill="#ffffff" points="195.3516 51.76 195.3516 65.559 210.7226 65.559 239.0506 65.559 239.0506 51.76 210.7226 51.76"></polygon>
        <polygon id="Path" fill="#ffffff" points="195.3516 50.512 210.7226 50.512 210.7226 49.142 195.3516 49.142"></polygon>
        <polygon id="Path" fill="#ffffff" points="195.3516 45.276 210.7226 45.276 210.7226 43.907 195.3516 43.907"></polygon>
        <polygon id="Path" fill="#ffffff" points="195.3516 47.893 210.7226 47.893 210.7226 46.524 195.3516 46.524"></polygon>
        <polygon id="Path" fill="#E09F7E" points="273.7626 71.515 277.0466 71.515 277.0466 0 273.7626 0"></polygon>
    </g>
</svg>