<?xml version="1.0" encoding="UTF-8"?>
<svg width="288px" height="45px" viewBox="0 0 288 45" version="1.1" xmlns="http://www.w3.org/2000/svg" xmlns:xlink="http://www.w3.org/1999/xlink">
    <!-- Generator: Sketch 52.6 (67491) - http://www.bohemiancoding.com/sketch -->
    <title>LOWE. Create. Colour</title>
    <desc>Created with Sketch.</desc>
    <g id="Page-1" stroke="none" stroke-width="1" fill="none" fill-rule="evenodd">
        <g id="Lowe---Our-Group" transform="translate(-326.000000, -5865.000000)">
            <g id="LOWE.-Create.-Colour" transform="translate(325.112426, 5865.682446)">
                <g id="Group" transform="translate(1.214286, 3.280666)" fill="#545656">
                    <polygon id="Fill-1" points="118.230629 26.0452895 127.533489 26.0452895 127.533489 25.215424 118.230629 25.215424"></polygon>
                    <polygon id="Fill-2" points="118.230629 24.4589067 127.533489 24.4589067 127.533489 23.6290412 118.230629 23.6290412"></polygon>
                    <polygon id="Fill-3" points="118.230629 27.6328847 127.533489 27.6328847 127.533489 26.802413 118.230629 26.802413"></polygon>
                    <polygon id="Fill-4" points="118.231234 36.754131 144.678204 36.754131 144.678204 28.3894019 118.231234 28.3894019"></polygon>
                    <polyline id="Fill-5" points="127.533489 0.622550676 118.230629 0.622550676 118.230629 8.98727976 144.678809 8.98727976 144.678809 0.622550676 127.533489 0.622550676"></polyline>
                    <polygon id="Fill-6" points="118.230629 12.1612577 127.533489 12.1612577 127.533489 11.3313922 118.230629 11.3313922"></polygon>
                    <polyline id="Fill-7" points="127.533489 14.5053701 118.230629 14.5053701 118.230629 22.8719178 127.533489 22.8719178 127.533489 22.8713116 144.678809 22.8713116 144.678809 14.5065825 127.533489 14.5065825 127.533489 14.5053701"></polyline>
                    <polygon id="Fill-8" points="118.230629 10.5742687 127.533489 10.5742687 127.533489 9.74440322 118.230629 9.74440322"></polygon>
                    <polygon id="Fill-9" points="118.230629 13.7482467 127.533489 13.7482467 127.533489 12.917775 118.230629 12.917775"></polygon>
                    <path d="M99.9874367,20.4974962 L94.324379,0.622550676 L85.0063884,0.622550676 L84.8296638,1.24267662 L84.8278481,1.2432828 L84.3600119,2.88543449 L85.3652848,1.87916952 L85.6031369,2.71206594 L83.9339359,4.385133 L83.4654945,6.02546613 L85.8645926,3.62316007 L86.1024446,4.45605649 L83.0394185,7.52395228 L82.5703718,9.16610396 L86.3626899,5.36896917 L86.6005419,6.20125941 L82.1442959,10.6651963 L81.6764597,12.3067418 L86.8613924,7.11295972 L87.0998497,7.94524996 L81.2491733,13.8058341 L80.781337,15.4473796 L87.3600949,8.85755645 L87.597947,9.68984669 L80.3546559,16.9458658 L79.8868196,18.5874113 L87.8587975,10.601547 L88.0972547,11.4344434 L79.4595332,20.0858974 L79.3511986,20.464156 L73.6978244,0.622550676 L64.3804391,0.622550676 L74.7097547,36.754131 L82.9831329,36.754131 L82.9825277,36.754131 L83.9932476,36.754131 L84.3981408,35.3362673 L83.7687104,35.9666984 L83.5320688,35.133802 L84.8272429,33.8353564 L85.2981052,32.1925986 L83.2712184,34.2208893 L83.0339715,33.3879929 L85.7266021,30.6910815 L86.196254,29.0471113 L82.7743315,32.4750802 L82.5364794,31.6415776 L86.625356,27.5462004 L87.0956131,25.9028363 L82.2762342,30.7292711 L82.0389873,29.8963747 L87.5247152,24.4019255 L87.9949723,22.7585614 L81.7793473,28.9840682 L81.5414953,28.1505656 L88.4240744,21.2570443 L88.8937263,19.6136803 L81.28125,27.2376529 L81.0440032,26.4041503 L89.3228283,18.1121632 L89.6641733,16.9167689 L95.3357041,36.754131 L104.638564,36.754131 L114.96788,0.622550676 L105.649889,0.622550676 L99.9874367,20.4974962 Z M89.0946598,14.9236369 L80.2862658,23.7460347 L80.049019,22.9125321 L88.8562025,14.0913466 L89.0946598,14.9236369 Z M88.3575,12.3461437 L88.5959573,13.1790402 L79.7887737,22.0002256 L79.5515269,21.1673292 L88.3575,12.3461437 Z M80.7843631,25.4912376 L80.5465111,24.6583412 L89.3555103,15.8353372 L89.5933623,16.6682336 L80.7843631,25.4912376 Z" id="Fill-10"></path>
                    <path d="M41.11875,37.0863197 C41.3929153,37.1305711 41.6688964,37.1711854 41.9472983,37.2051317 L41.9472983,28.7664482 C41.6640546,28.6882505 41.3880736,28.5979291 41.11875,28.4960903 L41.11875,37.0863197" id="Fill-11"></path>
                    <path d="M44.2876899,29.1216719 L44.2876899,37.3675889 C44.4341535,37.3706199 44.5806171,37.3772879 44.7288964,37.3772879 C44.859019,37.3772879 44.9867207,37.3706199 45.1156329,37.3688013 L45.1156329,29.1240966 C44.9861155,29.1289461 44.8608347,29.1434945 44.7288964,29.1434945 C44.5781962,29.1434945 44.4347587,29.1277337 44.2876899,29.1216719" id="Fill-12"></path>
                    <path d="M37.9504153,36.3213159 C38.2233703,36.4116372 38.4999565,36.4946844 38.7789636,36.5734883 L38.7789636,27.2012819 C38.4872468,26.9769939 38.2124763,26.7357328 37.9504153,26.4805294 L37.9504153,36.3213159" id="Fill-13"></path>
                    <path d="M39.5342801,36.7686794 C39.8078402,36.8347535 40.0844264,36.8947657 40.3628283,36.9505346 L40.3628283,28.1742067 C40.0771638,28.0359968 39.8005775,27.8856633 39.5342801,27.7207813 L39.5342801,36.7686794" id="Fill-14"></path>
                    <path d="M36.3659454,35.7193754 C36.6382951,35.8363689 36.9142761,35.9479067 37.1944937,36.0527765 L37.1944937,25.6470268 C36.8918829,25.2693744 36.6122706,24.8705055 36.3659454,24.4455707 L36.3659454,35.7193754" id="Fill-15"></path>
                    <path d="M42.7032199,37.2887851 C42.9767801,37.3130324 43.2539715,37.3293994 43.5317682,37.3433416 L43.5317682,29.0743895 C43.249735,29.0434742 42.973754,29.0016475 42.7032199,28.9495157 L42.7032199,37.2887851" id="Fill-16"></path>
                    <path d="M47.4566297,37.2111936 C47.7350316,37.1778534 48.0110127,37.1384515 48.2845728,37.0942001 L48.2845728,28.5136696 C48.0152492,28.6136899 47.7398734,28.7027989 47.4566297,28.7791781 L47.4566297,37.2111936" id="Fill-17"></path>
                    <path d="M52.2094343,36.0685372 C52.4896519,35.9642736 52.7656329,35.853342 53.0379826,35.7375609 L53.0379826,24.4758799 C52.7916574,24.9008147 52.5120451,25.297865 52.2094343,25.6755174 L52.2094343,36.0685372" id="Fill-18"></path>
                    <path d="M44.7282911,-5.68434189e-14 C33.6951028,-5.68434189e-14 25.4205142,7.69247135 25.4205142,18.6886439 C25.4205142,20.5411414 25.6607872,22.2972556 26.1038093,23.941832 L26.1038093,19.6136803 L26.859731,19.6136803 L26.859731,26.1804685 C27.1072666,26.7787718 27.3832476,27.3576773 27.6888845,27.9165786 L27.6888845,19.6136803 L28.4448062,19.6136803 L28.4448062,29.1628924 C28.7062619,29.5587303 28.9816377,29.943657 29.2733544,30.3152476 L29.2733544,19.6136803 L30.0286709,19.6136803 L30.0286709,31.2117933 C30.2961788,31.5088233 30.5709494,31.7985792 30.8566139,32.0762113 L30.8566139,19.6136803 L31.6125356,19.6136803 L31.6125356,32.7696855 C31.8806487,33.0012476 32.1590506,33.2218985 32.4416891,33.4376999 L32.4416891,19.6136803 L33.1976108,19.6136803 L33.1976108,33.9826591 C33.4675396,34.1675451 33.7441258,34.3445508 34.026159,34.5154946 L34.026159,19.6136803 L34.7820807,19.6136803 L34.7820807,34.9501283 C35.0526147,35.0974309 35.3292009,35.2386717 35.6100237,35.3744569 L35.6100237,22.846458 C35.1385562,21.5771093 34.8855736,20.173794 34.8855736,18.6886439 C34.8855736,12.7838084 38.7795688,8.23379341 44.7282911,8.23379341 C50.6776187,8.23379341 54.5183544,12.7838084 54.5183544,18.6886439 C54.5183544,20.1810683 54.2653718,21.5910516 53.7932991,22.8658559 L53.7932991,35.3938548 C54.0747271,35.259282 54.3507081,35.1186474 54.6224525,34.9713447 L54.6224525,19.6136803 L55.3783742,19.6136803 L55.3783742,34.5379234 C55.659197,34.3663734 55.9357832,34.1893677 56.2069225,34.0056941 L56.2069225,19.6136803 L56.9628441,19.6136803 L56.9628441,33.4613411 C57.2448774,33.2461459 57.5220688,33.0248888 57.7907872,32.7939328 L57.7907872,19.6136803 L58.5461036,19.6136803 L58.5461036,32.1028834 C58.8335839,31.8246451 59.1083544,31.5348892 59.3752571,31.2378592 L59.3752571,19.6136803 L60.1311788,19.6136803 L60.1311788,30.3401011 C60.4222903,29.9685105 60.6982714,29.5835839 60.9597271,29.1871397 L60.9597271,19.6136803 L61.7156487,19.6136803 L61.7156487,27.9377951 C62.0206804,27.3788937 62.2972666,26.7993821 62.5435918,26.2010787 L62.5435918,19.6136803 L63.2995134,19.6136803 L63.2995134,23.9557742 C63.7425356,22.3069545 63.9822033,20.546597 63.9822033,18.6886439 C63.9822033,7.69247135 55.7614794,-5.68434189e-14 44.7282911,-5.68434189e-14" id="Fill-19"></path>
                    <path d="M45.8715546,37.3469787 C46.1499565,37.3336427 46.4265427,37.3160633 46.7013133,37.2930284 L46.7013133,28.9580023 C46.4289636,29.0089217 46.154193,29.0525669 45.8715546,29.0828761 L45.8715546,37.3469787" id="Fill-20"></path>
                    <path d="M49.0404945,36.9602335 C49.3188964,36.9050708 49.5954826,36.846271 49.8690427,36.7808031 L49.8690427,27.746241 C49.6033505,27.9093044 49.3267642,28.0590318 49.0404945,28.1954232 L49.0404945,36.9602335" id="Fill-21"></path>
                    <path d="M50.6249644,36.5880367 C50.9045767,36.509839 51.1805578,36.4249733 51.4535127,36.3358643 L51.4535127,26.5090201 C51.192057,26.7648296 50.9166812,27.0060907 50.6249644,27.2291663 L50.6249644,36.5880367" id="Fill-22"></path>
                    <polyline id="Fill-23" points="8.84349684 0.595272408 2.6956215e-13 9.45222267 2.6956215e-13 10.6257943 9.30285997 1.30935683 9.30285997 0.595272408 8.84349684 0.595272408"></polyline>
                    <polyline id="Fill-25" points="4.05009359e-13 11.696921 4.05009359e-13 12.8710988 9.30225475 3.55405512 9.30225475 2.37987727 4.05009359e-13 11.696921"></polyline>
                    <polyline id="Fill-26" points="4.05009359e-13 13.9410131 4.05009359e-13 15.1151909 9.30225475 5.79754105 9.30225475 4.62396938 4.05009359e-13 13.9410131"></polyline>
                    <polyline id="Fill-27" points="4.05009359e-13 16.1857114 4.05009359e-13 17.3592831 9.30225475 8.04163317 9.30225475 6.8680615 4.05009359e-13 16.1857114"></polyline>
                    <polyline id="Fill-28" points="4.05009359e-13 18.4291973 4.05009359e-13 19.602769 9.30225475 10.2863315 9.30225475 9.11215361 4.05009359e-13 18.4291973"></polyline>
                    <polyline id="Fill-29" points="2.12190665 0.595272408 3.53717056e-13 2.71994633 3.53717056e-13 3.893518 3.29361551 0.595272408 2.12190665 0.595272408"></polyline>
                    <polyline id="Fill-30" points="-7.09099446e-13 0.595272408 -7.09099446e-13 1.65063826 1.05308544 0.595272408 -7.09099446e-13 0.595272408"></polyline>
                    <polyline id="Fill-31" points="4.36243671 0.595272408 -5.38680212e-13 4.96464463 -5.38680212e-13 6.1382163 5.53475079 0.595272408 4.36243671 0.595272408"></polyline>
                    <polyline id="Fill-32" points="6.60296677 0.595272408 6.60360655e-13 7.20934293 6.60360655e-13 8.3829146 7.77467563 0.595272408 6.60296677 0.595272408"></polyline>
                    <polyline id="Fill-33" points="1.04703323 28.6015662 -7.9225515e-13 28.6015662 -7.9225515e-13 36.7274589 23.7967049 36.7274589 23.7967049 28.6015662 8.94033228 28.6015662 9.30225475 28.2390684 9.30225475 27.0654967 7.76922864 28.6015662 6.69980222 28.6015662 9.30225475 25.9949763 9.30225475 24.8214046 5.52809335 28.6015662 4.45987737 28.6015662 9.30225475 23.7508842 9.30225475 22.5767063 3.28756329 28.6015662 2.21874209 28.6015662 9.30225475 21.506792 9.30225475 20.3332204 1.04703323 28.6015662"></polyline>
                    <polyline id="Fill-34" points="4.05009359e-13 22.9179877 4.05009359e-13 24.0915594 9.30225475 14.7745157 9.30225475 13.600944 4.05009359e-13 22.9179877"></polyline>
                    <polyline id="Fill-35" points="4.05009359e-13 20.6738956 4.05009359e-13 21.8474673 9.30225475 12.5304236 9.30225475 11.3562457 4.05009359e-13 20.6738956"></polyline>
                    <polyline id="Fill-36" points="4.05009359e-13 25.1620798 4.05009359e-13 26.3356515 9.30225475 17.0186078 9.30225475 15.8450361 4.05009359e-13 25.1620798"></polyline>
                    <polyline id="Fill-37" points="4.05009359e-13 27.406172 4.05009359e-13 28.5797436 9.30225475 19.2626999 9.30225475 18.0885221 4.05009359e-13 27.406172"></polyline>
                </g>
                <g id="Group-2" transform="translate(166.900939, 0.293999)" fill="#4286B2">
                    <polygon id="Fill-38" points="-1.70419234e-13 43.3148574 1.98754747 43.3148574 1.98754747 3.55271368e-14 -1.70419234e-13 3.55271368e-14"></polygon>
                    <path d="M21.4920214,22.4681994 C21.4920214,28.0887348 23.8608584,31.7282618 29.3114834,31.7282618 C33.7961748,31.7282618 35.9120293,29.6551135 36.3030024,26.683601 L33.9571638,26.4302162 C33.6121875,28.6646093 32.1632872,29.6320786 29.3114834,29.6320786 C24.9877809,29.6320786 23.8608584,26.2920063 23.8608584,22.4681994 C23.8608584,18.6443925 24.9877809,15.3043203 29.3114834,15.3043203 C32.1632872,15.3043203 33.6121875,16.2717895 33.9571638,18.5061826 L36.3030024,18.2527979 C35.9120293,15.2812853 33.7961748,13.208137 29.3114834,13.208137 C23.8608584,13.208137 21.4920214,16.847664 21.4920214,22.4681994 Z M43.2158426,23.9194032 L47.5395451,23.9194032 L51.886246,31.4518421 L54.7150514,31.4518421 L50.0233742,23.7351234 C52.1622271,23.3435287 53.9561036,22.0535697 53.9561036,18.6904625 C53.9561036,14.382921 50.9663093,13.4845567 48.0915071,13.4845567 L40.9160008,13.4845567 L40.9160008,31.4518421 L43.2158426,31.4518421 L43.2158426,23.9194032 Z M43.2158426,21.800185 L43.2158426,15.603775 L48.3214913,15.603775 C49.7013964,15.603775 51.5642682,15.7880549 51.5642682,18.6904625 C51.5642682,21.5928701 49.7013964,21.800185 48.3214913,21.800185 L43.2158426,21.800185 Z M58.9697587,13.4845567 L58.9697587,31.4518421 L71.7798774,31.4518421 L71.7798774,29.3326238 L61.2696005,29.3326238 L61.2696005,23.2974587 L70.3309771,23.2974587 L70.3309771,21.2012754 L61.2696005,21.2012754 L61.2696005,15.603775 L71.319909,15.603775 L71.319909,13.4845567 L58.9697587,13.4845567 Z M75.1237263,31.4518421 L77.6075554,31.4518421 L79.5164241,26.2689713 L86.8299209,26.2689713 L88.7387896,31.4518421 L91.2226187,31.4518421 L84.3000949,13.231172 L82.04625,13.231172 L75.1237263,31.4518421 Z M86.0939715,24.241893 L80.2523734,24.241893 L83.1731725,16.1566146 L86.0939715,24.241893 Z M99.5825435,15.603775 L105.125162,15.603775 L105.125162,13.4845567 L91.7400831,13.4845567 L91.7400831,15.603775 L97.2827017,15.603775 L97.2827017,31.4518421 L99.5825435,31.4518421 L99.5825435,15.603775 Z M108.809146,13.4845567 L108.809146,31.4518421 L121.619264,31.4518421 L121.619264,29.3326238 L111.108987,29.3326238 L111.108987,23.2974587 L120.170364,23.2974587 L120.170364,21.2012754 L111.108987,21.2012754 L111.108987,15.603775 L121.159296,15.603775 L121.159296,13.4845567 L108.809146,13.4845567 Z" id="Fill-40"></path>
                </g>
            </g>
        </g>
    </g>
</svg>