<?xml version="1.0" encoding="UTF-8"?>
<svg width="253px" height="41px" viewBox="0 0 253 41" version="1.1" xmlns="http://www.w3.org/2000/svg" xmlns:xlink="http://www.w3.org/1999/xlink">
    <!-- Generator: Sketch 52.6 (67491) - http://www.bohemiancoding.com/sketch -->
    <title>Lowe Horizontal Copy</title>
    <desc>Created with Sketch.</desc>
    <defs>
        <polygon id="path-1" points="0 0 252.962916 0 252.962916 39.7305556 0 39.7305556"></polygon>
    </defs>
    <g id="Symbols" stroke="none" stroke-width="1" fill="none" fill-rule="evenodd">
        <g id="Header-On-IMage---SUBSEQUENT-PAGES" transform="translate(-130.000000, -55.000000)">
            <g id="LOGOS/Lowe-Horizontal-REV-MONO" transform="translate(130.000000, 55.394040)">
                <g id="Lowe-Horizontal">
                    <mask id="mask-2" fill="white">
                        <use xlink:href="#path-1"></use>
                    </mask>
                    <g id="Clip-2"></g>
                    <path d="M175.576192,26.8827778 L183.980483,26.8827778 L183.980483,28.825 L173.453896,28.825 L173.453896,12.3583333 L175.576192,12.3583333 L175.576192,26.8827778 Z M188.341801,28.825 L190.464097,28.825 L190.464097,12.3583333 L188.341801,12.3583333 L188.341801,28.825 Z M203.248136,29.0783333 L201.168287,29.0783333 L194.801399,12.3583333 L197.072256,12.3583333 L200.892388,22.7238889 L202.208211,26.4183333 L203.524035,22.7238889 L207.344167,12.3583333 L209.636247,12.3583333 L203.248136,29.0783333 Z M214.018788,28.825 L216.141083,28.825 L216.141083,12.3583333 L214.018788,12.3583333 L214.018788,28.825 Z M230.434746,22.3016667 L232.25992,25.1094444 L232.196251,20.1483333 L232.196251,12.3583333 L234.33977,12.3583333 L234.33977,28.825 L232.408481,28.825 L225.638357,18.8816667 L223.813183,16.0738889 L223.876852,21.035 L223.876852,28.825 L221.733333,28.825 L221.733333,12.3583333 L223.664622,12.3583333 L230.434746,22.3016667 Z M239.295331,20.5916667 C239.295331,15.4405556 241.481295,12.105 246.511136,12.105 C250.649613,12.105 252.602125,14.005 252.962916,16.7283333 L250.798732,16.9605556 C250.47983,14.9127778 249.142783,14.0261111 246.511136,14.0261111 C242.52122,14.0261111 241.481295,17.0872222 241.481295,20.5916667 C241.481295,24.0961111 242.52122,27.1361111 246.511136,27.1572222 C248.378757,27.1572222 249.885587,26.735 250.861843,26.1016667 L250.861843,21.9216667 L247.296386,21.9216667 L247.296386,20.085 L252.962916,20.085 L252.962916,27.3894444 C250.755728,28.7405556 248.951777,29.0994444 246.489913,29.0783333 C241.481295,29.0361111 239.295331,25.7427778 239.295331,20.5916667 Z M-0.000223399559,27.8544444 L-0.000223399559,28.93 L8.58446313,20.3911111 L8.58446313,19.315 L-0.000223399559,27.8544444 Z M-0.000223399559,25.7977778 L-0.000223399559,26.8733333 L8.58446313,18.3344444 L8.58446313,17.2588889 L-0.000223399559,25.7977778 Z M-0.000223399559,21.6844444 L-0.000223399559,22.76 L8.58446313,14.2211111 L8.58446313,13.145 L-0.000223399559,21.6844444 Z M-0.000223399559,23.7411111 L-0.000223399559,24.8166667 L8.58446313,16.2777778 L8.58446313,15.2022222 L-0.000223399559,23.7411111 Z M0.965979691,28.95 L-0.000223399559,28.95 L-0.000223399559,36.3972222 L21.9593947,36.3972222 L21.9593947,28.95 L8.2499223,28.95 L8.58446313,28.6177778 L8.58446313,27.5422222 L7.16922693,28.95 L6.18235938,28.95 L8.58446313,26.5611111 L8.58446313,25.4855556 L5.10110552,28.95 L4.11591347,28.95 L8.58446313,24.5044444 L8.58446313,23.4283333 L3.0341011,28.95 L2.04723355,28.95 L8.58446313,22.4477778 L8.58446313,21.3722222 L0.965979691,28.95 Z M6.09355806,3.28333333 L-0.000223399559,9.34444444 L-0.000223399559,10.42 L7.17481192,3.28333333 L6.09355806,3.28333333 Z M4.02543664,3.28333333 L0.000335099338,7.28722222 L0.000335099338,8.36333333 L5.10724901,3.28333333 L4.02543664,3.28333333 Z M-0.000223399559,3.28333333 L-0.000223399559,4.25 L0.972123179,3.28333333 L-0.000223399559,3.28333333 Z M1.95787373,3.28333333 L0.000335099338,5.23 L0.000335099338,6.30555556 L3.03912759,3.28333333 L1.95787373,3.28333333 Z M-0.000223399559,19.6272222 L-0.000223399559,20.7027778 L8.58446313,12.1644444 L8.58446313,11.0883333 L-0.000223399559,19.6272222 Z M-0.000223399559,17.5711111 L-0.000223399559,18.6466667 L8.58446313,10.1072222 L8.58446313,9.03166667 L-0.000223399559,17.5711111 Z M-0.000223399559,15.5138889 L-0.000223399559,16.59 L8.58446313,8.05111111 L8.58446313,6.97555556 L-0.000223399559,15.5138889 Z M-0.000223399559,13.4566667 L-0.000223399559,14.5333333 L8.58446313,5.99444444 L8.58446313,4.91833333 L-0.000223399559,13.4566667 Z M8.16056247,3.28333333 L0.000335099338,11.4 L0.000335099338,12.4755556 L8.58446313,3.93722222 L8.58446313,3.28333333 L8.16056247,3.28333333 Z M46.7165338,36.2694444 C46.9745603,36.1977778 47.2292358,36.12 47.4811188,36.0383333 L47.4811188,27.0322222 C47.2398472,27.2666667 46.9857302,27.4877778 46.7165338,27.6922222 L46.7165338,36.2694444 Z M45.2549422,36.6105556 C45.5118517,36.56 45.7670857,36.5061111 46.0195272,36.4461111 L46.0195272,28.1666667 C45.7737876,28.3155556 45.5185536,28.4527778 45.2549422,28.5777778 L45.2549422,36.6105556 Z M42.3306419,36.965 C42.5875514,36.9527778 42.8427854,36.9366667 43.0957854,36.9155556 L43.0957854,29.2766667 C42.8450194,29.3233333 42.5914609,29.3633333 42.3306419,29.3911111 L42.3306419,36.965 Z M41.2756375,2.73722222 C31.0942026,2.73722222 23.4584057,9.78722222 23.4584057,19.865 C23.4584057,21.5627778 23.6801298,23.1722222 24.088951,24.6794444 L24.088951,20.7127778 L24.7865161,20.7127778 L24.7865161,26.7311111 C25.0143837,27.2794444 25.2690592,27.81 25.5511011,28.3222222 L25.5511011,20.7127778 L26.2486662,20.7127778 L26.2486662,29.4638889 C26.4899377,29.8272222 26.7440547,30.18 27.0132512,30.5205556 L27.0132512,20.7127778 L27.7102578,20.7127778 L27.7102578,31.3422222 C27.9571143,31.6144444 28.2106728,31.88 28.4748428,32.1344444 L28.4748428,20.7127778 L29.1724079,20.7127778 L29.1724079,32.77 C29.419823,32.9822222 29.676174,33.1844444 29.9369929,33.3822222 L29.9369929,20.7127778 L30.6345581,20.7127778 L30.6345581,33.8816667 C30.8842071,34.0511111 31.1394411,34.2133333 31.399143,34.37 L31.399143,20.7127778 L32.0967082,20.7127778 L32.0967082,34.7683333 C32.3469157,34.9038889 32.6021497,35.0327778 32.8612932,35.1572222 L32.8612932,23.6755556 C32.425664,22.5122222 32.1922115,21.2261111 32.1922115,19.865 C32.1922115,14.4533333 35.7855934,10.2833333 41.2756375,10.2833333 C46.7656817,10.2833333 50.3093572,14.4533333 50.3093572,19.865 C50.3093572,21.2327778 50.0759046,22.525 49.640834,23.6933333 L49.640834,35.175 C49.8999775,35.0516667 50.154653,34.9227778 50.405419,34.7877778 L50.405419,20.7127778 L51.1029841,20.7127778 L51.1029841,34.3905556 C51.3626861,34.2333333 51.6179201,34.0711111 51.8675691,33.9027778 L51.8675691,20.7127778 L52.5651342,20.7127778 L52.5651342,33.4038889 C52.8259532,33.2066667 53.0817457,33.0038889 53.3297192,32.7922222 L53.3297192,20.7127778 L54.0267258,20.7127778 L54.0267258,32.1588889 C54.2920128,31.9038889 54.5450128,31.6383333 54.7913108,31.3661111 L54.7913108,20.7127778 L55.4888759,20.7127778 L55.4888759,30.5433333 C55.7575139,30.2027778 56.0121894,29.85 56.2534609,29.4866667 L56.2534609,20.7127778 L56.951026,20.7127778 L56.951026,28.3411111 C57.2325095,27.8294444 57.4877435,27.2983333 57.715611,26.75 L57.715611,20.7127778 L58.4131762,20.7127778 L58.4131762,24.6922222 C58.8219974,23.1811111 59.0431629,21.5677778 59.0431629,19.865 C59.0431629,9.78722222 51.4570724,2.73722222 41.2756375,2.73722222 Z M48.1786839,35.7938889 C48.4372689,35.6977778 48.6919444,35.5966667 48.9432689,35.49 L48.9432689,25.1688889 C48.7159598,25.5583333 48.4579333,25.9222222 48.1786839,26.2683333 L48.1786839,35.7938889 Z M43.7927921,36.8405556 C44.0497015,36.81 44.304377,36.7738889 44.557377,36.7333333 L44.557377,28.8694444 C44.308845,28.9611111 44.054728,29.0427778 43.7927921,29.1127778 L43.7927921,36.8405556 Z M39.4069002,36.9116667 C39.6593417,36.9338889 39.9151342,36.9488889 40.1714852,36.9622222 L40.1714852,29.3833333 C39.9112247,29.355 39.6565492,29.3166667 39.4069002,29.2688889 L39.4069002,36.9116667 Z M33.5582998,35.4733333 C33.8101828,35.5805556 34.0648583,35.6827778 34.3228848,35.7788889 L34.3228848,26.2422222 C34.0436353,25.8961111 33.7861673,25.5305556 33.5582998,25.1411111 L33.5582998,35.4733333 Z M36.4826,36.435 C36.7350415,36.4955556 36.9902755,36.5505556 37.247185,36.6016667 L37.247185,28.5583333 C36.9835735,28.4316667 36.7283395,28.2938889 36.4826,28.1427778 L36.4826,36.435 Z M35.0204499,36.0255556 C35.2723329,36.1072222 35.5275669,36.1838889 35.7850349,36.2561111 L35.7850349,27.6666667 C35.5158384,27.4616667 35.2622799,27.2405556 35.0204499,27.0061111 L35.0204499,36.0255556 Z M40.8684918,29.4266667 L40.8684918,36.9838889 C41.0042071,36.9866667 41.1388053,36.9927778 41.2756375,36.9927778 C41.3957148,36.9927778 41.5135581,36.9866667 41.6330768,36.985 L41.6330768,29.4288889 C41.5129996,29.4333333 41.3973903,29.4466667 41.2756375,29.4466667 C41.1365713,29.4466667 41.0047656,29.4322222 40.8684918,29.4266667 Z M37.9447501,36.7261111 C38.1971916,36.7666667 38.4524256,36.8038889 38.7093351,36.835 L38.7093351,29.1011111 C38.4479576,29.0294444 38.1932821,28.9466667 37.9447501,28.8533333 L37.9447501,36.7261111 Z M97.4941364,3.30777778 L106.092785,3.30777778 L96.5603263,36.4216667 L96.5430128,36.4216667 L87.9935117,36.4216667 L87.9761982,36.4216667 L82.7425051,18.2411111 L82.4275117,19.3366667 L74.7878053,26.9361111 L75.0067369,27.7 L82.031536,20.7127778 L81.5975823,22.2188889 L75.2468914,28.5366667 L75.465823,29.3005556 L81.2016066,23.595 L80.7682115,25.1011111 L75.7059775,30.1366667 L75.9249091,30.9 L80.3722358,26.4772222 L79.9382821,27.9827778 L76.1650636,31.7361111 L76.3839951,32.5 L79.5423064,29.3583333 L79.1089113,30.865 L76.6241497,33.3366667 L76.8430812,34.1 L78.7129355,32.2411111 L78.2789819,33.7466667 L77.0832358,34.9372222 L77.3021673,35.7 L77.8830062,35.1227778 L77.5093704,36.4216667 L76.5766773,36.4216667 L76.5772358,36.4216667 L75.5903682,36.4216667 L74.5091143,36.4216667 L73.5222468,36.4216667 L72.4415514,36.4216667 L71.4546839,36.4216667 L70.3739885,36.4216667 L69.3876795,36.4216667 L68.9425558,36.4216667 L59.4100967,3.30777778 L68.0081872,3.30777778 L73.2256839,21.4922222 L73.3250967,21.1455556 L81.2959929,13.2166667 L81.0765029,12.4533333 L73.7193969,19.7722222 L74.1511166,18.2677778 L80.8357898,11.6177778 L80.6162998,10.855 L74.5448583,16.8944444 L74.9765779,15.39 L80.3755868,10.0194444 L80.1560967,9.25611111 L75.3708781,14.0161111 L75.8025978,12.5116667 L79.9153837,8.42055556 L79.6958936,7.65777778 L76.1963395,11.1377778 L76.6286177,9.63277778 L79.4551806,6.82111111 L79.2356905,6.05777778 L77.0223594,8.26 L77.454079,6.75555556 L78.9949775,5.22277778 L78.7754874,4.45944444 L77.8478208,5.38166667 L78.2795404,3.87666667 L78.2806574,3.87611111 L78.4437391,3.30777778 L78.8520018,3.30777778 L79.755653,3.30777778 L79.9332556,3.30777778 L80.9195647,3.30777778 L87.0418296,3.30777778 L87.0423881,3.30777778 L92.2682623,21.5227778 L97.4941364,3.30777778 Z M81.9969091,15.6516667 L73.8696331,23.7361111 L74.0885647,24.5 L82.2169576,16.4144444 L81.9969091,15.6516667 Z M73.410547,22.1366667 L73.6294786,22.9 L81.7567545,14.8155556 L81.536706,14.0522222 L73.410547,22.1366667 Z M82.6771607,18.0133333 L82.4571121,17.25 L74.3287192,25.3361111 L74.5476508,26.0994444 L82.6771607,18.0133333 Z M109.103653,15.3372222 L117.68834,15.3372222 L117.68834,14.5761111 L109.103653,14.5761111 L109.103653,15.3372222 Z M109.103653,12.4283333 L117.68834,12.4283333 L117.68834,11.6677778 L109.103653,11.6677778 L109.103653,12.4283333 Z M117.68834,16.0311111 L109.103094,16.0311111 L109.103094,16.0322222 L109.103094,23.6983333 L109.103094,23.6994444 L117.68834,23.6994444 L117.68834,23.6983333 L133.510055,23.6983333 L133.510055,16.0322222 L117.68834,16.0322222 L117.68834,16.0311111 Z M109.103653,13.8827778 L117.68834,13.8827778 L117.68834,13.1222222 L109.103653,13.1222222 L109.103653,13.8827778 Z M117.68834,3.30777778 L109.103094,3.30777778 L109.103094,10.9738889 L117.68834,10.9738889 L133.510055,10.9738889 L133.510055,3.30777778 L117.68834,3.30777778 Z M109.103653,28.7555556 L109.103653,36.4216667 L117.68834,36.4216667 L133.509496,36.4216667 L133.509496,28.7555556 L117.68834,28.7555556 L109.103653,28.7555556 Z M109.103653,28.0622222 L117.68834,28.0622222 L117.68834,27.3011111 L109.103653,27.3011111 L109.103653,28.0622222 Z M109.103653,25.1533333 L117.68834,25.1533333 L117.68834,24.3927778 L109.103653,24.3927778 L109.103653,25.1533333 Z M109.103653,26.6072222 L117.68834,26.6072222 L117.68834,25.8466667 L109.103653,25.8466667 L109.103653,26.6072222 Z M152.89611,39.7305556 L154.73022,39.7305556 L154.73022,0 L152.89611,0 L152.89611,39.7305556 Z" id="Fill-1" fill="#FFFFFF" mask="url(#mask-2)"></path>
                </g>
            </g>
        </g>
    </g>
</svg>