<svg viewBox="0 0 453 72" xmlns="http://www.w3.org/2000/svg" xmlns:xlink="http://www.w3.org/1999/xlink"><defs><path id="a" d="M0 0h452.934v71.515H0z"/></defs><g fill="none" fill-rule="evenodd"><mask id="b" fill="#fff"><use xlink:href="#a"/></mask><path d="M0 50.138v1.936l15.37-15.37v-1.937L0 50.138zm0-3.702v1.936l15.37-15.37v-1.936L0 46.436zm0-7.404v1.936l15.37-15.37v-1.937L0 39.032zm0 3.702v1.936L15.37 29.3v-1.936L0 42.734zm1.73 9.376H0v13.405h39.319V52.11H14.772l.599-.598v-1.936l-2.534 2.534H11.07l4.3-4.3v-1.936L9.135 52.11H7.37l8-8.002v-1.937L5.434 52.11H3.666L15.37 40.406V38.47L1.73 52.11zm9.18-46.2L0 16.82v1.936L12.847 5.91H10.91zm-3.702 0L0 13.117v1.937L9.145 5.91H7.208zM0 5.91v1.74l1.74-1.74H0zm3.506 0L0 9.414v1.936l5.44-5.44H3.507zM0 35.329v1.936l15.37-15.369v-1.937L0 35.329zm0-3.701v1.936l15.37-15.371v-1.936L0 31.628zm0-3.703v1.937l15.37-15.37v-1.936L0 27.925zm0-3.703v1.938l15.37-15.37V8.853L0 24.222zM14.612 5.91L0 20.52v1.936L15.37 7.087V5.91h-.76zm69.035 59.375c.462-.129.918-.269 1.369-.416V48.658c-.432.422-.887.82-1.37 1.188v15.439zm-2.617.614c.46-.091.917-.188 1.369-.296V50.7c-.44.268-.897.515-1.37.74v14.459zm-5.236.638c.46-.022.917-.051 1.37-.089v-13.75c-.45.084-.903.156-1.37.206v13.633zm-1.89-61.61c-18.23 0-31.901 12.69-31.901 30.83 0 3.056.397 5.953 1.129 8.666v-7.14h1.249v10.833a29.09 29.09 0 001.369 2.864V37.283h1.249v15.752c.432.654.887 1.289 1.369 1.902V37.283h1.248v19.133c.442.49.896.968 1.369 1.426V37.283h1.249v21.703c.443.382.902.746 1.369 1.102V37.283h1.249v23.704c.447.305.904.597 1.369.879V37.283h1.249v25.3c.448.244.905.476 1.369.7V42.616c-.78-2.094-1.198-4.409-1.198-6.859 0-9.741 6.434-17.247 16.264-17.247 9.83 0 16.175 7.506 16.175 17.247 0 2.462-.418 4.788-1.197 6.891v20.667c.464-.222.92-.454 1.369-.697V37.283H91.5v24.62a33.21 33.21 0 001.369-.878V37.283h1.249v22.844c.467-.355.925-.72 1.369-1.101V37.283h1.248v20.603c.475-.459.928-.937 1.369-1.427V37.283h1.249v17.695a28.74 28.74 0 001.369-1.902V37.283h1.249v13.731a29.21 29.21 0 001.369-2.864V37.283h1.249v7.163a33.35 33.35 0 001.128-8.689c0-18.14-13.583-30.83-31.813-30.83zm12.36 59.502c.464-.173.92-.355 1.37-.547V45.304a15.993 15.993 0 01-1.37 1.979v17.146zm-7.852 1.884c.46-.055.916-.12 1.369-.193V51.965c-.445.165-.9.312-1.37.438v13.91zm-7.853.128c.452.04.91.067 1.369.091V52.89a17.07 17.07 0 01-1.37-.206v13.757zm-10.472-2.589c.45.193.907.377 1.369.55V47.236c-.5-.623-.961-1.281-1.37-1.982v18.598zm5.236 1.731c.452.109.909.208 1.369.3V51.405a15.045 15.045 0 01-1.37-.748v14.926zm-2.618-.737c.45.147.908.285 1.369.415V49.8a15.204 15.204 0 01-1.37-1.189v16.235zm10.47-11.878v13.603c.244.005.485.016.73.016.215 0 .426-.011.64-.014V52.972c-.215.008-.422.032-.64.032-.25 0-.485-.026-.73-.036zm-5.234 13.139c.452.073.909.14 1.369.196V52.382a15.64 15.64 0 01-1.37-.446v14.171zM174.565 5.954h15.396l-17.068 59.605H157.523l-9.371-32.725-.564 1.972-13.68 13.679.393 1.375 12.578-12.577-.777 2.711-11.371 11.372.392 1.375 10.27-10.27-.776 2.711-9.064 9.064.392 1.374 7.963-7.961-.777 2.71-6.756 6.756.392 1.375 5.655-5.655-.776 2.712-4.45 4.449.393 1.374 3.348-3.346-.777 2.71-2.141 2.143.392 1.373 1.04-1.039-.67 2.338h-1.67.002-13.67L106.375 5.954h15.395l9.342 32.732.178-.624 14.272-14.272-.393-1.374-13.173 13.174.773-2.708 11.969-11.97-.393-1.373-10.871 10.871.773-2.708 9.667-9.667-.393-1.374-8.568 8.568.773-2.708 7.364-7.364-.393-1.373-6.266 6.264.774-2.709 5.06-5.061-.392-1.374-3.963 3.964.773-2.708 2.759-2.759-.393-1.374-1.661 1.66.773-2.709.002-.001.292-1.023h15.395l9.358 32.787 9.357-32.787zm-27.748 22.219l-14.552 14.552.392 1.375 14.554-14.554-.394-1.373zm-15.374 11.673l.392 1.374 14.552-14.552-.394-1.374-14.55 14.552zm16.592-7.422l-.394-1.374-14.554 14.555.392 1.374 14.556-14.555zm47.317-4.817h15.37v-1.37h-15.37v1.37zm0-5.236h15.37v-1.369h-15.37v1.369zm15.37 6.485h-15.371v13.803h15.372v-.002h28.329V28.858h-28.33v-.002zm-15.37-3.867h15.37V23.62h-15.37v1.369zm15.37-19.035h-15.371v13.799h43.701V5.954h-28.33zm-15.37 45.806v13.799h43.699V51.76h-43.699zm0-1.248h15.37v-1.37h-15.37v1.37zm0-5.236h15.37v-1.369h-15.37v1.369zm0 2.617h15.37v-1.369h-15.37v1.369z" fill="#FFF" mask="url(#b)"/><path fill="#E09F7E" mask="url(#b)" d="M273.763 71.515h3.284V0h-3.284zM314.372 48.389h15.048v3.496h-18.848v-29.64h3.8zM337.229 51.885h3.8v-29.64h-3.8zM363.919 52.341h-3.724l-11.4-30.096h4.066l6.84 18.658 2.356 6.65 2.356-6.65 6.84-18.658h4.104zM383.204 51.885h3.8v-29.64h-3.8zM412.597 40.143l3.268 5.054-.114-8.93V22.245h3.838v29.64h-3.458l-12.122-17.898-3.268-5.054.114 8.93v14.022h-3.838v-29.64h3.458zM428.462 37.065c0-9.272 3.914-15.276 12.92-15.276 7.41 0 10.906 3.42 11.552 8.322l-3.875.418c-.571-3.686-2.965-5.282-7.677-5.282-7.144 0-9.006 5.51-9.006 11.818s1.862 11.78 9.006 11.818c3.344 0 6.042-.76 7.79-1.9v-7.524h-6.384v-3.306h10.146v13.148c-3.952 2.432-7.182 3.078-11.59 3.04-8.968-.076-12.882-6.004-12.882-15.276z"/></g></svg>