<?xml version="1.0" encoding="utf-8"?>
<svg width="746px" height="251px" viewBox="0 0 746 251" version="1.1" xmlns:xlink="http://www.w3.org/1999/xlink" xmlns="http://www.w3.org/2000/svg">
  <desc>Created with Lunacy</desc>
  <defs>
    <path d="M0 0L588.914 0L588.914 92.9853L0 92.9853L0 0Z" id="path_1" />
    <clipPath id="mask_1">
      <use xlink:href="#path_1" />
    </clipPath>
  </defs>
  <g id="Lowe-Horizontal-Copy" transform="translate(78.5 78.49994)">
    <g id="Lowe-Horizontal">
      <path d="M0 0L588.914 0L588.914 92.9853L0 92.9853L0 0Z" id="Clip-2" fill="none" stroke="none" />
      <g clip-path="url(#mask_1)">
        <path d="M360.222 92.9853L355.952 92.9853L355.952 0L360.222 0L360.222 92.9853ZM54.6132 46.492C54.6132 22.906 72.3898 6.40619 96.0928 6.40619C119.796 6.40619 137.457 22.906 137.457 46.492C137.457 50.4772 136.942 54.253 135.99 57.7896L135.99 48.4761L134.366 48.4761L134.366 62.6056C133.836 63.889 133.241 65.132 132.586 66.3295L132.586 48.4761L130.962 48.4761L130.962 69.0105C130.4 69.8609 129.808 70.6865 129.182 71.4836L129.182 48.4761L127.558 48.4761L127.558 73.4092C126.985 74.0463 126.396 74.6678 125.778 75.2646L125.778 48.4761L124.155 48.4761L124.155 76.7468C123.578 77.2422 122.983 77.7168 122.375 78.1784L122.375 48.4761L120.752 48.4761L120.752 79.346C120.17 79.74 119.576 80.1196 118.971 80.4876L118.971 48.4761L117.348 48.4761L117.348 81.4172C116.764 81.7332 116.171 82.0348 115.568 82.3235L115.568 55.4518C116.58 52.7175 117.124 49.6931 117.124 46.492C117.124 33.8265 108.874 24.0671 96.0928 24.0671C83.3116 24.0671 74.946 33.8265 74.946 46.492C74.946 49.6775 75.4895 52.6876 76.5037 55.4102L76.5037 82.2819C75.9004 81.9906 75.3062 81.689 74.7237 81.3717L74.7237 48.4761L73.0997 48.4761L73.0997 80.4395C72.4951 80.0728 71.9009 79.6931 71.3197 79.2966L71.3197 48.4761L69.6957 48.4761L69.6957 78.1277C69.0885 77.6648 68.4917 77.1915 67.9157 76.6948L67.9157 48.4761L66.2918 48.4761L66.2918 75.2074C65.6768 74.6119 65.0864 73.9904 64.5117 73.3533L64.5117 48.4761L62.8891 48.4761L62.8891 71.4302C62.2624 70.6332 61.6708 69.8076 61.1091 68.9572L61.1091 48.4761L59.4851 48.4761L59.4851 66.2853C58.8285 65.0865 58.2356 63.8448 57.7051 62.5614L57.7051 48.4761L56.0811 48.4761L56.0811 57.7597C55.1294 54.2322 54.6132 50.4655 54.6132 46.492ZM0 21.8697L14.1867 7.68431L16.7039 7.68431L0 24.3869L0 21.8697ZM0 9.94669L0 7.68431L2.26368 7.68431L0 9.94669ZM9.37199 7.68431L0.00130022 17.055L0.00130022 19.5735L11.8905 7.68431L9.37199 7.68431ZM4.55857 7.68431L0.00130022 12.2403L0.00130022 14.7575L7.0758 7.68431L4.55857 7.68431ZM0.00130022 26.6805L18.9988 7.68431L19.9857 7.68431L19.9857 9.21467L0.00130022 29.1978L0.00130022 26.6805ZM226.973 7.74152L246.991 7.74152L224.799 85.2412L204.815 85.2412L192.63 42.6915L191.897 45.2555L174.111 63.0412L174.621 64.829L190.975 48.4761L189.965 52.001L175.18 66.7871L175.69 68.575L189.043 55.2217L188.034 58.7466L176.249 70.5318L176.758 72.3183L187.112 61.9672L186.102 65.4908L177.318 74.2751L177.827 76.0629L185.18 68.7102L184.171 72.2364L178.386 78.0211L178.896 79.8076L183.249 75.457L182.239 78.9806L179.455 81.767L179.965 83.5522L181.317 82.2013L180.447 85.2412L160.503 85.2412L138.311 7.74152L158.328 7.74152L170.475 50.3004L170.706 49.489L189.263 30.9323L188.752 29.1458L171.624 46.2749L172.629 42.7539L188.191 27.1902L187.68 25.405L173.546 39.5397L174.551 36.0187L187.12 23.4495L186.609 21.663L175.469 32.8033L176.474 29.2823L186.049 19.7074L185.538 17.9222L177.39 26.0668L178.397 22.5445L184.977 15.9641L184.466 14.1776L179.313 19.3317L180.318 15.8107L183.906 12.2234L183.395 10.4369L181.235 12.5952L182.24 9.07294L182.243 9.07164L182.622 7.74152L202.641 7.74152L214.807 50.3719L226.973 7.74152ZM310.82 7.74152L253.999 7.74152L253.999 25.6833L310.82 25.6833L310.82 7.74152ZM0 31.4939L0 34.0138L19.9857 14.0294L19.9857 11.5109L0 31.4939ZM0 38.8272L0 36.3087L19.9857 16.3256L19.9857 18.8428L0 38.8272ZM0 41.1234L0 43.6406L19.9857 23.6549L19.9857 21.1377L0 41.1234ZM0 48.4527L0 45.9355L19.9857 25.9511L19.9857 28.4696L0 48.4527ZM273.986 29.0872L254.001 29.0872L254.001 27.3072L273.986 27.3072L273.986 29.0872ZM573.894 28.3305C562.184 28.3305 557.095 36.137 557.095 48.1927C557.095 60.2483 562.184 67.956 573.845 68.0549C579.576 68.1043 583.776 67.2643 588.914 64.1022L588.914 47.0069L575.722 47.0069L575.722 51.3054L584.023 51.3054L584.023 61.0883C581.75 62.5705 578.242 63.5587 573.894 63.5587C564.605 63.5093 562.184 56.3945 562.184 48.1927C562.184 39.9909 564.605 32.8267 573.894 32.8267C580.021 32.8267 583.133 34.9018 583.876 39.6944L588.914 39.151C588.074 32.7773 583.529 28.3305 573.894 28.3305ZM408.753 62.9164L428.319 62.9164L428.319 67.462L403.812 67.462L403.812 28.9234L408.753 28.9234L408.753 62.9164ZM443.413 67.462L438.472 67.462L438.472 28.9234L443.413 28.9234L443.413 67.462ZM468.333 68.0549L453.51 28.9234L458.797 28.9234L467.691 53.1829L470.754 61.8294L473.817 53.1829L482.711 28.9234L488.047 28.9234L473.175 68.0549L468.333 68.0549ZM503.191 67.462L498.25 67.462L498.25 28.9234L503.191 28.9234L503.191 67.462ZM536.467 52.1948L540.716 58.7661L540.568 47.1551L540.568 28.9234L545.558 28.9234L545.558 67.462L541.062 67.462L525.301 44.1906L521.052 37.6193L521.2 49.2303L521.2 67.462L516.21 67.462L516.21 28.9234L520.706 28.9234L536.467 52.1948ZM273.986 32.4912L254.001 32.4912L254.001 30.7112L273.986 30.7112L273.986 32.4912ZM0 50.7502L0 53.2675L19.9857 33.2831L19.9857 30.7645L0 50.7502ZM170.905 51.8086L171.415 53.5951L190.335 34.6743L189.823 32.8878L170.905 51.8086ZM254.001 35.8952L273.986 35.8952L273.986 34.1139L254.001 34.1139L254.001 35.8952ZM0 58.0809L0 55.5636L19.9857 35.5792L19.9857 38.0965L0 58.0809ZM171.974 55.5519L190.895 36.6311L191.407 38.4163L172.483 57.3397L171.974 55.5519ZM273.986 37.5192L253.999 37.5192L253.999 55.4661L273.986 55.4661L273.986 55.4635L310.82 55.4635L310.82 37.5218L273.986 37.5218L273.986 37.5192ZM191.966 40.3719L192.478 42.1584L173.552 61.0831L173.042 59.2966L191.966 40.3719ZM0 62.8943L0 60.3771L19.9857 40.3927L19.9857 42.9099L0 62.8943ZM0 65.1905L0 67.7077L19.9857 47.7233L19.9857 45.2048L0 65.1905ZM2.24938 67.7545L0 67.7545L0 85.184L51.1234 85.184L51.1234 67.7545L19.2069 67.7545L19.9857 66.977L19.9857 64.4598L16.6909 67.7545L14.3934 67.7545L19.9857 62.1636L19.9857 59.6463L11.8762 67.7545L9.58263 67.7545L19.9857 57.3501L19.9857 54.8316L7.0641 67.7545L4.76661 67.7545L19.9857 52.5367L19.9857 50.0195L2.24938 67.7545ZM273.986 58.8688L254.001 58.8688L254.001 57.0888L273.986 57.0888L273.986 58.8688ZM79.9064 83.7368C79.3057 83.5119 78.7128 83.2727 78.1264 83.0217L78.1264 58.8402C78.6569 59.7517 79.2563 60.6072 79.9064 61.4172L79.9064 83.7368ZM112.164 83.7719C112.766 83.547 113.358 83.3104 113.944 83.0607L113.944 58.9052C113.414 59.8167 112.814 60.6683 112.164 61.4784L112.164 83.7719ZM254.001 62.2715L273.986 62.2715L273.986 60.4915L254.001 60.4915L254.001 62.2715ZM83.3103 84.8537C82.7109 84.6847 82.1167 84.5053 81.5303 84.3141L81.5303 63.205C82.0933 63.7537 82.6836 64.2712 83.3103 64.751L83.3103 84.8537ZM108.76 84.8849C109.36 84.7172 109.953 84.5352 110.54 84.344L110.54 63.2662C109.978 63.8148 109.386 64.3323 108.76 64.8108L108.76 84.8849ZM254.001 65.6768L273.986 65.6768L273.986 63.8955L254.001 63.8955L254.001 65.6768ZM84.9343 85.2724C85.522 85.4141 86.1162 85.5428 86.7143 85.6625L86.7143 66.8379C86.1006 66.5414 85.5064 66.219 84.9343 65.8653L84.9343 85.2724ZM107.137 85.2984C106.549 85.4388 105.955 85.5649 105.357 85.6833L105.357 66.8834C105.971 66.5908 106.565 66.2697 107.137 65.9212L107.137 85.2984ZM254.001 85.2412L254.001 67.2994L310.819 67.2994L310.819 85.2412L254.001 85.2412ZM90.1183 86.2085C89.5202 86.1357 88.926 86.0486 88.3383 85.9537L88.3383 67.5283C88.9169 67.7467 89.5098 67.9404 90.1183 68.1082L90.1183 86.2085ZM103.733 85.9706C103.144 86.0655 102.551 86.15 101.953 86.2216L101.953 68.1355C102.563 67.9716 103.154 67.7805 103.733 67.566L103.733 85.9706ZM91.7423 86.388C92.33 86.44 92.9255 86.4751 93.5223 86.5063L93.5223 68.7687C92.9164 68.7024 92.3235 68.6127 91.7423 68.5008L91.7423 86.388ZM98.5489 86.5128C99.147 86.4842 99.7412 86.4465 100.33 86.3971L100.33 68.5191C99.7464 68.6283 99.1561 68.7219 98.5489 68.7869L98.5489 86.5128ZM95.145 68.8701L95.145 86.557C95.4609 86.5635 95.7743 86.5778 96.0928 86.5778C96.3724 86.5778 96.6467 86.5635 96.925 86.5596L96.925 68.8753C96.6454 68.8857 96.3763 68.9169 96.0928 68.9169C95.7691 68.9169 95.4622 68.8831 95.145 68.8701Z" transform="translate(-0.0005200883 0)" id="Fill-1" fill="#FFFFFF" fill-rule="evenodd" stroke="none" />
      </g>
    </g>
  </g>
</svg>