<svg width="45" height="45" xmlns="http://www.w3.org/2000/svg" xmlns:xlink="http://www.w3.org/1999/xlink" xmlns:svgjs="http://svgjs.com/svgjs" viewBox="0 0.052 45 44.897" fill="#fff"><svg xmlns="http://www.w3.org/2000/svg" width="45" height="45" viewBox="0 0 44.898 44.795"><path paint-order="stroke fill markers" fill-rule="evenodd" d="M18.767 33.085c-7.824 0-14.216-6.392-14.216-14.216 0-7.824 6.392-14.216 14.216-14.216 7.824 0 14.216 6.392 14.216 14.216 0 7.824-6.392 14.216-14.216 14.216zm14.778-2.71c2.608-3.273 4.04-7.415 4.04-11.608C37.585 8.437 29.148 0 18.767 0 8.387 0 0 8.437 0 18.767s8.437 18.767 18.767 18.767c4.142 0 8.284-1.432 11.608-4.04l11.301 11.3 3.222-3.22-11.353-11.2z"/></svg></svg>