<?xml version="1.0" encoding="UTF-8"?>
<svg width="119px" height="352px" viewBox="0 0 119 352" version="1.1" xmlns="http://www.w3.org/2000/svg" xmlns:xlink="http://www.w3.org/1999/xlink">
    <!-- Generator: Sketch 55.2 (78181) - https://sketchapp.com -->
    <title>Group 8</title>
    <desc>Created with Sketch.</desc>
    <g id="Page-1" stroke="none" stroke-width="1" fill="none" fill-rule="evenodd">
        <g id="Lowe---Home-Page-1" transform="translate(0.000000, -6435.000000)" fill="#f1f1f1">
            <g id="4.-Testimonials" transform="translate(0.000000, 5651.000000)">
                <g id="Group-8" transform="translate(0.000000, 783.500000)">
                    <path d="M113.125653,0.538888889 L0,113.03555 L0,127.944444 L119,9.60609867 L119,0.538888889 L113.125653,0.538888889 Z M84.2194484,0.538888889 L0,84.3579281 L0,99.2333333 L99.1666667,0.538888889 L84.2194484,0.538888889 Z M55.4248155,0.538888889 L0,55.7015534 L0,70.5222222 L70.3181818,0.538888889 L55.4248155,0.538888889 Z M27.2913118,0.538888889 L0,27.1284859 L0,41.8111111 L42.3712121,0.538888889 L27.2913118,0.538888889 Z M0,0.538888889 L0,13.9972222 L13.5227273,0.538888889 L0,0.538888889 Z M0,141.788457 L0,156.655556 L119,38.7213007 L119,23.8666667 L0,141.788457 Z M0,169.605508 L0,184.469444 L119,66.5373687 L119,51.6805556 L0,169.605508 Z M0,198.322746 L0,213.180556 L119,95.2476952 L119,80.3916667 L0,198.322746 Z M0,227.036634 L0,241.891667 L119,123.968495 L119,109.102778 L0,227.036634 Z M0,254.849726 L0,269.705556 L119,151.774277 L119,136.916667 L0,254.849726 Z M0,283.561833 L0,298.416667 L119,180.482611 L119,165.627778 L0,283.561833 Z M0,312.272945 L0,327.127778 L119,209.204406 L119,194.338889 L0,312.272945 Z M0,340.796768 L0,352.25 L3.41247622,352.25 L119,237.881243 L119,223.05 L0,340.796768 Z M17.1287879,352.25 L32.1118028,352.25 L119,265.776345 L119,250.863889 L17.1287879,352.25 Z M45.9772727,352.25 L60.9152864,352.25 L119,294.448363 L119,279.575 L45.9772727,352.25 Z M74.8257576,352.25 L89.6744967,352.25 L119,323.072387 L119,308.286111 L74.8257576,352.25 Z M102.772727,352.25 L118.032218,352.25 L119,351.292073 L119,336.1 L102.772727,352.25 Z" id="Fill-1-Copy"></path>
                </g>
            </g>
        </g>
    </g>
</svg>